<svg id="art_logo-nocolor" xmlns="http://www.w3.org/2000/svg" xmlns:xlink="http://www.w3.org/1999/xlink" width="170.701" height="172.515" viewBox="0 0 170.701 172.515">
  <defs>
    <clipPath id="clip-path">
      <rect id="長方形_3" data-name="長方形 3" width="170.701" height="172.514" fill="none"/>
    </clipPath>
  </defs>
  <g id="グループ_3" data-name="グループ 3" clip-path="url(#clip-path)">
    <g id="グループ_2317" data-name="グループ 2317">
      <path id="パス_1" data-name="パス 1" d="M72.4,4.515a8.066,8.066,0,0,0-6.525,0c-1.025.606-1.342,2.105-.252,2.523,2.264.869,1.253-2.689,3.515-2.68,2.261-.009,1.25,3.549,3.515,2.68,1.089-.418.772-1.917-.253-2.523" transform="translate(16.006 0.943)" fill="#e0e0e0"/>
      <path id="パス_2" data-name="パス 2" d="M65.949,4.979a.69.69,0,0,0,.274.057h.035A.692.692,0,0,0,66.521,3.7c-.912-.683-1.069-1.047-1.078-1.205,0-.029-.006-.092.121-.212.27-.248.793.065,1.43.364a6.908,6.908,0,0,0,2.973.845,6.913,6.913,0,0,0,2.973-.845c.639-.3,1.164-.612,1.43-.364.128.12.125.183.122.212-.009.165-.177.551-1.189,1.285a.692.692,0,0,0,.682,1.2c1.522-.653,4.981-2.372,4.253-4.191-.386-.973-1.772-.916-3.924-.519A22.377,22.377,0,0,1,70.28.753l-.334,0-.3,0a22.376,22.376,0,0,1-4.03-.484c-2.153-.4-3.54-.455-3.925.519-.728,1.819,2.732,3.537,4.253,4.191" transform="translate(15.182)" fill="#e0e0e0"/>
      <path id="パス_3" data-name="パス 3" d="M30.658,32.464c.691-2.154,3.762-.093,3.636-2.515-.061-1.165-1.584-1.326-2.478-.54A6.7,6.7,0,0,0,30.152,32.3a6.708,6.708,0,0,0-.353,3.316c.261,1.163,1.588,1.928,2.322,1.021,1.526-1.886-2.17-2.024-1.463-4.172" transform="translate(7.322 7.129)" fill="#e0e0e0"/>
      <path id="パス_4" data-name="パス 4" d="M32.29,30.417a.69.69,0,0,0,.55-.743c-.152-1.648-.717-5.469-2.672-5.34-1.045.067-1.418,1.4-1.705,3.572a22.315,22.315,0,0,1-.787,3.985l-.106.315-.087.283a22.4,22.4,0,0,1-1.706,3.683c-1.042,1.925-1.526,3.227-.719,3.893,1.5,1.255,4.208-1.5,5.3-2.75a.682.682,0,0,0,.14-.243l.01-.032a.692.692,0,0,0-1.187-.662c-.93.657-1.325.693-1.48.653-.026-.007-.09-.024-.163-.182-.153-.334.307-.733.788-1.246a6.923,6.923,0,0,0,1.723-2.565,6.929,6.929,0,0,0,.115-3.091c-.087-.7-.223-1.294.1-1.471.152-.085.213-.061.239-.051.153.061.469.339.855,1.528a.694.694,0,0,0,.8.464" transform="translate(6.076 5.997)" fill="#e0e0e0"/>
      <path id="パス_5" data-name="パス 5" d="M44.182,72.827c-1.128-.3-1.751,1.1-1.279,2.19a8.069,8.069,0,0,0,5.279,3.835c1.187.112,2.325-.914,1.688-1.895-1.321-2.032-2.6,1.441-4.419.1-1.836-1.32,1.073-3.6-1.269-4.233" transform="translate(10.535 17.939)" fill="#e0e0e0"/>
      <path id="パス_6" data-name="パス 6" d="M49.643,79.127l-.027-.021a.693.693,0,0,0-1,.925c.338,1.089.249,1.473.163,1.609-.014.022-.05.077-.222.1-.365.044-.6-.517-.944-1.136a6.905,6.905,0,0,0-1.907-2.429,6.93,6.93,0,0,0-2.9-1.064c-.693-.133-1.3-.188-1.371-.547-.032-.17.009-.219.026-.242.1-.128.467-.342,1.718-.34a.693.693,0,0,0,.151-1.369c-1.614-.364-5.425-1.01-5.9.891-.258,1.013.9,1.782,2.871,2.726a22.372,22.372,0,0,1,3.547,1.978l.268.2.241.171a22.274,22.274,0,0,1,2.975,2.761c1.509,1.587,2.6,2.449,3.48,1.887,1.659-1.042-.131-4.467-.977-5.89a.674.674,0,0,0-.188-.208" transform="translate(9.215 18.289)" fill="#e0e0e0"/>
      <path id="パス_7" data-name="パス 7" d="M121.716,41.564a.694.694,0,0,0-.763.576,25.8,25.8,0,0,1-14.233,17.717C100.574,51.535,93.5,49.393,87.565,49.851c5.092-3.112,9.577-9.008,9.658-19.385A25.742,25.742,0,0,1,119.1,36.441a.692.692,0,0,0,1.021-.932c-2.154-2.584-11.788-10.782-23.289-9.3C94.691,14.815,83.917,8.185,80.8,6.936a.692.692,0,0,0-.572,1.259A25.747,25.747,0,0,1,92.668,27.157c-9.82,3.274-14.045,9.339-15.442,15.13C75.82,36.5,71.593,30.448,61.783,27.179A25.811,25.811,0,0,1,74.232,8.195a.693.693,0,0,0-.575-1.259c-3.124,1.251-13.909,7.89-16.041,19.3-11.5-1.481-21.129,6.713-23.283,9.3a.692.692,0,0,0,1.021.932,25.746,25.746,0,0,1,21.879-5.974c.086,10.308,4.522,16.192,9.577,19.314C60.872,49.356,53.8,51.51,47.662,59.844A25.8,25.8,0,0,1,33.5,42.164a.693.693,0,0,0-1.376.156c.224,3.354,3.2,15.634,13.355,21.2-4.943,10.472-.132,22.148,1.66,24.992a.691.691,0,0,0,1.2-.682,25.748,25.748,0,0,1,1.062-22.621c9.83,3.119,16.8.735,21.339-3.095-2.246,5.5-2.37,12.863,3.623,21.25a25.82,25.82,0,0,1-21.177,7.989.693.693,0,0,0-.274,1.356c3.255.823,15.834,1.787,24.264-6.13,8.431,7.964,21.05,7,24.311,6.174a.693.693,0,0,0-.275-1.357,25.8,25.8,0,0,1-21.21-8.023c6.043-8.425,5.907-15.823,3.642-21.337,4.526,3.853,11.491,6.268,21.331,3.17a25.744,25.744,0,0,1,1.086,22.669.692.692,0,0,0,1.2.683c1.792-2.847,6.612-14.546,1.643-25.028C119.118,57.981,122.1,45.657,122.329,42.3a.7.7,0,0,0-.613-.733M92.832,31.718c-.47,13.838-8.556,18.514-14,19.267-.964-5.408.983-14.542,14-19.267m-31.211.025c13,4.717,14.96,13.831,14,19.243-5.44-.75-13.524-5.418-14-19.243M51.945,61.419c8.535-10.97,17.852-9.98,22.7-7.379-2.388,4.952-9.343,11.234-22.7,7.379m25.245,18.36c-7.782-11.511-3.939-20.066.039-23.856,3.964,3.817,7.754,12.366-.039,23.856m2.64-25.731c4.859-2.571,14.11-3.505,22.6,7.369-13.269,3.8-20.2-2.432-22.6-7.369" transform="translate(7.918 1.697)" fill="#e0e0e0"/>
      <path id="パス_8" data-name="パス 8" d="M105.71,29.39c-.892-.788-2.417-.627-2.477.54-.126,2.422,2.945.36,3.636,2.514.707,2.148-2.989,2.286-1.463,4.172.735.907,2.062.142,2.321-1.02a6.724,6.724,0,0,0-.352-3.317,6.687,6.687,0,0,0-1.665-2.889" transform="translate(25.443 7.124)" fill="#e0e0e0"/>
      <path id="パス_9" data-name="パス 9" d="M112.462,36.154a22.348,22.348,0,0,1-1.7-3.683l-.087-.282-.108-.317a22.434,22.434,0,0,1-.787-3.984c-.288-2.169-.661-3.505-1.706-3.574-1.954-.13-2.519,3.692-2.671,5.341a.692.692,0,0,0,1.347.279c.386-1.189.7-1.468.856-1.528.025-.011.085-.034.238.05.32.177.183.773.1,1.472a6.905,6.905,0,0,0,.115,3.09,6.91,6.91,0,0,0,1.724,2.565c.479.514.94.914.787,1.248-.075.158-.137.175-.163.181-.155.041-.55,0-1.48-.653a.693.693,0,0,0-1.187.662l.011.034a.681.681,0,0,0,.138.243c1.091,1.244,3.8,4,5.3,2.75.805-.667.323-1.969-.722-3.894" transform="translate(25.977 5.992)" fill="#e0e0e0"/>
      <path id="パス_10" data-name="パス 10" d="M92.576,77.1c-1.825,1.336-3.1-2.135-4.42-.1-.636.98.5,2.006,1.689,1.893a8.065,8.065,0,0,0,5.279-3.837c.472-1.093-.151-2.492-1.279-2.188-2.342.627.566,2.91-1.269,4.233" transform="translate(21.682 17.947)" fill="#e0e0e0"/>
      <path id="パス_11" data-name="パス 11" d="M96.039,74.645a.693.693,0,0,0,.151,1.37c1.25,0,1.613.213,1.718.34.019.021.059.072.026.242-.07.359-.678.413-1.37.546a5.649,5.649,0,0,0-4.811,3.5c-.34.616-.577,1.177-.942,1.134-.174-.022-.208-.076-.223-.1-.086-.135-.173-.52.163-1.609a.692.692,0,0,0-1-.924l-.027.02a.708.708,0,0,0-.189.208c-.844,1.423-2.634,4.847-.976,5.891.884.561,1.972-.3,3.48-1.888a22.284,22.284,0,0,1,2.977-2.76l.241-.172.268-.2a22.316,22.316,0,0,1,3.546-1.979c1.974-.942,3.129-1.711,2.871-2.726-.48-1.9-4.289-1.255-5.9-.891" transform="translate(21.66 18.297)" fill="#e0e0e0"/>
    </g>
    <path id="パス_12" data-name="パス 12" d="M4.093,131.365H0v-30.04l2.92-1.169H4.093Z" transform="translate(0 24.685)" fill="#474645"/>
    <path id="パス_13" data-name="パス 13" d="M14.482,108.635v14.682a3.076,3.076,0,0,0,.355,1.451,3.72,3.72,0,0,0,.971,1.184,4.909,4.909,0,0,0,1.44.8,5.168,5.168,0,0,0,1.769.3,3.754,3.754,0,0,0,1.306-.261,6.186,6.186,0,0,0,1.356-.722A8.484,8.484,0,0,0,22.926,125a6.069,6.069,0,0,0,.971-1.3V108.635h4.095v20.64H23.9v-3.862a8.366,8.366,0,0,1-1.355,1.673,10.451,10.451,0,0,1-1.767,1.372,9.429,9.429,0,0,1-1.959.924,6.078,6.078,0,0,1-1.913.335,6.416,6.416,0,0,1-2.537-.509,6.718,6.718,0,0,1-2.075-1.374,6.444,6.444,0,0,1-1.395-2.028,6.176,6.176,0,0,1-.509-2.49V108.635Z" transform="translate(2.56 26.775)" fill="#474645"/>
    <path id="パス_14" data-name="パス 14" d="M46.2,117.312a14.185,14.185,0,0,0,.845,5.054,11.074,11.074,0,0,0,2.325,3.776,9.889,9.889,0,0,0,3.509,2.363,11.657,11.657,0,0,0,4.391.816,6.941,6.941,0,0,0,2.71-.548,10.634,10.634,0,0,0,2.431-1.418,12.079,12.079,0,0,0,2.009-1.979,13.171,13.171,0,0,0,1.46-2.242l1.883,1.213a17.958,17.958,0,0,1-1.949,2.6,12.737,12.737,0,0,1-2.6,2.2,13.533,13.533,0,0,1-3.346,1.529,14.1,14.1,0,0,1-4.171.577,16.607,16.607,0,0,1-4.169-.509,15.409,15.409,0,0,1-3.6-1.425,13.26,13.26,0,0,1-2.94-2.2,13.53,13.53,0,0,1-2.191-2.833,13.9,13.9,0,0,1-1.855-6.968,13.83,13.83,0,0,1,.489-3.662,14.066,14.066,0,0,1,1.4-3.344,13.782,13.782,0,0,1,2.239-2.873,13.942,13.942,0,0,1,2.989-2.24,15.426,15.426,0,0,1,3.641-1.451,16.66,16.66,0,0,1,4.229-.519,12.824,12.824,0,0,1,3.93.577,14.07,14.07,0,0,1,3.286,1.527,13.343,13.343,0,0,1,2.643,2.2,16.707,16.707,0,0,1,1.979,2.593l-1.941,1.308a13.5,13.5,0,0,0-3.766-4.766,7.876,7.876,0,0,0-4.768-1.518,11.106,11.106,0,0,0-4.343.846,10.275,10.275,0,0,0-3.516,2.422,11.417,11.417,0,0,0-2.366,3.825,14.046,14.046,0,0,0-.864,5.073" transform="translate(10.089 25.441)" fill="#474645"/>
    <path id="パス_15" data-name="パス 15" d="M71.195,103.717h9.264a15.532,15.532,0,0,1,4.238.517,8.971,8.971,0,0,1,3.025,1.452,6.148,6.148,0,0,1,1.827,2.209,6.367,6.367,0,0,1,.615,2.8,5.8,5.8,0,0,1-.471,2.335,6.408,6.408,0,0,1-1.336,1.962,8.471,8.471,0,0,1-2.075,1.517,11.177,11.177,0,0,1-2.67.991l9.742,12.991H88.146l-9.3-12.587H75.691v12.587h-4.5Zm4.5,12.837h2.6a9.2,9.2,0,0,0,2.8-.4,6.873,6.873,0,0,0,2.219-1.144,5.145,5.145,0,0,0,2-4.161,5.629,5.629,0,0,0-.424-2.2,5.079,5.079,0,0,0-1.172-1.728,5.378,5.378,0,0,0-1.789-1.126,6.216,6.216,0,0,0-2.266-.4H75.691Z" transform="translate(17.547 25.562)" fill="#474645"/>
    <path id="パス_16" data-name="パス 16" d="M115.043,103.717v1.729H100.935v9.57h9.438v1.73h-9.438v12.012h14.107v1.729h-18.6v-26.77Z" transform="translate(23.769 25.563)" fill="#474645"/>
    <path id="パス_17" data-name="パス 17" d="M129.6,103.223l12.607,27.386h-4.573l-4.095-8.935H122.071l-4.228,8.935h-2.249l12.895-27.386Zm-6.745,16.72h9.858l-4.862-10.59Z" transform="translate(28.49 25.441)" fill="#474645"/>
    <path id="パス_18" data-name="パス 18" d="M22.834,134.307l1.273,3.238,1.276-3.294,1.288,3.274,1.238-3.218h.82l-1.971,5.086H26.2l-1.027-2.615-1.01,2.615h-.558L21.6,134.307Z" transform="translate(5.323 33.088)" fill="#474645"/>
    <path id="パス_19" data-name="パス 19" d="M31.371,139.437a3.266,3.266,0,0,1-.774-.09,2.848,2.848,0,0,1-.686-.254,2.736,2.736,0,0,1-.577-.4,2.414,2.414,0,0,1-.442-.534,2.459,2.459,0,0,1-.283-.642,2.548,2.548,0,0,1-.1-.73,2.473,2.473,0,0,1,.1-.72,2.422,2.422,0,0,1,.725-1.139,2.654,2.654,0,0,1,.577-.39,3.056,3.056,0,0,1,.686-.243,3.525,3.525,0,0,1,1.548,0,3,3,0,0,1,.686.246,2.817,2.817,0,0,1,.575.388,2.4,2.4,0,0,1,.445.516,2.464,2.464,0,0,1,.283.621,2.525,2.525,0,0,1,.1.715,2.751,2.751,0,0,1-.1.748,2.585,2.585,0,0,1-.283.647,2.439,2.439,0,0,1-.445.528,2.662,2.662,0,0,1-.575.4,2.744,2.744,0,0,1-.686.251,3.348,3.348,0,0,1-.774.086m0-.424a1.237,1.237,0,0,0,.646-.168,1.45,1.45,0,0,0,.469-.465,2.246,2.246,0,0,0,.285-.7,3.844,3.844,0,0,0,.1-.889,3.632,3.632,0,0,0-.1-.871,2.071,2.071,0,0,0-.285-.679,1.369,1.369,0,0,0-.469-.444,1.406,1.406,0,0,0-1.3,0,1.319,1.319,0,0,0-.47.444,2.071,2.071,0,0,0-.285.679,3.636,3.636,0,0,0-.1.871,3.847,3.847,0,0,0,.1.889,2.246,2.246,0,0,0,.285.7,1.4,1.4,0,0,0,.47.465,1.24,1.24,0,0,0,.651.168" transform="translate(7.026 33.078)" fill="#474645"/>
    <path id="パス_20" data-name="パス 20" d="M34.9,134.3h.784l2.854,3.187V134.3h.77v5.086H38.78l-3.1-3.515V139.3H34.9Z" transform="translate(8.601 33.099)" fill="#474645"/>
    <path id="パス_21" data-name="パス 21" d="M40.449,134.3h1.817a4.859,4.859,0,0,1,1.286.162,3.078,3.078,0,0,1,1.011.48,2.213,2.213,0,0,1,.659.772,2.246,2.246,0,0,1,.236,1.045,2.52,2.52,0,0,1-.2.993,2.334,2.334,0,0,1-.583.811,2.811,2.811,0,0,1-.939.545,3.787,3.787,0,0,1-1.28.2H40.449Zm1.225,4.5h.654a1.778,1.778,0,0,0,.682-.133,1.616,1.616,0,0,0,.56-.393,1.9,1.9,0,0,0,.378-.636,2.467,2.467,0,0,0,.14-.864,2.274,2.274,0,0,0-.131-.782,1.91,1.91,0,0,0-.364-.623,1.679,1.679,0,0,0-.556-.411,1.715,1.715,0,0,0-.708-.148h-.654Z" transform="translate(9.969 33.099)" fill="#474645"/>
    <path id="パス_22" data-name="パス 22" d="M49.99,134.3v.426H47.477v1.653h2.087v.431H47.477v1.986H49.99v.512H46.252V134.3Z" transform="translate(11.399 33.099)" fill="#474645"/>
    <path id="パス_23" data-name="パス 23" d="M51.091,134.295h1.882a3.212,3.212,0,0,1,.851.1,1.886,1.886,0,0,1,.608.285,1.2,1.2,0,0,1,.364.434,1.221,1.221,0,0,1,.121.545,1.006,1.006,0,0,1-.082.4,1.249,1.249,0,0,1-.234.354,1.7,1.7,0,0,1-.361.284,2.221,2.221,0,0,1-.469.2l1.782,2.4H54.221l-1.685-2.266h-.217V139.3H51.091Zm1.228,2.308h.267A1.363,1.363,0,0,0,53,136.54a.987.987,0,0,0,.332-.179.848.848,0,0,0,.222-.29.864.864,0,0,0,.081-.384,1.054,1.054,0,0,0-.061-.363.891.891,0,0,0-.171-.288.747.747,0,0,0-.259-.187.807.807,0,0,0-.328-.069h-.5Z" transform="translate(12.592 33.099)" fill="#474645"/>
    <path id="パス_24" data-name="パス 24" d="M56.223,134.3H57.45v4.5h2.556v.512H56.223Z" transform="translate(13.857 33.099)" fill="#474645"/>
    <path id="パス_25" data-name="パス 25" d="M63.4,134.209l2.345,5.116H64.491l-.626-1.366H61.919l-.656,1.366h-.838l2.444-5.116Zm-1.251,3.279h1.508l-.742-1.617Z" transform="translate(14.893 33.078)" fill="#474645"/>
    <path id="パス_26" data-name="パス 26" d="M66.213,134.3H67l2.854,3.187V134.3h.77v5.086h-.53l-3.1-3.515V139.3h-.778Z" transform="translate(16.319 33.099)" fill="#474645"/>
    <path id="パス_27" data-name="パス 27" d="M71.762,134.3h1.817a4.861,4.861,0,0,1,1.288.162,3.078,3.078,0,0,1,1.011.48,2.17,2.17,0,0,1,.895,1.816,2.52,2.52,0,0,1-.2.993,2.35,2.35,0,0,1-.583.811,2.83,2.83,0,0,1-.94.545,3.777,3.777,0,0,1-1.278.2H71.762Zm1.228,4.5h.653a1.782,1.782,0,0,0,.682-.133,1.639,1.639,0,0,0,.56-.393,1.9,1.9,0,0,0,.378-.636,2.527,2.527,0,0,0,.138-.864,2.274,2.274,0,0,0-.128-.782,2,2,0,0,0-.364-.623,1.664,1.664,0,0,0-.558-.411,1.7,1.7,0,0,0-.707-.148H72.99Z" transform="translate(17.687 33.099)" fill="#474645"/>
    <path id="パス_28" data-name="パス 28" d="M81.3,134.307l1.273,3.238,1.278-3.294,1.288,3.274,1.236-3.218h.82l-1.969,5.086h-.557l-1.025-2.615-1.01,2.615h-.561l-2.006-5.086Z" transform="translate(19.733 33.088)" fill="#474645"/>
    <path id="パス_29" data-name="パス 29" d="M91.037,134.3v.426H88.524v1.653h2.087v.431H88.524v1.986h2.513v.512H87.3V134.3Z" transform="translate(21.516 33.099)" fill="#474645"/>
    <path id="パス_30" data-name="パス 30" d="M92.138,134.3h1.819a4.868,4.868,0,0,1,1.288.162,3.078,3.078,0,0,1,1.011.48,2.17,2.17,0,0,1,.895,1.816,2.52,2.52,0,0,1-.2.993,2.334,2.334,0,0,1-.583.811,2.836,2.836,0,0,1-.941.545,3.764,3.764,0,0,1-1.276.2H92.138Zm1.228,4.5h.653a1.789,1.789,0,0,0,.683-.133,1.651,1.651,0,0,0,.56-.393,1.917,1.917,0,0,0,.378-.636,2.526,2.526,0,0,0,.138-.864,2.245,2.245,0,0,0-.13-.782,1.975,1.975,0,0,0-.363-.623,1.672,1.672,0,0,0-1.266-.56h-.653Z" transform="translate(22.709 33.099)" fill="#474645"/>
    <path id="パス_31" data-name="パス 31" d="M97.943,134.3H99.76a4.884,4.884,0,0,1,1.289.162,3.071,3.071,0,0,1,1.01.48,2.209,2.209,0,0,1,.658.772,2.232,2.232,0,0,1,.237,1.045,2.52,2.52,0,0,1-.2.993,2.347,2.347,0,0,1-.582.811,2.83,2.83,0,0,1-.942.545,3.759,3.759,0,0,1-1.276.2H97.943Zm1.227,4.5h.654a1.782,1.782,0,0,0,.682-.133,1.623,1.623,0,0,0,.558-.393,1.9,1.9,0,0,0,.379-.636,2.5,2.5,0,0,0,.138-.864,2.3,2.3,0,0,0-.128-.782,1.958,1.958,0,0,0-.365-.623,1.659,1.659,0,0,0-.557-.411,1.7,1.7,0,0,0-.707-.148H99.17Z" transform="translate(24.139 33.099)" fill="#474645"/>
    <rect id="長方形_1" data-name="長方形 1" width="1.228" height="5.008" transform="translate(129.367 167.395)" fill="#474645"/>
    <path id="パス_32" data-name="パス 32" d="M106.825,134.3h.784l2.854,3.187V134.3h.77v5.086h-.53l-3.1-3.515V139.3h-.777Z" transform="translate(26.328 33.099)" fill="#474645"/>
    <path id="パス_33" data-name="パス 33" d="M115.41,136.883h2.083v1.933c-.162.082-.323.161-.484.233a3.3,3.3,0,0,1-.512.188,4,4,0,0,1-.595.123,5.348,5.348,0,0,1-.728.044,3.8,3.8,0,0,1-1.193-.18,2.874,2.874,0,0,1-.94-.514,2.3,2.3,0,0,1-.838-1.829,2.815,2.815,0,0,1,.1-.753,2.577,2.577,0,0,1,.284-.652,2.394,2.394,0,0,1,.451-.538,2.693,2.693,0,0,1,.595-.4,3.155,3.155,0,0,1,.715-.253,3.683,3.683,0,0,1,.82-.09,2.6,2.6,0,0,1,.734.1,3.015,3.015,0,0,1,.653.272,2.845,2.845,0,0,1,.54.39,2.724,2.724,0,0,1,.4.45l-.507.465a4.348,4.348,0,0,0-.333-.419,2.24,2.24,0,0,0-.369-.333,1.691,1.691,0,0,0-.418-.224,1.413,1.413,0,0,0-.481-.082,1.836,1.836,0,0,0-.725.141,1.609,1.609,0,0,0-.576.4,1.888,1.888,0,0,0-.38.648,2.53,2.53,0,0,0-.141.871,2.339,2.339,0,0,0,.15.861,1.871,1.871,0,0,0,.4.631,1.7,1.7,0,0,0,.6.385,2.023,2.023,0,0,0,.732.131,1.491,1.491,0,0,0,.44-.061,1.317,1.317,0,0,0,.381-.184v-1.331h-.853Z" transform="translate(27.654 33.074)" fill="#474645"/>
    <g id="グループ_2316" data-name="グループ 2316">
      <path id="パス_34" data-name="パス 34" d="M4.093,131.365H0v-30.04l2.92-1.169H4.093Z" transform="translate(0 24.685)" fill="#e0e0e0"/>
      <path id="パス_35" data-name="パス 35" d="M14.482,108.635v14.682a3.076,3.076,0,0,0,.355,1.451,3.72,3.72,0,0,0,.971,1.184,4.909,4.909,0,0,0,1.44.8,5.168,5.168,0,0,0,1.769.3,3.754,3.754,0,0,0,1.306-.261,6.186,6.186,0,0,0,1.356-.722A8.484,8.484,0,0,0,22.926,125a6.069,6.069,0,0,0,.971-1.3V108.635h4.095v20.64H23.9v-3.862a8.366,8.366,0,0,1-1.355,1.673,10.451,10.451,0,0,1-1.767,1.372,9.429,9.429,0,0,1-1.959.924,6.078,6.078,0,0,1-1.913.335,6.416,6.416,0,0,1-2.537-.509,6.718,6.718,0,0,1-2.075-1.374,6.444,6.444,0,0,1-1.395-2.028,6.176,6.176,0,0,1-.509-2.49V108.635Z" transform="translate(2.561 26.774)" fill="#e0e0e0"/>
      <path id="パス_36" data-name="パス 36" d="M46.2,117.312a14.185,14.185,0,0,0,.845,5.054,11.074,11.074,0,0,0,2.325,3.776,9.889,9.889,0,0,0,3.509,2.363,11.657,11.657,0,0,0,4.391.816,6.941,6.941,0,0,0,2.71-.548,10.634,10.634,0,0,0,2.431-1.418,12.079,12.079,0,0,0,2.009-1.979,13.171,13.171,0,0,0,1.46-2.242l1.883,1.213a17.958,17.958,0,0,1-1.949,2.6,12.737,12.737,0,0,1-2.6,2.2,13.533,13.533,0,0,1-3.346,1.529,14.1,14.1,0,0,1-4.171.577,16.607,16.607,0,0,1-4.169-.509,15.409,15.409,0,0,1-3.6-1.425,13.26,13.26,0,0,1-2.94-2.2,13.53,13.53,0,0,1-2.191-2.833,13.9,13.9,0,0,1-1.855-6.968,13.83,13.83,0,0,1,.489-3.662,14.066,14.066,0,0,1,1.4-3.344,13.782,13.782,0,0,1,2.239-2.873,13.942,13.942,0,0,1,2.989-2.24,15.426,15.426,0,0,1,3.641-1.451,16.66,16.66,0,0,1,4.229-.519,12.824,12.824,0,0,1,3.93.577,14.07,14.07,0,0,1,3.286,1.527,13.343,13.343,0,0,1,2.643,2.2,16.707,16.707,0,0,1,1.979,2.593l-1.941,1.308a13.5,13.5,0,0,0-3.766-4.766,7.876,7.876,0,0,0-4.768-1.518,11.106,11.106,0,0,0-4.343.846,10.275,10.275,0,0,0-3.516,2.422,11.417,11.417,0,0,0-2.366,3.825,14.046,14.046,0,0,0-.864,5.073" transform="translate(10.09 25.44)" fill="#e0e0e0"/>
      <path id="パス_37" data-name="パス 37" d="M71.195,103.717h9.264a15.532,15.532,0,0,1,4.238.517,8.971,8.971,0,0,1,3.025,1.452,6.148,6.148,0,0,1,1.827,2.209,6.367,6.367,0,0,1,.615,2.8,5.8,5.8,0,0,1-.471,2.335,6.408,6.408,0,0,1-1.336,1.962,8.471,8.471,0,0,1-2.075,1.517,11.177,11.177,0,0,1-2.67.991l9.742,12.991H88.146l-9.3-12.587H75.691v12.587h-4.5Zm4.5,12.837h2.6a9.2,9.2,0,0,0,2.8-.4,6.873,6.873,0,0,0,2.219-1.144,5.145,5.145,0,0,0,2-4.161,5.629,5.629,0,0,0-.424-2.2,5.079,5.079,0,0,0-1.172-1.728,5.378,5.378,0,0,0-1.789-1.126,6.216,6.216,0,0,0-2.266-.4H75.691Z" transform="translate(17.547 25.563)" fill="#e0e0e0"/>
      <path id="パス_38" data-name="パス 38" d="M115.043,103.717v1.729H100.935v9.57h9.438v1.73h-9.438v12.012h14.107v1.729h-18.6v-26.77Z" transform="translate(23.77 25.563)" fill="#e0e0e0"/>
      <path id="パス_39" data-name="パス 39" d="M129.6,103.223l12.607,27.386h-4.573l-4.095-8.935H122.071l-4.228,8.935h-2.249l12.895-27.386Zm-6.745,16.72h9.858l-4.862-10.59Z" transform="translate(28.49 25.44)" fill="#e0e0e0"/>
    </g>
    <g id="グループ_2315" data-name="グループ 2315">
      <path id="パス_40" data-name="パス 40" d="M22.834,134.307l1.273,3.238,1.276-3.294,1.288,3.274,1.238-3.218h.82l-1.971,5.086H26.2l-1.027-2.615-1.01,2.615h-.558L21.6,134.307Z" transform="translate(5.324 33.088)" fill="#e0e0e0"/>
      <path id="パス_41" data-name="パス 41" d="M31.371,139.437a3.266,3.266,0,0,1-.774-.09,2.848,2.848,0,0,1-.686-.254,2.736,2.736,0,0,1-.577-.4,2.414,2.414,0,0,1-.442-.534,2.459,2.459,0,0,1-.283-.642,2.548,2.548,0,0,1-.1-.73,2.473,2.473,0,0,1,.1-.72,2.422,2.422,0,0,1,.725-1.139,2.654,2.654,0,0,1,.577-.39,3.056,3.056,0,0,1,.686-.243,3.525,3.525,0,0,1,1.548,0,3,3,0,0,1,.686.246,2.817,2.817,0,0,1,.575.388,2.4,2.4,0,0,1,.445.516,2.464,2.464,0,0,1,.283.621,2.525,2.525,0,0,1,.1.715,2.751,2.751,0,0,1-.1.748,2.585,2.585,0,0,1-.283.647,2.439,2.439,0,0,1-.445.528,2.662,2.662,0,0,1-.575.4,2.744,2.744,0,0,1-.686.251,3.348,3.348,0,0,1-.774.086m0-.424a1.237,1.237,0,0,0,.646-.168,1.45,1.45,0,0,0,.469-.465,2.246,2.246,0,0,0,.285-.7,3.844,3.844,0,0,0,.1-.889,3.632,3.632,0,0,0-.1-.871,2.071,2.071,0,0,0-.285-.679,1.369,1.369,0,0,0-.469-.444,1.406,1.406,0,0,0-1.3,0,1.319,1.319,0,0,0-.47.444,2.071,2.071,0,0,0-.285.679,3.636,3.636,0,0,0-.1.871,3.847,3.847,0,0,0,.1.889,2.246,2.246,0,0,0,.285.7,1.4,1.4,0,0,0,.47.465,1.24,1.24,0,0,0,.651.168" transform="translate(7.025 33.077)" fill="#e0e0e0"/>
      <path id="パス_42" data-name="パス 42" d="M34.9,134.3h.784l2.854,3.187V134.3h.77v5.086H38.78l-3.1-3.515V139.3H34.9Z" transform="translate(8.602 33.099)" fill="#e0e0e0"/>
      <path id="パス_43" data-name="パス 43" d="M40.449,134.3h1.817a4.859,4.859,0,0,1,1.286.162,3.078,3.078,0,0,1,1.011.48,2.213,2.213,0,0,1,.659.772,2.246,2.246,0,0,1,.236,1.045,2.52,2.52,0,0,1-.2.993,2.334,2.334,0,0,1-.583.811,2.811,2.811,0,0,1-.939.545,3.787,3.787,0,0,1-1.28.2H40.449Zm1.225,4.5h.654a1.778,1.778,0,0,0,.682-.133,1.616,1.616,0,0,0,.56-.393,1.9,1.9,0,0,0,.378-.636,2.467,2.467,0,0,0,.14-.864,2.274,2.274,0,0,0-.131-.782,1.91,1.91,0,0,0-.364-.623,1.679,1.679,0,0,0-.556-.411,1.715,1.715,0,0,0-.708-.148h-.654Z" transform="translate(9.969 33.099)" fill="#e0e0e0"/>
      <path id="パス_44" data-name="パス 44" d="M49.99,134.3v.426H47.477v1.653h2.087v.431H47.477v1.986H49.99v.512H46.252V134.3Z" transform="translate(11.4 33.099)" fill="#e0e0e0"/>
      <path id="パス_45" data-name="パス 45" d="M51.091,134.295h1.882a3.212,3.212,0,0,1,.851.1,1.886,1.886,0,0,1,.608.285,1.2,1.2,0,0,1,.364.434,1.221,1.221,0,0,1,.121.545,1.006,1.006,0,0,1-.082.4,1.249,1.249,0,0,1-.234.354,1.7,1.7,0,0,1-.361.284,2.221,2.221,0,0,1-.469.2l1.782,2.4H54.221l-1.685-2.266h-.217V139.3H51.091Zm1.228,2.308h.267A1.363,1.363,0,0,0,53,136.54a.987.987,0,0,0,.332-.179.848.848,0,0,0,.222-.29.864.864,0,0,0,.081-.384,1.054,1.054,0,0,0-.061-.363.891.891,0,0,0-.171-.288.747.747,0,0,0-.259-.187.807.807,0,0,0-.328-.069h-.5Z" transform="translate(12.592 33.099)" fill="#e0e0e0"/>
      <path id="パス_46" data-name="パス 46" d="M56.223,134.3H57.45v4.5h2.556v.512H56.223Z" transform="translate(13.857 33.099)" fill="#e0e0e0"/>
      <path id="パス_47" data-name="パス 47" d="M63.4,134.209l2.345,5.116H64.491l-.626-1.366H61.919l-.656,1.366h-.838l2.444-5.116Zm-1.251,3.279h1.508l-.742-1.617Z" transform="translate(14.893 33.077)" fill="#e0e0e0"/>
      <path id="パス_48" data-name="パス 48" d="M66.213,134.3H67l2.854,3.187V134.3h.77v5.086h-.53l-3.1-3.515V139.3h-.778Z" transform="translate(16.318 33.099)" fill="#e0e0e0"/>
      <path id="パス_49" data-name="パス 49" d="M71.762,134.3h1.817a4.861,4.861,0,0,1,1.288.162,3.078,3.078,0,0,1,1.011.48,2.17,2.17,0,0,1,.895,1.816,2.52,2.52,0,0,1-.2.993,2.35,2.35,0,0,1-.583.811,2.83,2.83,0,0,1-.94.545,3.777,3.777,0,0,1-1.278.2H71.762Zm1.228,4.5h.653a1.782,1.782,0,0,0,.682-.133,1.639,1.639,0,0,0,.56-.393,1.9,1.9,0,0,0,.378-.636,2.527,2.527,0,0,0,.138-.864,2.274,2.274,0,0,0-.128-.782,2,2,0,0,0-.364-.623,1.664,1.664,0,0,0-.558-.411,1.7,1.7,0,0,0-.707-.148H72.99Z" transform="translate(17.688 33.099)" fill="#e0e0e0"/>
      <path id="パス_50" data-name="パス 50" d="M81.3,134.307l1.273,3.238,1.278-3.294,1.288,3.274,1.236-3.218h.82l-1.969,5.086h-.557l-1.025-2.615-1.01,2.615h-.561l-2.006-5.086Z" transform="translate(19.732 33.088)" fill="#e0e0e0"/>
      <path id="パス_51" data-name="パス 51" d="M91.037,134.3v.426H88.524v1.653h2.087v.431H88.524v1.986h2.513v.512H87.3V134.3Z" transform="translate(21.516 33.099)" fill="#e0e0e0"/>
      <path id="パス_52" data-name="パス 52" d="M92.138,134.3h1.819a4.868,4.868,0,0,1,1.288.162,3.078,3.078,0,0,1,1.011.48,2.17,2.17,0,0,1,.895,1.816,2.52,2.52,0,0,1-.2.993,2.334,2.334,0,0,1-.583.811,2.836,2.836,0,0,1-.941.545,3.764,3.764,0,0,1-1.276.2H92.138Zm1.228,4.5h.653a1.789,1.789,0,0,0,.683-.133,1.651,1.651,0,0,0,.56-.393,1.917,1.917,0,0,0,.378-.636,2.526,2.526,0,0,0,.138-.864,2.245,2.245,0,0,0-.13-.782,1.975,1.975,0,0,0-.363-.623,1.672,1.672,0,0,0-1.266-.56h-.653Z" transform="translate(22.709 33.099)" fill="#e0e0e0"/>
      <path id="パス_53" data-name="パス 53" d="M97.943,134.3H99.76a4.884,4.884,0,0,1,1.289.162,3.071,3.071,0,0,1,1.01.48,2.209,2.209,0,0,1,.658.772,2.232,2.232,0,0,1,.237,1.045,2.52,2.52,0,0,1-.2.993,2.347,2.347,0,0,1-.582.811,2.83,2.83,0,0,1-.942.545,3.759,3.759,0,0,1-1.276.2H97.943Zm1.227,4.5h.654a1.782,1.782,0,0,0,.682-.133,1.623,1.623,0,0,0,.558-.393,1.9,1.9,0,0,0,.379-.636,2.5,2.5,0,0,0,.138-.864,2.3,2.3,0,0,0-.128-.782,1.958,1.958,0,0,0-.365-.623,1.659,1.659,0,0,0-.557-.411,1.7,1.7,0,0,0-.707-.148H99.17Z" transform="translate(24.139 33.099)" fill="#e0e0e0"/>
      <rect id="長方形_2" data-name="長方形 2" width="1.228" height="5.008" transform="translate(129.367 167.396)" fill="#e0e0e0"/>
      <path id="パス_54" data-name="パス 54" d="M106.825,134.3h.784l2.854,3.187V134.3h.77v5.086h-.53l-3.1-3.515V139.3h-.777Z" transform="translate(26.328 33.099)" fill="#e0e0e0"/>
      <path id="パス_55" data-name="パス 55" d="M115.41,136.883h2.083v1.933c-.162.082-.323.161-.484.233a3.3,3.3,0,0,1-.512.188,4,4,0,0,1-.595.123,5.348,5.348,0,0,1-.728.044,3.8,3.8,0,0,1-1.193-.18,2.874,2.874,0,0,1-.94-.514,2.3,2.3,0,0,1-.838-1.829,2.815,2.815,0,0,1,.1-.753,2.577,2.577,0,0,1,.284-.652,2.394,2.394,0,0,1,.451-.538,2.693,2.693,0,0,1,.595-.4,3.155,3.155,0,0,1,.715-.253,3.683,3.683,0,0,1,.82-.09,2.6,2.6,0,0,1,.734.1,3.015,3.015,0,0,1,.653.272,2.845,2.845,0,0,1,.54.39,2.724,2.724,0,0,1,.4.45l-.507.465a4.348,4.348,0,0,0-.333-.419,2.24,2.24,0,0,0-.369-.333,1.691,1.691,0,0,0-.418-.224,1.413,1.413,0,0,0-.481-.082,1.836,1.836,0,0,0-.725.141,1.609,1.609,0,0,0-.576.4,1.888,1.888,0,0,0-.38.648,2.53,2.53,0,0,0-.141.871,2.339,2.339,0,0,0,.15.861,1.871,1.871,0,0,0,.4.631,1.7,1.7,0,0,0,.6.385,2.023,2.023,0,0,0,.732.131,1.491,1.491,0,0,0,.44-.061,1.317,1.317,0,0,0,.381-.184v-1.331h-.853Z" transform="translate(27.654 33.074)" fill="#e0e0e0"/>
    </g>
  </g>
</svg>
