<svg xmlns="http://www.w3.org/2000/svg" xmlns:xlink="http://www.w3.org/1999/xlink" width="145.342" height="33.951" viewBox="0 0 145.342 33.951">
  <defs>
    <clipPath id="clip-path">
      <rect id="長方形_3" data-name="長方形 3" width="145.342" height="33.951" transform="translate(-11.194 -3.047)" fill="none"/>
    </clipPath>
  </defs>
  <g id="art_logo_long" transform="translate(-109.232 -9.793)">
    <g id="グループ_2314" data-name="グループ 2314" transform="translate(179.303 -112)">
      <g id="グループ_3" data-name="グループ 3" transform="translate(-58.876 124.84)" clip-path="url(#clip-path)">
        <g id="グループ_2317" data-name="グループ 2317" transform="translate(-11.195 -3.045)">
          <path id="パス_1" data-name="パス 1" d="M67.386,4.052a2.64,2.64,0,0,0-2.136,0c-.335.2-.439.689-.082.826.741.284.41-.88,1.15-.877s.409,1.161,1.15.877c.357-.137.253-.627-.083-.826" transform="translate(-48.508 -2.265)" fill="#c7a06a"/>
          <path id="パス_2" data-name="パス 2" d="M63.021,1.629a.226.226,0,0,0,.09.019h.011a.227.227,0,0,0,.086-.436c-.3-.224-.35-.343-.353-.394,0-.009,0-.03.04-.069.089-.081.259.021.468.119a2.261,2.261,0,0,0,.973.277,2.262,2.262,0,0,0,.973-.277c.209-.1.381-.2.468-.119.042.039.041.06.04.069,0,.054-.058.18-.389.421a.227.227,0,0,0,.223.391c.5-.214,1.63-.776,1.392-1.372-.126-.319-.58-.3-1.284-.17a7.324,7.324,0,0,1-1.32.158h-.206A7.323,7.323,0,0,1,62.913.088c-.7-.13-1.159-.149-1.285.17-.238.6.894,1.158,1.392,1.372" transform="translate(-46.525 0.001)" fill="#c7a06a"/>
          <path id="パス_3" data-name="パス 3" d="M30.022,30.082c.226-.7,1.231-.031,1.19-.823-.02-.381-.519-.434-.811-.177a2.64,2.64,0,0,0-.66,2.031c.085.381.52.631.76.334.5-.617-.71-.663-.479-1.365" transform="translate(-27.649 -17.124)" fill="#c7a06a"/>
          <path id="パス_4" data-name="パス 4" d="M27.152,26.323a.226.226,0,0,0,.18-.243c-.05-.539-.235-1.79-.875-1.748-.342.022-.464.46-.558,1.169a7.3,7.3,0,0,1-.257,1.3l-.035.1L25.579,27a7.331,7.331,0,0,1-.558,1.205c-.341.63-.5,1.056-.235,1.274.492.411,1.377-.492,1.735-.9a.223.223,0,0,0,.046-.08l0-.011a.227.227,0,0,0-.388-.217c-.3.215-.434.227-.484.214-.009,0-.029-.008-.053-.06-.05-.109.1-.24.258-.408a1.849,1.849,0,0,0,.6-1.851c-.029-.228-.073-.423.031-.481.05-.028.07-.02.078-.017.05.02.153.111.28.5a.227.227,0,0,0,.261.152" transform="translate(-24.653 -14.405)" fill="#c7a06a"/>
          <path id="パス_5" data-name="パス 5" d="M43.215,72.8c-.369-.1-.573.359-.419.717a2.641,2.641,0,0,0,1.728,1.255c.388.037.761-.3.552-.62-.432-.665-.849.472-1.446.033s.351-1.179-.415-1.385" transform="translate(-35.364 -43.092)" fill="#c7a06a"/>
          <path id="パス_6" data-name="パス 6" d="M41.4,75.816l-.009-.007a.227.227,0,0,0-.326.3c.111.357.082.482.053.527,0,.007-.016.025-.073.032-.12.014-.2-.169-.309-.372a1.85,1.85,0,0,0-1.574-1.143c-.227-.044-.425-.062-.449-.179-.011-.055,0-.072.009-.079.034-.042.153-.112.562-.111a.227.227,0,0,0,.049-.448c-.528-.119-1.775-.33-1.932.292-.084.332.294.583.94.892a7.322,7.322,0,0,1,1.161.647l.088.065.079.056a7.29,7.29,0,0,1,.974.9c.494.519.85.8,1.139.618.543-.341-.043-1.462-.32-1.928a.22.22,0,0,0-.062-.068" transform="translate(-32.194 -43.933)" fill="#c7a06a"/>
          <path id="パス_7" data-name="パス 7" d="M61.447,18.236a.227.227,0,0,0-.25.188,8.444,8.444,0,0,1-4.658,5.8C54.528,21.5,52.214,20.8,50.27,20.949,51.937,19.93,53.4,18,53.431,14.6a8.425,8.425,0,0,1,7.161,1.955.226.226,0,0,0,.334-.305c-.7-.846-3.858-3.529-7.622-3.043-.7-3.73-4.228-5.9-5.249-6.309a.227.227,0,0,0-.187.412,8.427,8.427,0,0,1,4.073,6.206c-3.214,1.072-4.6,3.056-5.054,4.952-.46-1.893-1.844-3.875-5.054-4.944a8.447,8.447,0,0,1,4.074-6.213.227.227,0,0,0-.188-.412c-1.022.41-4.552,2.582-5.25,6.317-3.764-.485-6.915,2.2-7.62,3.043a.226.226,0,0,0,.334.305,8.426,8.426,0,0,1,7.161-1.955c.028,3.374,1.48,5.3,3.134,6.321-1.943-.147-4.257.558-6.267,3.286a8.445,8.445,0,0,1-4.634-5.786.227.227,0,0,0-.45.051c.073,1.1,1.046,5.117,4.371,6.938-1.618,3.427-.043,7.249.543,8.179a.226.226,0,0,0,.393-.223,8.427,8.427,0,0,1,.348-7.4c3.217,1.021,5.5.241,6.984-1.013-.735,1.8-.776,4.21,1.186,6.955a8.451,8.451,0,0,1-6.931,2.615.227.227,0,0,0-.09.444c1.065.269,5.182.585,7.941-2.006,2.759,2.606,6.889,2.29,7.957,2.021a.227.227,0,0,0-.09-.444A8.445,8.445,0,0,1,47.8,31.919c1.978-2.757,1.933-5.179,1.192-6.983,1.481,1.261,3.761,2.052,6.981,1.037a8.426,8.426,0,0,1,.355,7.419.227.227,0,0,0,.394.224c.587-.932,2.164-4.761.538-8.191,3.341-1.815,4.318-5.849,4.392-6.949a.228.228,0,0,0-.2-.24m-9.453-3.222c-.154,4.529-2.8,6.059-4.582,6.306-.315-1.77.322-4.76,4.582-6.306m-10.215.008c4.254,1.544,4.9,4.527,4.583,6.3-1.78-.246-4.426-1.773-4.583-6.3m-3.167,9.712c2.793-3.59,5.843-3.266,7.428-2.415-.782,1.621-3.058,3.677-7.428,2.415m8.262,6.009c-2.547-3.767-1.289-6.567.013-7.808,1.3,1.249,2.538,4.047-.013,7.808m.864-8.421c1.59-.842,4.618-1.147,7.4,2.412-4.343,1.243-6.611-.8-7.4-2.412" transform="translate(-29.077 -4.077)" fill="#c7a06a"/>
          <path id="パス_8" data-name="パス 8" d="M104.042,29.063c-.292-.258-.791-.205-.811.177-.041.793.964.118,1.19.823s-.978.748-.479,1.365c.241.3.675.047.76-.334a2.635,2.635,0,0,0-.66-2.031" transform="translate(-71.174 -17.112)" fill="#c7a06a"/>
          <path id="パス_9" data-name="パス 9" d="M107.709,28.187a7.313,7.313,0,0,1-.557-1.205l-.029-.092-.035-.1a7.341,7.341,0,0,1-.257-1.3c-.094-.71-.216-1.147-.558-1.17-.64-.042-.824,1.208-.874,1.748a.227.227,0,0,0,.441.091c.126-.389.23-.481.28-.5.008,0,.028-.011.078.016.1.058.06.253.031.482a1.848,1.848,0,0,0,.6,1.851c.157.168.308.3.257.408-.024.052-.045.057-.053.059-.051.013-.18,0-.484-.214a.227.227,0,0,0-.388.217l0,.011a.223.223,0,0,0,.045.08c.357.407,1.243,1.31,1.735.9.264-.218.106-.645-.236-1.274" transform="translate(-72.457 -14.393)" fill="#c7a06a"/>
          <path id="パス_10" data-name="パス 10" d="M89.48,74.22c-.6.437-1.014-.7-1.447-.033-.208.321.164.656.553.62a2.639,2.639,0,0,0,1.728-1.256c.155-.358-.049-.815-.419-.716-.767.205.185.953-.415,1.385" transform="translate(-62.142 -43.114)" fill="#c7a06a"/>
          <path id="パス_11" data-name="パス 11" d="M90.551,74.372a.227.227,0,0,0,.049.448c.409,0,.528.07.562.111.006.007.019.024.009.079-.023.117-.222.135-.448.179a1.849,1.849,0,0,0-1.575,1.144c-.111.2-.189.385-.308.371-.057-.007-.068-.025-.073-.033-.028-.044-.057-.17.053-.527a.227.227,0,0,0-.326-.3l-.009.007a.232.232,0,0,0-.062.068c-.276.466-.862,1.587-.319,1.928.289.184.645-.1,1.139-.618a7.294,7.294,0,0,1,.974-.9l.079-.056.088-.065a7.3,7.3,0,0,1,1.161-.648c.646-.308,1.024-.56.94-.892-.157-.622-1.4-.411-1.932-.292" transform="translate(-62.087 -43.953)" fill="#c7a06a"/>
        </g>
        <g id="グループ_2389" data-name="グループ 2389" transform="translate(38.054 1.419)">
          <path id="パス_12" data-name="パス 12" d="M2.148,116.536H0V100.77l1.533-.614h.616Z" transform="translate(-0.001 -100.156)" fill="#474645"/>
          <path id="パス_13" data-name="パス 13" d="M12.536,108.635v7.706a1.614,1.614,0,0,0,.186.761,1.952,1.952,0,0,0,.51.621,2.577,2.577,0,0,0,.756.417,2.712,2.712,0,0,0,.928.158,1.97,1.97,0,0,0,.686-.137,3.246,3.246,0,0,0,.712-.379,4.453,4.453,0,0,0,.655-.559,3.185,3.185,0,0,0,.51-.681v-7.908h2.149v10.833H17.478v-2.027a4.391,4.391,0,0,1-.711.878,5.485,5.485,0,0,1-.928.72,4.948,4.948,0,0,1-1.028.485,3.19,3.19,0,0,1-1,.176,3.367,3.367,0,0,1-1.331-.267,3.526,3.526,0,0,1-1.089-.721,3.382,3.382,0,0,1-.732-1.064,3.242,3.242,0,0,1-.267-1.307v-7.706Z" transform="translate(-3.592 -103.088)" fill="#474645"/>
          <path id="パス_14" data-name="パス 14" d="M43.7,110.617a7.445,7.445,0,0,0,.444,2.653,5.812,5.812,0,0,0,1.22,1.982,5.19,5.19,0,0,0,1.842,1.24,6.119,6.119,0,0,0,2.3.428,3.643,3.643,0,0,0,1.422-.288,5.582,5.582,0,0,0,1.276-.744,6.339,6.339,0,0,0,1.055-1.039,6.912,6.912,0,0,0,.766-1.177l.988.637a9.426,9.426,0,0,1-1.023,1.362,6.685,6.685,0,0,1-1.367,1.153,7.1,7.1,0,0,1-1.756.8,7.4,7.4,0,0,1-2.189.3,8.716,8.716,0,0,1-2.188-.267,8.087,8.087,0,0,1-1.891-.748,6.959,6.959,0,0,1-1.543-1.154,7.1,7.1,0,0,1-1.15-1.487,7.293,7.293,0,0,1-.973-3.657,7.258,7.258,0,0,1,.256-1.922,7.382,7.382,0,0,1,.737-1.755,7.233,7.233,0,0,1,1.175-1.508,7.318,7.318,0,0,1,1.569-1.176,8.1,8.1,0,0,1,1.911-.761,8.744,8.744,0,0,1,2.22-.272,6.73,6.73,0,0,1,2.063.3,7.385,7.385,0,0,1,1.724.8,7,7,0,0,1,1.387,1.156,8.769,8.769,0,0,1,1.039,1.361L54,107.53a7.085,7.085,0,0,0-1.976-2.5,4.133,4.133,0,0,0-2.5-.8,5.829,5.829,0,0,0-2.279.444,5.392,5.392,0,0,0-1.845,1.271,5.992,5.992,0,0,0-1.242,2.008,7.371,7.371,0,0,0-.453,2.663" transform="translate(-14.157 -101.216)" fill="#474645"/>
          <path id="パス_15" data-name="パス 15" d="M71.195,103.717h4.862a8.152,8.152,0,0,1,2.224.271,4.709,4.709,0,0,1,1.588.762,3.227,3.227,0,0,1,.959,1.159,3.342,3.342,0,0,1,.323,1.468A3.043,3.043,0,0,1,80.9,108.6a3.363,3.363,0,0,1-.7,1.03,4.446,4.446,0,0,1-1.089.8,5.866,5.866,0,0,1-1.4.52l5.113,6.818H80.091l-4.882-6.606H73.555v6.606h-2.36Zm2.36,6.737h1.362a4.828,4.828,0,0,0,1.468-.212,3.607,3.607,0,0,0,1.164-.6,2.7,2.7,0,0,0,1.05-2.184,2.954,2.954,0,0,0-.222-1.155,2.666,2.666,0,0,0-.615-.907,2.822,2.822,0,0,0-.939-.591,3.263,3.263,0,0,0-1.189-.211H73.555Z" transform="translate(-24.62 -101.387)" fill="#474645"/>
          <path id="パス_16" data-name="パス 16" d="M106.2,103.717v.907H98.8v5.023h4.954v.908H98.8v6.3h7.4v.907H96.439v-14.05Z" transform="translate(-33.349 -101.387)" fill="#474645"/>
          <path id="パス_17" data-name="パス 17" d="M122.947,103.223l6.617,14.373h-2.4l-2.149-4.689h-6.021l-2.219,4.689h-1.18l6.768-14.373ZM119.407,112h5.174l-2.552-5.558Z" transform="translate(-39.974 -101.216)" fill="#474645"/>
        </g>
        <g id="グループ_2390" data-name="グループ 2390" transform="translate(52.425 23.688)">
          <path id="パス_18" data-name="パス 18" d="M22.247,134.28l.668,1.7.67-1.729.676,1.719.65-1.689h.43l-1.034,2.669h-.291l-.539-1.372-.53,1.372h-.293L21.6,134.28Z" transform="translate(-21.6 -134.216)" fill="#474645"/>
          <path id="パス_19" data-name="パス 19" d="M30.011,136.953a1.715,1.715,0,0,1-.406-.047,1.5,1.5,0,0,1-.36-.133,1.437,1.437,0,0,1-.3-.209,1.267,1.267,0,0,1-.232-.28,1.29,1.29,0,0,1-.149-.337,1.337,1.337,0,0,1-.053-.383,1.3,1.3,0,0,1,.053-.378,1.271,1.271,0,0,1,.381-.6,1.393,1.393,0,0,1,.3-.2,1.6,1.6,0,0,1,.36-.128,1.85,1.85,0,0,1,.813,0,1.577,1.577,0,0,1,.36.129,1.479,1.479,0,0,1,.3.2,1.261,1.261,0,0,1,.234.271,1.294,1.294,0,0,1,.149.326,1.325,1.325,0,0,1,.052.376,1.444,1.444,0,0,1-.052.393,1.357,1.357,0,0,1-.149.34,1.279,1.279,0,0,1-.234.277,1.4,1.4,0,0,1-.3.208,1.44,1.44,0,0,1-.36.132,1.758,1.758,0,0,1-.406.045m0-.222a.649.649,0,0,0,.339-.088.761.761,0,0,0,.246-.244,1.179,1.179,0,0,0,.15-.369,2.017,2.017,0,0,0,.052-.466,1.906,1.906,0,0,0-.052-.457,1.087,1.087,0,0,0-.15-.357.718.718,0,0,0-.246-.233.738.738,0,0,0-.68,0,.692.692,0,0,0-.247.233,1.087,1.087,0,0,0-.15.357,1.909,1.909,0,0,0-.05.457,2.019,2.019,0,0,0,.05.466,1.179,1.179,0,0,0,.15.369.732.732,0,0,0,.247.244.651.651,0,0,0,.341.088" transform="translate(-23.989 -134.201)" fill="#474645"/>
          <path id="パス_20" data-name="パス 20" d="M34.9,134.3h.411l1.5,1.673V134.3h.4v2.669h-.277l-1.628-1.845v1.8H34.9Z" transform="translate(-26.199 -134.231)" fill="#474645"/>
          <path id="パス_21" data-name="パス 21" d="M40.449,134.3H41.4a2.551,2.551,0,0,1,.675.085,1.616,1.616,0,0,1,.531.252,1.162,1.162,0,0,1,.346.4,1.179,1.179,0,0,1,.124.548,1.323,1.323,0,0,1-.1.521,1.225,1.225,0,0,1-.306.426,1.476,1.476,0,0,1-.493.286,1.987,1.987,0,0,1-.672.1H40.449Zm.643,2.36h.343a.933.933,0,0,0,.358-.07.848.848,0,0,0,.294-.206,1,1,0,0,0,.2-.334,1.3,1.3,0,0,0,.073-.453,1.194,1.194,0,0,0-.069-.41,1,1,0,0,0-.191-.327.881.881,0,0,0-.292-.216.9.9,0,0,0-.372-.078h-.343Z" transform="translate(-28.118 -134.231)" fill="#474645"/>
          <path id="パス_22" data-name="パス 22" d="M48.214,134.3v.224H46.9v.867h1.1v.226H46.9v1.042h1.319v.269H46.252V134.3Z" transform="translate(-30.125 -134.231)" fill="#474645"/>
          <path id="パス_23" data-name="パス 23" d="M51.091,134.295h.988a1.686,1.686,0,0,1,.447.054.99.99,0,0,1,.319.15.631.631,0,0,1,.191.228.641.641,0,0,1,.063.286.528.528,0,0,1-.043.211.655.655,0,0,1-.123.186.894.894,0,0,1-.19.149,1.166,1.166,0,0,1-.246.107l.936,1.259h-.7l-.884-1.189h-.114v1.189h-.644Zm.644,1.212h.14a.716.716,0,0,0,.219-.033.518.518,0,0,0,.174-.094.445.445,0,0,0,.116-.152.453.453,0,0,0,.043-.2.553.553,0,0,0-.032-.19.467.467,0,0,0-.09-.151.392.392,0,0,0-.136-.1.424.424,0,0,0-.172-.036h-.262Z" transform="translate(-31.798 -134.231)" fill="#474645"/>
          <path id="パス_24" data-name="パス 24" d="M56.223,134.3h.644v2.36h1.342v.269H56.223Z" transform="translate(-33.573 -134.231)" fill="#474645"/>
          <path id="パス_25" data-name="パス 25" d="M61.988,134.209l1.231,2.685h-.659l-.328-.717H61.21l-.344.717h-.44l1.283-2.685Zm-.657,1.721h.792l-.389-.848Z" transform="translate(-35.026 -134.201)" fill="#474645"/>
          <path id="パス_26" data-name="パス 26" d="M66.213,134.3h.411l1.5,1.673V134.3h.4v2.669h-.278l-1.628-1.845v1.8h-.408Z" transform="translate(-37.028 -134.231)" fill="#474645"/>
          <path id="パス_27" data-name="パス 27" d="M71.762,134.3h.954a2.552,2.552,0,0,1,.676.085,1.616,1.616,0,0,1,.531.252,1.139,1.139,0,0,1,.47.953,1.323,1.323,0,0,1-.1.521,1.234,1.234,0,0,1-.306.426,1.486,1.486,0,0,1-.493.286,1.982,1.982,0,0,1-.671.1H71.762Zm.644,2.36h.343a.935.935,0,0,0,.358-.07.86.86,0,0,0,.294-.206,1,1,0,0,0,.2-.334,1.326,1.326,0,0,0,.073-.453,1.194,1.194,0,0,0-.067-.41,1.051,1.051,0,0,0-.191-.327.873.873,0,0,0-.293-.216.893.893,0,0,0-.371-.078h-.343Z" transform="translate(-38.947 -134.231)" fill="#474645"/>
          <path id="パス_28" data-name="パス 28" d="M80.711,134.28l.668,1.7.671-1.729.676,1.719.649-1.689h.43l-1.034,2.669h-.292l-.538-1.372-.53,1.372h-.294l-1.053-2.669Z" transform="translate(-41.817 -134.216)" fill="#474645"/>
          <path id="パス_29" data-name="パス 29" d="M89.261,134.3v.224H87.942v.867h1.1v.226h-1.1v1.042h1.319v.269H87.3V134.3Z" transform="translate(-44.32 -134.231)" fill="#474645"/>
          <path id="パス_30" data-name="パス 30" d="M92.138,134.3h.954a2.556,2.556,0,0,1,.676.085,1.616,1.616,0,0,1,.531.252,1.139,1.139,0,0,1,.47.953,1.323,1.323,0,0,1-.1.521,1.225,1.225,0,0,1-.306.426,1.489,1.489,0,0,1-.494.286,1.976,1.976,0,0,1-.67.1H92.138Zm.644,2.36h.343a.939.939,0,0,0,.358-.07.867.867,0,0,0,.294-.206,1.006,1.006,0,0,0,.2-.334,1.326,1.326,0,0,0,.073-.453,1.178,1.178,0,0,0-.068-.41,1.036,1.036,0,0,0-.19-.327.877.877,0,0,0-.665-.294h-.343Z" transform="translate(-45.993 -134.231)" fill="#474645"/>
          <path id="パス_31" data-name="パス 31" d="M97.943,134.3H98.9a2.564,2.564,0,0,1,.676.085,1.613,1.613,0,0,1,.53.252,1.16,1.16,0,0,1,.345.4,1.171,1.171,0,0,1,.124.548,1.323,1.323,0,0,1-.1.521,1.232,1.232,0,0,1-.306.426,1.486,1.486,0,0,1-.495.286,1.973,1.973,0,0,1-.67.1H97.943Zm.644,2.36h.343a.935.935,0,0,0,.358-.07.852.852,0,0,0,.293-.206,1,1,0,0,0,.2-.334,1.31,1.31,0,0,0,.073-.453,1.209,1.209,0,0,0-.067-.41,1.027,1.027,0,0,0-.192-.327.87.87,0,0,0-.292-.216.893.893,0,0,0-.371-.078h-.343Z" transform="translate(-48 -134.231)" fill="#474645"/>
          <rect id="長方形_1" data-name="長方形 1" width="0.644" height="2.629" transform="translate(53.766 0.064)" fill="#474645"/>
          <path id="パス_32" data-name="パス 32" d="M106.825,134.3h.411l1.5,1.673V134.3h.4v2.669h-.278l-1.628-1.845v1.8h-.408Z" transform="translate(-51.072 -134.231)" fill="#474645"/>
          <path id="パス_33" data-name="パス 33" d="M113.887,135.606h1.093v1.015c-.085.043-.169.084-.254.122a1.735,1.735,0,0,1-.269.1,2.1,2.1,0,0,1-.312.065,2.809,2.809,0,0,1-.382.023,1.994,1.994,0,0,1-.626-.094,1.509,1.509,0,0,1-.493-.27,1.207,1.207,0,0,1-.44-.96,1.477,1.477,0,0,1,.052-.4,1.353,1.353,0,0,1,.149-.342,1.257,1.257,0,0,1,.237-.283,1.413,1.413,0,0,1,.312-.211,1.656,1.656,0,0,1,.376-.133,1.932,1.932,0,0,1,.43-.047,1.365,1.365,0,0,1,.385.055,1.583,1.583,0,0,1,.343.143,1.494,1.494,0,0,1,.283.2,1.43,1.43,0,0,1,.209.236l-.266.244a2.281,2.281,0,0,0-.175-.22,1.175,1.175,0,0,0-.194-.175.887.887,0,0,0-.219-.118.742.742,0,0,0-.253-.043.964.964,0,0,0-.381.074.844.844,0,0,0-.3.212.991.991,0,0,0-.2.34,1.328,1.328,0,0,0-.074.457,1.228,1.228,0,0,0,.079.452.982.982,0,0,0,.21.331.9.9,0,0,0,.313.2,1.062,1.062,0,0,0,.384.069.782.782,0,0,0,.231-.032.692.692,0,0,0,.2-.1v-.7h-.447Z" transform="translate(-52.932 -134.196)" fill="#474645"/>
        </g>
      </g>
    </g>
  </g>
</svg>
