<svg xmlns="http://www.w3.org/2000/svg" xmlns:xlink="http://www.w3.org/1999/xlink" width="40" height="41.895" viewBox="0 0 40 41.895">
  <defs>
    <clipPath id="clip-path">
      <rect id="長方形_473" data-name="長方形 473" width="40" height="41.895" transform="translate(-0.715 -1.377)" fill="#fff" stroke="#707070" stroke-width="1"/>
    </clipPath>
  </defs>
  <g id="button_facebook" transform="translate(0.715 1.377)" clip-path="url(#clip-path)">
    <circle id="楕円形_26" data-name="楕円形 26" cx="18" cy="18" r="18" transform="translate(1.285 1.57)" fill="#fff"/>
    <path id="楕円形_26_-_アウトライン" data-name="楕円形 26 - アウトライン" d="M18,1A17,17,0,0,0,5.979,30.021,17,17,0,1,0,30.021,5.979,16.889,16.889,0,0,0,18,1m0-1A18,18,0,1,1,0,18,18,18,0,0,1,18,0Z" transform="translate(1.285 1.57)" fill="#707070"/>
    <g id="FACEBOOKのアイコン素材_2" data-name="FACEBOOKのアイコン素材 2" transform="translate(-0.214 0.321)">
      <path id="パス_897" data-name="パス 897" d="M19.5,0A19.5,19.5,0,1,0,39,19.5,19.5,19.5,0,0,0,19.5,0ZM16.569,31.383V20.554h0v-.012H12.925V16.319h3.644V13.205a6.5,6.5,0,0,1,.606-2.887c.016-.033.035-.063.052-.1.063-.12.127-.239.2-.351.034-.054.072-.1.108-.156.061-.088.121-.177.187-.26.04-.051.085-.1.126-.145.07-.081.14-.162.215-.238.033-.033.07-.063.1-.095.092-.087.185-.173.284-.251l.036-.026A5.648,5.648,0,0,1,22,7.617a28.819,28.819,0,0,1,3.26.17v3.778H23.028c-1.755,0-2.1.835-2.1,2.054v2.687h0v.012h4.18l-.542,4.222H20.932V31.383H16.569Z" fill="#707070"/>
    </g>
  </g>
</svg>
