<svg xmlns="http://www.w3.org/2000/svg" xmlns:xlink="http://www.w3.org/1999/xlink" width="38" height="40" viewBox="0 0 38 40">
  <defs>
    <clipPath id="clip-path">
      <rect id="長方形_483" data-name="長方形 483" width="29.479" height="28.393" transform="translate(-2 -2)" fill="none"/>
    </clipPath>
  </defs>
  <g id="button_line" transform="translate(-0.285 0.428)">
    <g id="グループ_2374" data-name="グループ 2374">
      <g id="グループ_2035" data-name="グループ 2035">
        <rect id="長方形_475" data-name="長方形 475" width="38" height="40" rx="19" transform="translate(0.285 -0.428)" fill="#e0e0e0"/>
      </g>
      <g id="グループ_2373" data-name="グループ 2373" transform="translate(8.546 10.374)">
        <g id="グループ_2356" data-name="グループ 2356" transform="translate(-2 -1.999)" clip-path="url(#clip-path)">
          <path id="パス_1339" data-name="パス 1339" d="M11.564,24.067a1.421,1.421,0,0,1-1.123-.489c-.53-.618-.428-1.483-.217-2.843a.491.491,0,0,0,.005-.154.421.421,0,0,0-.119-.06c-.149-.018-.237-.03-.412-.058-.051-.006-.125-.018-.251-.041h0a13.9,13.9,0,0,1-7.4-3.658A9.767,9.767,0,0,1-1,9.824,9.911,9.911,0,0,1,2.921,2.1a14.606,14.606,0,0,1,9.2-3.1,14.606,14.606,0,0,1,9.2,3.1,9.911,9.911,0,0,1,3.921,7.723,9.411,9.411,0,0,1-1.713,5.355c-1.413,2.345-4.338,4.582-6.547,6.049-1.092.725-2.266,1.429-3.3,1.983C12.077,24.067,11.756,24.067,11.564,24.067Zm-1.658-5.6h.01l.075.012c.181.03.233.036.425.059l.1.013.076.022A2.1,2.1,0,0,1,12.2,21.04c-.025.162-.071.457-.1.74,2.106-1.041,7.838-4.473,9.739-7.657l.037-.058a7.426,7.426,0,0,0,1.374-4.242C23.247,4.959,18.257,1,12.123,1S1,4.959,1,9.824A7.683,7.683,0,0,0,3.451,15.34a11.771,11.771,0,0,0,5.888,3.026v0l.224.043C9.76,18.444,9.858,18.462,9.906,18.47Z" transform="translate(0.616 0.615)" fill="#fff"/>
          <path id="パス_1340" data-name="パス 1340" d="M204.333,355.3a.143.143,0,0,0-.143-.143h-.977a.143.143,0,0,0-.143.143v5.053a.143.143,0,0,0,.143.143h3.374a.143.143,0,0,0,.143-.143v-.852a.143.143,0,0,0-.143-.142h-2.112a.143.143,0,0,1-.143-.143Z" transform="translate(-198.179 -347.066)" fill="#fff"/>
          <rect id="長方形_482" data-name="長方形 482" width="1.262" height="5.339" transform="translate(9.224 8.096)" fill="#fff"/>
          <path id="パス_1341" data-name="パス 1341" d="M518.181,357.391c0,.078,0,.207,0,.285v.241c0,.078-.028.1-.063.042s-.165-.252-.209-.317l-1.6-2.362a.3.3,0,0,0-.222-.118h-.838a.143.143,0,0,0-.143.143v5.053a.143.143,0,0,0,.143.143h.943a.143.143,0,0,0,.143-.143v-2.111c0-.078,0-.207,0-.285v-.295c0-.078.034-.089.077-.023l.092.142.158.238,1.576,2.358a.3.3,0,0,0,.222.118h.812a.143.143,0,0,0,.143-.143V355.3a.143.143,0,0,0-.143-.143h-.95a.143.143,0,0,0-.143.143Z" transform="translate(-503.646 -347.066)" fill="#fff"/>
          <path id="パス_1342" data-name="パス 1342" d="M773.465,359.37a.143.143,0,0,1-.143-.143v-.8a.143.143,0,0,1,.143-.143h1.762a.143.143,0,0,0,.142-.142V357.3a.143.143,0,0,0-.142-.143h-1.762a.143.143,0,0,1-.143-.143v-.579a.143.143,0,0,1,.143-.143h1.883a.143.143,0,0,0,.143-.143V355.3a.143.143,0,0,0-.143-.143H772.2a.143.143,0,0,0-.143.143v5.053a.143.143,0,0,0,.143.143h3.258a.143.143,0,0,0,.143-.143v-.846a.143.143,0,0,0-.143-.143Z" transform="translate(-755.185 -347.066)" fill="#fff"/>
        </g>
      </g>
    </g>
  </g>
</svg>
