<svg xmlns="http://www.w3.org/2000/svg" width="152.535" height="180.991" viewBox="0 0 152.535 180.991">
  <g id="first_woman" transform="translate(-0.5 -0.503)">
    <path id="path" d="M148.885,168.782c2.34,1.165,4.175,2.824,3.488,4.791-.823,2.35-7.331,5.262-22.369,6.2-6.877.43-15.98.924-30.381,1.169s-38.031-.349-49.259-.349-26.714-1.761-40.8-4.7c-12.478-2.6-10.2-8.509-.295-10.274,10.958-1.95,14.947-2.75,20.47-5.58,7.89-4.04,10.965-12.309,19.021-21.977,3.647-4.375,9.715-12.488,16.965-22.01,9.813-12.895,16.057-20.551,22.708-29.636,5.933-8.11,20.561-22.772,20.561-23.368,0-.139-.051-.769-.135-1.7m7.518-45.7c.823.5,1.409.582,1.571.1m.349-2.8c.44.494.779.881.884.518.061-.217.122-.559.224-.951M110.475,62.38a12.185,12.185,0,0,0,3.41-2.834,7.68,7.68,0,0,0,1.7-3.525m10.7-50.251c0-.017,0-.031-.007-.048v0a4.768,4.768,0,0,0-1.6-2.912,13.35,13.35,0,0,0-6.342-1.8,13,13,0,0,0-7.7,2.577c-1.595,1.368-2.939,4.426-2.621,8.344.013.149.031.294.054.437a6.708,6.708,0,0,0,2.11,3.884m-2.11-3.884c-1.842.295-3.667,1.476-2.97,4.71,1.077,4.968,4.507,5.916,6.38,5.357a1.281,1.281,0,0,0,.319-.156m.474-3.166a4.318,4.318,0,0,0,.962-.189,3.329,3.329,0,0,1,.633-.075,2.962,2.962,0,0,1,.427.01.894.894,0,0,0,1.063-.515l.007-.007a3.245,3.245,0,0,1,.609-.589c.075-.058.153-.108.224-.166a2.026,2.026,0,0,0,.176-.163,1.268,1.268,0,0,0,.251-1.06,2.5,2.5,0,0,0-.254-.7c-.054-.112-.115-.22-.18-.325a.528.528,0,0,1-.1-.329.659.659,0,0,1,.081-.189.956.956,0,0,0,.088-.789,1.424,1.424,0,0,0-.335-.45c-.21-.21-.433-.406-.44-.694a1.47,1.47,0,0,0,0-.3.6.6,0,0,0-.186-.247,1.13,1.13,0,0,0-.694-.383c-.115,0-.23.031-.345.017a1.027,1.027,0,0,1-.257-.081,2.164,2.164,0,0,0-1.131-.217,1.14,1.14,0,0,0-.664.328,1.437,1.437,0,0,0-1.165.359,3.6,3.6,0,0,0-.83,1.216,2.141,2.141,0,0,0-.3,1.31,3.389,3.389,0,0,0,.322.759.467.467,0,0,1,.064.2.659.659,0,0,1-.061.237,1.515,1.515,0,0,0-.051.173,1.669,1.669,0,0,0,.369,1.48c.1.118.223.22.318.349s.156.271.24.4c.024.034.047.068.071.1a1.4,1.4,0,0,0,1.087.531h.006m.315-.951a2.516,2.516,0,0,0,1.886-1.161s.007-.01.01-.014a1.816,1.816,0,0,0,.3-.548,1.942,1.942,0,0,0,.051-.627,4.159,4.159,0,0,0-.4-1.882,1.734,1.734,0,0,0-1.561-.962m-.518.6a1.389,1.389,0,0,0-1.057.545.758.758,0,0,0,.217,1.066.9.9,0,0,0-.264,1.09.456.456,0,0,1,.064.17c.013.142-.135.247-.193.379a.458.458,0,0,0,.281.555,1.322,1.322,0,0,0,.681.037c-.071.088.064.2.176.227a2.342,2.342,0,0,0,1.5-.115m.714-.522a.842.842,0,0,0-.118-.3c-.058-.085-.132-.193-.078-.284.027-.051.091-.071.135-.112A.4.4,0,0,0,114.5,16a.753.753,0,0,0-.108-.495.78.78,0,0,0-.654-.186.515.515,0,0,0-.24-.674.772.772,0,0,0-.762.081m.142.759a.384.384,0,0,0-.288.21.741.741,0,0,0-.078.362.446.446,0,0,0,.112.352.521.521,0,0,0,.342.091l.417.01a.494.494,0,0,0,.034.535.5.5,0,0,0,.508.18m-2.74,1.351a1.778,1.778,0,0,0-.2.186,1.115,1.115,0,0,0-.328.782,1.426,1.426,0,0,1,.01.315,1.27,1.27,0,0,1-.152.321.954.954,0,0,0,.433,1.236.669.669,0,0,1,.22.122.807.807,0,0,1,.135.3.841.841,0,0,0,.5.433,2.723,2.723,0,0,0,.42.132,2.893,2.893,0,0,0,.342.075,1.306,1.306,0,0,0,.345.01c.105-.01.207-.044.315-.044a1.432,1.432,0,0,1,.467.1,1.5,1.5,0,0,0,.555.1.679.679,0,0,0,.5-.234c.115-.156.142-.366.291-.484a.851.851,0,0,1,.264-.122,1.531,1.531,0,0,0,.657-.484.54.54,0,0,0,.118-.227.982.982,0,0,0-.006-.281,3.423,3.423,0,0,1,.427-1.31.5.5,0,0,0,.044-.24,1.328,1.328,0,0,1-.041-.152.6.6,0,0,1,.091-.284,1.031,1.031,0,0,0-.149-1,1.365,1.365,0,0,0-.244-.261m-3.925,1.53,0,0a.561.561,0,0,0-.048.125c-.088.217-.4.213-.576.355a.521.521,0,0,0-.142.532,1.149,1.149,0,0,0,.3.488,2.612,2.612,0,0,0,1.653.894,2.065,2.065,0,0,0,1.595-.552,1.068,1.068,0,0,0,.39-.833,1,1,0,0,0-.433-.688,5.084,5.084,0,0,0-1.141-.589m-1.134.941a.615.615,0,0,1-.108.1.119.119,0,0,0-.037.132c.024.041.078.048.118.071.061.041.078.122.105.193a.718.718,0,0,0,.46.413,1.515,1.515,0,0,0,.63.041.4.4,0,0,0,.169-.044.144.144,0,0,0,.071-.149c-.014-.041-.048-.075-.061-.115-.03-.112.122-.21.1-.321a.2.2,0,0,0-.071-.1,1.35,1.35,0,0,0-.8-.321m21.3,50.217a2.01,2.01,0,0,0,.078.4,3.585,3.585,0,0,0,.593,1.009c0,.006.007.01.01.017.085.125.176.257.261.386.261.376.528.752.819,1.094a5.3,5.3,0,0,0,1.5,1.283.686.686,0,0,0,.18.071.607.607,0,0,0,.105.01c.176-.021.288-.2.437-.308.281-.193.667-.068,1.009-.071a1.863,1.863,0,0,0,1.158-.474.157.157,0,0,1,.027-.023,4.688,4.688,0,0,0,.393-.386,4.935,4.935,0,0,0,.457-.6,3.027,3.027,0,0,0,.393-.881c.021-.078.034-.159.048-.24a1.748,1.748,0,0,0-.718-1.713c-.1-.064-.21-.112-.308-.173a.749.749,0,0,1-.207-.179,1.718,1.718,0,0,1-.186-.474,1.564,1.564,0,0,0-.5-.715m0,0a3.448,3.448,0,0,0-1.568-.653c-.1-.017-.2-.031-.295-.044a2.738,2.738,0,0,0-1.283.1,2.653,2.653,0,0,0-.643.352q-.147.1-.294.213c-.159.115-.311.23-.467.345l-.251.19a2.368,2.368,0,0,0-.477.427.994.994,0,0,0-.112.179m0,0a1.265,1.265,0,0,0-.145.471,1.876,1.876,0,0,0-.007.39m.6.088a2.28,2.28,0,0,0-.6-.088m.6.091a2.857,2.857,0,0,0,.667.112,1.235,1.235,0,0,0,.87-.365m2.492-.735a.573.573,0,0,0-.522-.491,1.506,1.506,0,0,0-.748.169,2.284,2.284,0,0,0-.836.566c-.118.142-.213.3-.332.44a.21.21,0,0,1-.051.048m1.375,4.544c-.024-.044-.041-.081-.068-.122A3.158,3.158,0,0,1,137.66,73a1.173,1.173,0,0,1,0-.159c0-.271.044-.545.017-.819a2.5,2.5,0,0,0-.335-.911,4.018,4.018,0,0,1-.6-1.368l0,0m4.043,3.556a13.155,13.155,0,0,0,.24-2.455c0-.132.007-.274.01-.413.007-.376.014-.748.014-1.121M137.66,72.84a4.505,4.505,0,0,0,.924-.207,4.031,4.031,0,0,0,.484-.2,6.843,6.843,0,0,0,1.961-1.592m-.39-.288a1.024,1.024,0,0,0-.738-.376,2.781,2.781,0,0,0-1.483.264l-.125.061a5.707,5.707,0,0,0-.951.609m1.727,1.32a4.4,4.4,0,0,0-.775-1.93m3.738.931c.454.051.854.471,1.324.518a1.131,1.131,0,0,0,.711-.186,2.172,2.172,0,0,0,.373-.264l.2-.169a1.035,1.035,0,0,0,1.632-1.121,1.1,1.1,0,0,0,.894-.552.283.283,0,0,1,.017-.03,1.106,1.106,0,0,0-.01-1.019c-.1-.186-.264-.376-.217-.582a1.6,1.6,0,0,1,.145-.295.819.819,0,0,0-.135-.769,3.687,3.687,0,0,1-.447-.681c-.142-.362-.068-.789-.227-1.144a1.893,1.893,0,0,0-.427-.535c-.3-.281-.589-.572-.884-.86m0,0a2.974,2.974,0,0,0-.308.095,3.6,3.6,0,0,0-1.385.9.637.637,0,0,0-.877-.23c-.031.017-.061.034-.091.054a2.162,2.162,0,0,0-.576.7c-.528.894-1.06,1.781-1.588,2.678h0m3.721-2.587a2.043,2.043,0,0,0-.752,1.673,4.169,4.169,0,0,0,.359,2.208,2.133,2.133,0,0,0,1.795,1.2m-.884-5.445a1.075,1.075,0,0,1,.336.65,1.506,1.506,0,0,1-.227.606,1.717,1.717,0,0,0-.125,1.131c.051.217.207.46.423.427m.234,1.805a1.561,1.561,0,0,1,.3-.6c.085-.115.179-.223.267-.332a1.575,1.575,0,0,0,.454-.979.857.857,0,0,0-.288-.616m-1.575.715a4.438,4.438,0,0,0,.623.853,1.8,1.8,0,0,0,.518.359m-7.043-1.8a6.039,6.039,0,0,0,.908-3.464,4.947,4.947,0,0,0-.139-.826,4.51,4.51,0,0,0-.291-.782,3.775,3.775,0,0,0-1.239-1.487,1.773,1.773,0,0,0-1.557-.332c-.176.061-.336.166-.512.227a2.592,2.592,0,0,1-.518.095c-.037,0-.071.01-.108.017a3.26,3.26,0,0,0-.918.291c-.1.048-.193.1-.288.152-.244.132-.485.288-.715.44a2.419,2.419,0,0,0-.681.586,1.653,1.653,0,0,0-.261.694,3.959,3.959,0,0,0-.044.531,8.389,8.389,0,0,0,.159,1.91c.03.173.068.342.112.512a1.19,1.19,0,0,0,.566.87,5.979,5.979,0,0,0,1.47.775,4.725,4.725,0,0,0,2.127.274m-1.381-6.817a4.765,4.765,0,0,0-1.683,2.939,4.66,4.66,0,0,0,.044,1.649,4.756,4.756,0,0,0,.677,1.656,3.653,3.653,0,0,0,.217.3m-.894-1.954c.095.075.193.142.291.213a3.33,3.33,0,0,0,2.35.9,2.675,2.675,0,0,0,1.649-1.263.487.487,0,0,0,.623-.193,1.1,1.1,0,0,0,.112-.694,3.415,3.415,0,0,0-2.1-2.814m-.63,2.188a2.71,2.71,0,0,0,1.175-.132,1.5,1.5,0,0,0,.85-.786.686.686,0,0,0,.048-.149m-3.248-1.08A2.8,2.8,0,0,0,136.234,65c.159.058.379.078.46-.071m-1.49-2.069a1.778,1.778,0,0,0,1.152-.108m8.316,1.08a3.755,3.755,0,0,0-.037-.779,3.4,3.4,0,0,0-.491-1.317.849.849,0,0,0,.006-.979,2,2,0,0,0-1.391-1,1.407,1.407,0,0,1-.5-.136,2.716,2.716,0,0,1-.335-.321.9.9,0,0,0-1.3.166.856.856,0,0,0-.908-.22.793.793,0,0,0-.2.108.851.851,0,0,0-.19,1.1,4.687,4.687,0,0,0-.549,1.67m3.549,2.428a1.773,1.773,0,0,0-.542-.894.6.6,0,0,1-.142-.149.792.792,0,0,1-.061-.183,1.039,1.039,0,0,0-.809-.616,2.6,2.6,0,0,0-1.7.2m1.669,2.631c-.095-.264-.189-.525-.288-.786a.3.3,0,0,0-.136-.193.406.406,0,0,0-.251.034c-.081.027-.189.027-.23-.048m.369,1.957a1.03,1.03,0,0,0-.339-.21m.081-5.3a1.546,1.546,0,0,0,.525.762,1.732,1.732,0,0,0,.657.186,6.315,6.315,0,0,1,1,.251,3.681,3.681,0,0,0,1.774.376m-2.716-2.36a1.1,1.1,0,0,0,.9.671m.911.748a.183.183,0,0,0,.146-.2.513.513,0,0,0-.105-.251c-.166-.257-.328-.515-.494-.772m4.653,9.224a2.206,2.206,0,0,0,1.043.355,1.835,1.835,0,0,0,.433-.01,1.113,1.113,0,0,0,.363-.1,1.168,1.168,0,0,0,.4-.328,1.944,1.944,0,0,0,.23-.319,2.686,2.686,0,0,0-.312-3.132,1.182,1.182,0,0,1-.206-.244,1.109,1.109,0,0,1-.088-.372,5.128,5.128,0,0,0-1.223-2.692,2.121,2.121,0,0,0-.765-.6,1.786,1.786,0,0,0-1.514.166,4.147,4.147,0,0,0-.9.711m2.5-.061a1.1,1.1,0,0,0-.17,1.121,5.548,5.548,0,0,0,.582,1.043.223.223,0,0,1,.041.112.268.268,0,0,1-.058.136,1.919,1.919,0,0,0-.254,1.239A5.578,5.578,0,0,0,147.6,67.9m.484-1.514a12.894,12.894,0,0,0,.945,2.12,2.027,2.027,0,0,0,.342.525,1.018,1.018,0,0,0,.278.193m-8.886,4.094a.234.234,0,0,0,.014.037h0a2.327,2.327,0,0,0,.542.962m2.4,1.246a.99.99,0,0,1,.352-.058,2.888,2.888,0,0,1,.325.112c.4.115.779-.23,1.057-.545l0,0a1.382,1.382,0,0,0,.373-.66.438.438,0,0,0-.071-.321c-.061-.091-.156-.159-.169-.267a.534.534,0,0,1,.091-.285c.166-.393-.139-.819-.427-1.134-.267-.3-.539-.6-.806-.9m-.711,2.631a2.263,2.263,0,0,0,.338-2.367m-2.428.549a3.31,3.31,0,0,0,1.09,1.209m-4.785,2.1a3.263,3.263,0,0,0-.379,1.327,4.641,4.641,0,0,0-.01.813,3.33,3.33,0,0,0,.356,1.283,2.387,2.387,0,0,0,.393.548,2.629,2.629,0,0,0,1.32.728,3.574,3.574,0,0,0,1.273.061,7.234,7.234,0,0,0,2.607-1c.65-.366,1.351-.87,1.409-1.612m.044.264c-.007-.088-.017-.179-.031-.267a3.58,3.58,0,0,0-1.215-2.211,2.963,2.963,0,0,0-.373-.274,6.67,6.67,0,0,0-.745-.379l-1.28-.589v0c-.112-.047-.224-.1-.335-.152a1.735,1.735,0,0,0-.576-.183,1.7,1.7,0,0,0-.941.328,4.321,4.321,0,0,0-1.4,1.121,1.6,1.6,0,0,0-.118.19m3.434.085a11.424,11.424,0,0,0-1.1.579,4.349,4.349,0,0,0-.5.349,3.343,3.343,0,0,0-.359.335,2.463,2.463,0,0,0-.64,1.189m.688-1.144a1.9,1.9,0,0,0,1.273,1.043l.081.03c.356.132.718.247,1.084.349.1.027.224.044.284-.037m-2.242.237a8.009,8.009,0,0,0,.874-.549,8.52,8.52,0,0,0,1.036-.877c.058-.058.119-.122.173-.183a1.465,1.465,0,0,0,.444-1.005m-.569.9a5.459,5.459,0,0,0-1.622-.64q-.152-.036-.3-.061m-.8,3.027a3.638,3.638,0,0,0,4.216-2.157m2.059-2.021a4.029,4.029,0,0,0,.677.484.546.546,0,0,0,.386.1.561.561,0,0,0,.251-.17,2.221,2.221,0,0,0,.525-.633.774.774,0,0,0-.034-.789,2.072,2.072,0,0,0,.9-.681,2.146,2.146,0,0,0,.227-.694,6.251,6.251,0,0,0,.172-1.622,2.448,2.448,0,0,0-.328-1.084m-2.4,4.426a1.892,1.892,0,0,0,.494-.4.864.864,0,0,0,.149-.931.2.2,0,0,1-.034-.105.188.188,0,0,1,.061-.1,1.563,1.563,0,0,0,.45-.725.829.829,0,0,0-.21-.789m-7.02-12.106a2.823,2.823,0,0,0-.887-1.747.981.981,0,0,0-.481-.264,1.783,1.783,0,0,0-.427.014c-.718.044-1.51-.4-2.13-.021-.4.247-.562.769-.962,1.023-.122.078-.261.125-.386.193a1.608,1.608,0,0,0-.748,1.432,3.1,3.1,0,0,0,.227,1.06m2-.8.891-.417a3.4,3.4,0,0,0,.62-.349,3.216,3.216,0,0,0,.816-1.192M135,58.926c.348-.02.7-.054,1.043-.108m.284-.308a3.4,3.4,0,0,0-.041-.742m-2.346,18.76a.428.428,0,0,0,.342.159,2.093,2.093,0,0,0,2.286,2.373.776.776,0,0,0,.122-.013l.105-.021A1.353,1.353,0,0,1,137.05,79c.3.01.66.21.86.044l0,0a.2.2,0,0,0,.054-.054m-1.6-6.183a1.608,1.608,0,0,0-.721.284,1.749,1.749,0,0,0-.732,1.426,1.677,1.677,0,0,0-1.155,1.2.962.962,0,0,0,.173.813m4.009-.908v0a1.573,1.573,0,0,0-.576-.623,2,2,0,0,0-1.635.145m.321,2.337a1.936,1.936,0,0,0,.9.4,1.226,1.226,0,0,0,.6-.115m-1.029-1.683a.427.427,0,0,0-.4.356,2.774,2.774,0,0,0-.024.579,4.149,4.149,0,0,1-.051.464,1.837,1.837,0,0,0-.023.362,2.408,2.408,0,0,0,.531,1.189m-1.368-3.64a2.042,2.042,0,0,0-.044.626c.02.64.041,1.28.061,1.917m-1.581-16.84a6.52,6.52,0,0,0-.406-1.138,3.27,3.27,0,0,0-.66-1.026,4,4,0,0,0-1.622-.83,2.228,2.228,0,0,0-.738-.152,1.92,1.92,0,0,0-.623.149,9.781,9.781,0,0,0-1.551.732,1.086,1.086,0,0,1,.843.362,4.028,4.028,0,0,1,.545.779,10.406,10.406,0,0,0,2.557,2.845m.115,2.441a5.678,5.678,0,0,0-.7-.538,3.229,3.229,0,0,0-1.053-.464,1.544,1.544,0,0,0-1.27.2,4.162,4.162,0,0,1,1.747,1.656c.217.376.369.782.579,1.158l.064.115a3.744,3.744,0,0,0,3.159,2.137m.935,2.2a6.8,6.8,0,0,0-2.889,3.633,6.5,6.5,0,0,0-.342,2.231c.542-.352,1.077-.694,1.615-1.046l0,0m2.854,2.5a4.484,4.484,0,0,0,.576,2.377,5,5,0,0,0,.982,1.04c.467.4.951.782,1.453,1.138a1.519,1.519,0,0,1-.39-.924,5.607,5.607,0,0,1,.163-1.476,3.462,3.462,0,0,0,.047-.857v0M125.5,64.182c-.048-.42-.088-.84-.122-1.256-.308-3.518-.311-6.745-.308-8.079a5.421,5.421,0,0,1,.3-1.625c.721-2.221,2.5-4.751,2.638-6.546a11.447,11.447,0,0,0-2.651-7.995.2.2,0,0,0-.284-.037,3.064,3.064,0,0,1-.359.234,34.765,34.765,0,0,1-7.853,2.807m16.45,134.439c5.709-.816,17.127-2.854,16.26-5.211q-.355-.97-.691-2.13c-3.014-10.359-4.876-31.194-7.152-41.18-3.413-14.974-9.562-43.814-14.175-54.707M115.094,26.71a4.042,4.042,0,0,1,2.665,3.261,29.237,29.237,0,0,1-.332,8.225c-.152.863-.349,2.12-.562,3.488-.474,3.027-1.023,6.62-1.307,7.816-.406,1.686-1.206,4.879.031,6.518v0c.037.048.071.088.108.132a107.337,107.337,0,0,0,8.343,6.911h0c.5.389,1,.765,1.459,1.117a37,37,0,0,0,3.644,2.58,14.645,14.645,0,0,0,2.309.616m-22.766-34.8c-.112,1.206-.755,6.515-1.344,11.32v.007c-.494,4.043-.951,7.727-1.012,8.3-.139,1.25-.484,6.312.833,7.7a11.134,11.134,0,0,0,1.69,1.456c.562.4,1.1.714,1.619,1.026q.188.112.366.223c.18.112.6.363,1.2.715,3.092,1.825,10.775,6.305,12.461,7.467,1.3.894,2.248,1.53,3.057,2.11.447.318.85.623,1.243.941a8.526,8.526,0,0,0,3.86,1.51m-20.1-52.866c.014.545.014,1.111-.01,1.612h0a1.1,1.1,0,0,1-.584.863q-.126.069-.246.145c-1.595,1-2.428,2.906-3.007,5.6a63.65,63.65,0,0,0-1.426,9.132,25.325,25.325,0,0,0,.054,4.064v.007m25.891,26.819L131.889,73.6M125.374,53.22l2.543,5.658,2.418,5.374M97.452,88.336c-9.38,16.721-30.588,64.5-35.071,73.88m61.209-32.721c-.41-17.537-4.487-54.65-4.487-54.65m21.2,88.56c0-20.392-10.6-58.382-10.6-58.382M98.261,114.5c-.674,5.679-5.106,17.243-5.343,20.907-.125,1.974,3.4,6.088,7.436-5.652,4.541-13.2,5.594-34.377,8.015-48.118M25.061,165.372c-7.338,1.222,8.567,7.341,33.442,8.157m35.054,2.628c11.52-5.557,22.63-36.256,23.453-57.86m-4.971-54.978-3.048-.264m15.726-24.177c-1.005-1.871-3.1-5.854-4.121-8.278a9.581,9.581,0,0,1-.615-2.1l0-.014c-.169-1.571-.508-3.942,1.013-5.658.213-.24.65-.159,1.171-.061a5.851,5.851,0,0,0,2.242.21c.738-.118.833-.484.891-.982a8.88,8.88,0,0,1,.447-1.5,5.548,5.548,0,0,1,.633-1.185.436.436,0,0,0,.013-.5,1.169,1.169,0,0,0,.4-.213.966.966,0,0,0,.3-.775,1.908,1.908,0,0,1,.044-1.029c.142-.3.623-.288,1.046-.555a.946.946,0,0,0,.3-1.134c-.146-.207-.688-.931-1.368-2.025a2.491,2.491,0,0,1-.234-2.442,10.388,10.388,0,0,0-.318-4.277,4.566,4.566,0,0,0-.281-.636v0a2.319,2.319,0,0,0-.274-.4,11.754,11.754,0,0,1-6.6,7.2c-.373.163-.742.308-1.107.433a14.684,14.684,0,0,1-2.37.616m8.117,49.5h0l1.337-.139m-9.5-44.092c-.024-.217-.264-.383-.518-.495" transform="translate(0)" fill="none" stroke="#000" stroke-linecap="round" stroke-linejoin="round" stroke-width="1"/>
    <g id="neckless" transform="translate(111.394 14.851)">
      <circle id="楕円形_27" data-name="楕円形 27" cx="0.316" cy="0.316" r="0.316" transform="translate(0.695 9.201)" fill="#fff" stroke="#000" stroke-linecap="round" stroke-linejoin="round" stroke-width="0.5"/>
      <circle id="楕円形_28" data-name="楕円形 28" cx="0.316" cy="0.316" r="0.316" transform="translate(0 9.433)" fill="#fff" stroke="#000" stroke-linecap="round" stroke-linejoin="round" stroke-width="0.5"/>
      <circle id="楕円形_29" data-name="楕円形 29" cx="0.316" cy="0.316" r="0.316" transform="translate(1.477 9.243)" fill="#fff" stroke="#000" stroke-linecap="round" stroke-linejoin="round" stroke-width="0.5"/>
      <circle id="楕円形_30" data-name="楕円形 30" cx="0.316" cy="0.316" r="0.316" transform="translate(2.209 9.41)" fill="#fff" stroke="#000" stroke-linecap="round" stroke-linejoin="round" stroke-width="0.5"/>
      <circle id="楕円形_31" data-name="楕円形 31" cx="0.316" cy="0.316" r="0.316" transform="translate(2.894 9.712)" fill="#fff" stroke="#000" stroke-linecap="round" stroke-linejoin="round" stroke-width="0.5"/>
      <circle id="楕円形_32" data-name="楕円形 32" cx="0.316" cy="0.316" r="0.316" transform="translate(3.518 10.035)" fill="#fff" stroke="#000" stroke-linecap="round" stroke-linejoin="round" stroke-width="0.5"/>
      <circle id="楕円形_33" data-name="楕円形 33" cx="0.316" cy="0.316" r="0.316" transform="translate(4.102 10.438)" fill="#fff" stroke="#000" stroke-linecap="round" stroke-linejoin="round" stroke-width="0.5"/>
      <circle id="楕円形_34" data-name="楕円形 34" cx="0.316" cy="0.316" r="0.316" transform="translate(4.686 10.86)" fill="#fff" stroke="#000" stroke-linecap="round" stroke-linejoin="round" stroke-width="0.5"/>
      <circle id="楕円形_35" data-name="楕円形 35" cx="0.316" cy="0.316" r="0.316" transform="translate(5.29 11.243)" fill="#fff" stroke="#000" stroke-linecap="round" stroke-linejoin="round" stroke-width="0.5"/>
      <circle id="楕円形_36" data-name="楕円形 36" cx="0.316" cy="0.316" r="0.316" transform="translate(5.895 11.666)" fill="#fff" stroke="#000" stroke-linecap="round" stroke-linejoin="round" stroke-width="0.5"/>
      <circle id="楕円形_37" data-name="楕円形 37" cx="0.316" cy="0.316" r="0.316" transform="translate(6.438 12.129)" fill="#fff" stroke="#000" stroke-linecap="round" stroke-linejoin="round" stroke-width="0.5"/>
      <circle id="楕円形_38" data-name="楕円形 38" cx="0.316" cy="0.316" r="0.316" transform="translate(7.022 12.592)" fill="#fff" stroke="#000" stroke-linecap="round" stroke-linejoin="round" stroke-width="0.5"/>
      <circle id="楕円形_39" data-name="楕円形 39" cx="0.316" cy="0.316" r="0.316" transform="translate(7.566 13.076)" fill="#fff" stroke="#000" stroke-linecap="round" stroke-linejoin="round" stroke-width="0.5"/>
      <circle id="楕円形_40" data-name="楕円形 40" cx="0.316" cy="0.316" r="0.316" transform="translate(8.13 13.599)" fill="#fff" stroke="#000" stroke-linecap="round" stroke-linejoin="round" stroke-width="0.5"/>
      <circle id="楕円形_41" data-name="楕円形 41" cx="0.316" cy="0.316" r="0.316" transform="translate(8.613 14.103)" fill="#fff" stroke="#000" stroke-linecap="round" stroke-linejoin="round" stroke-width="0.5"/>
      <circle id="楕円形_42" data-name="楕円形 42" cx="0.316" cy="0.316" r="0.316" transform="translate(9.036 14.727)" fill="#fff" stroke="#000" stroke-linecap="round" stroke-linejoin="round" stroke-width="0.5"/>
      <circle id="楕円形_43" data-name="楕円形 43" cx="0.316" cy="0.316" r="0.316" transform="translate(9.349 15.366)" fill="#fff" stroke="#000" stroke-linecap="round" stroke-linejoin="round" stroke-width="0.5"/>
      <circle id="楕円形_44" data-name="楕円形 44" cx="0.312" cy="0.312" r="0.312" transform="translate(5.935)" fill="none" stroke="#000" stroke-linecap="round" stroke-linejoin="round" stroke-width="0.5"/>
    </g>
    <path id="veil" d="M272.442,13.962a21.564,21.564,0,0,1,1.6,11.52,24.647,24.647,0,0,0,.121,7.636c.5,2.859,1.5,5.619,1.874,8.5a39.417,39.417,0,0,1-.19,8.841l-.856,8.838a20.263,20.263,0,0,1-1.7,7.473,5.142,5.142,0,0,1-3.581,2.976,15.9,15.9,0,0,0-1.871.148c-2.152.554-2.972,3.872-5.194,3.869-1.436,0-2.615-1.509-4.036-1.3-.546.079-1.027.409-1.567.519-1.558.318-2.926-1.371-2.942-2.962a9.135,9.135,0,0,1,1.65-4.415,53.077,53.077,0,0,0,6.916-25.271c.076-4.657.264-12.549,1.155-17.12s3.6-9.167,8.021-10.637Z" transform="translate(-162.345 -7.42)" fill="none" stroke="#000" stroke-linecap="round" stroke-linejoin="round" stroke-width="0.502"/>
    <g id="face" transform="translate(124.087 9.386)">
      <ellipse id="楕円形_45" data-name="楕円形 45" cx="0.696" cy="0.764" rx="0.696" ry="0.764" transform="matrix(0.049, -0.999, 0.999, 0.049, 0, 3.22)"/>
      <path id="パス_1349" data-name="パス 1349" d="M347.393,30.011s.8.271,1.153-.294" transform="translate(-346.272 -27.804)" fill="none" stroke="#000" stroke-linecap="round" stroke-linejoin="round" stroke-width="0.753"/>
      <path id="パス_1350" data-name="パス 1350" d="M348.569,50.439a3.6,3.6,0,0,1-1.188-.126" transform="translate(-346.265 -41.015)" fill="none" stroke="#000" stroke-linecap="round" stroke-linejoin="round" stroke-width="1"/>
      <path id="パス_1351" data-name="パス 1351" d="M344.6,24.517a2.02,2.02,0,0,1,1.611.067" transform="translate(-344.483 -24.381)" fill="none" stroke="#000" stroke-linecap="round" stroke-linejoin="round" stroke-width="1.004"/>
    </g>
  </g>
</svg>
