<svg xmlns="http://www.w3.org/2000/svg" width="36.714" height="181.011" viewBox="0 0 36.714 181.011">
  <g id="first_man" transform="translate(-0.503 -0.496)">
    <path id="path" d="M9.277,27.625c-.208-1.214-.472-2.239-.729-2.276a10.83,10.83,0,0,0-1.929.21,1.161,1.161,0,0,1-1.076-.4,3.847,3.847,0,0,1-.559-1.876,2.365,2.365,0,0,0-.526-1.031,1.061,1.061,0,0,1-.076-.839.849.849,0,0,1-.533-.924,2.893,2.893,0,0,0,.035-1.28c-.091-.348-.957-.268-1.326-.471a.857.857,0,0,1-.306-1.152c.2-.539,1.725-2.624,1.828-3.254a3.77,3.77,0,0,0-.275-1.661,10.17,10.17,0,0,1,.264-2.448h0c.144-.81.308-1.634.41-2.174L9.417,7.86l.2,2.046A1.8,1.8,0,0,0,10.1,11l1.176,1.257A6.424,6.424,0,0,1,12.288,15.4s.223-.084.739-1.472a3.581,3.581,0,0,1,1.295-1.916,2.566,2.566,0,0,1,.9-.36M9.681,31.21c0-.069,0-.144-.008-.226-.005-.1-.012-.208-.02-.325M17.5,28.4a4.676,4.676,0,0,0-.181-1.464M23.86,46.8c-1.4-3.177-5.243-5.771-5.243-5.771M16.446,16.17a10.911,10.911,0,0,1,1.8,2.594c.306.981,1.525.5,2.328,1.826M9.508,87.883c1.017.188,3.145.582,4.561.827a26.677,26.677,0,0,0,2.681.31c.651.043,1.072.05,1.072.05s2.268-12.664,3.054-17.728S22.322,56.482,22.346,54.5A73.413,73.413,0,0,1,23.86,46.8a41.343,41.343,0,0,0,1.031-6.127c.073-3.058-1.022-9.906-3.2-11.453A7.853,7.853,0,0,0,17.5,28.4a5.331,5.331,0,0,0-4.63,2.426A24.51,24.51,0,0,0,9.389,42.149a31.154,31.154,0,0,0,.249,5.5c.961,7.538,1.615,20.968,1.649,22.266v.051c-.005.476-.2,1.984-.472,3.886m0,0C10.2,78.146,9.222,84.455,9.246,85.4a7.256,7.256,0,0,1-.32,2.377l.582.108m0,0-.09.963.384.063c1.235.2,5.052.82,5.567.858a1.606,1.606,0,0,0,.19,0,2.4,2.4,0,0,0,1.06-.342c.054-.029.1-.213.131-.407M9.8,88.909c-.091.351-.249.862-.428,1.413l-.168.513c-.3.906-.612,1.823-.738,2.261-.152.528-.3.953-.435,1.548-.086.372-.171.809-.251,1.38A6.327,6.327,0,0,0,7.8,97.559a13.859,13.859,0,0,0,.241,1.413c.12.548.239.975.278,1.137a5.134,5.134,0,0,0,1.764,1.492m-.672-4.3c.015.137.032.331.05.563.035.426.077.976.133,1.523a6.982,6.982,0,0,0,.418,2.108,1.187,1.187,0,0,0,.071.1h0a3.827,3.827,0,0,0,1.773,1.1,1.6,1.6,0,0,0,.446.084,2.513,2.513,0,0,0,1.362-.349m-2.317-4.671c.01.175.022.346.036.51a9.828,9.828,0,0,0,.219,1.547,3.561,3.561,0,0,0,.383.994,5.527,5.527,0,0,0,1.678,1.619,2.093,2.093,0,0,0,.384.186c.61.207.85-.045.953-.361a1.8,1.8,0,0,0-.292-.943m-1.485-3.69a10.191,10.191,0,0,0,.13,1.281,4.482,4.482,0,0,0,.386,1.347l.01.017a4.685,4.685,0,0,0,.959,1.044h0c.205.174.4.327.548.444.411.325,1.01.085.978-.273a2.765,2.765,0,0,0-.337-.758c-.217-.39-.487-.831-.647-1.123h0c-.042-.076-.077-.142-.1-.194a6.51,6.51,0,0,1-.031-2.082c.02-.3.078-.96.136-1.635.038-.439.076-.885.1-1.238a35.6,35.6,0,0,0,.2-4.693m-.88-72.621a3.035,3.035,0,0,0,1.767-.979c.07-.067.14-.138.211-.215a5.624,5.624,0,0,0,1.412-2.969,1.733,1.733,0,0,0-.441-1.4,1.584,1.584,0,0,0-2.405.064,1.613,1.613,0,0,0-.314.429M11.2,23s1.237-1.175,1.916-1.978a6.905,6.905,0,0,0,.99-2.6m3.372,64.825a.539.539,0,1,0,.54.539A.539.539,0,0,0,17.482,83.246Zm-.233,1.382a.54.54,0,1,0,.54.54A.54.54,0,0,0,17.249,84.628Zm-.44,1.422a.54.54,0,1,0,.677.351A.54.54,0,0,0,16.809,86.05Zm3.829-61.836-.288-2.6-.13.04a34.516,34.516,0,0,0-7.233,3.063c-.622.411-1.274.9-1.9,1.4M9.277,27.625c-1.035.907-1.761,1.6-1.761,1.6l.873.829,1.118,1.063.147-.463.636-2.022.795-2.523c-.646.513-1.268,1.041-1.806,1.511m.928,3.349-.125-.308M3.044,55.6c.685-2.352,1.615-5.543,1.984-6.777.291-.97.939-3.569,1.6-6.173.071-.282.142-.564.213-.845.133-.522.264-1.036.391-1.531.032-.125.064-.248.1-.372.468-1.808.869-3.284,1.055-3.731.519-1.25,2.195-4.3,2.195-4.3l-.368-.907h0l.769-.014a14.118,14.118,0,0,1,4.485-3.446,11.466,11.466,0,0,1,1.858-.575,15.686,15.686,0,0,1,4.9-.36,2.284,2.284,0,0,1,.389.086l-1.675-2.45h-.3c-.217,0-.448,0-.691.008a7.74,7.74,0,0,0-3.183.755,10.38,10.38,0,0,0-1.652.989,25.18,25.18,0,0,0-5.032,4.7c-.081.1-.158.208-.236.314-.055.076-.11.153-.163.229A9.557,9.557,0,0,0,8.631,33.1c-.134.335-.277.7-.427,1.094-1.009,2.651-2.3,6.4-2.8,8.257-.036.135-.078.291-.125.467h0A68.8,68.8,0,0,0,3.044,55.6h0c-.077,1.114-.118,2.249-.11,3.386,0,.541.05,1.214.133,2V61c.616,5.909,3.288,18.189,5.982,29.192.052.214.105.428.157.642M12.3,102.788c.312,1.137.611,2.2.889,3.158a5.53,5.53,0,0,0,6.327,3.9l5.861-1.1,11.341-2.121L33.139,92.837s-1.065-6.426-1.433-8.35-3.692-12.528-3.612-14.656.951-20.786.869-22.587a67.312,67.312,0,0,0-2.414-12.483,48.682,48.682,0,0,0-4.328-8.182M11.288,69.962l-2.75-.418-.583,3.019a.775.775,0,0,0,.633.912l2.227.373m7.044,94.362a1.17,1.17,0,0,0-1.251.389,54.232,54.232,0,0,1-6.167,5.793,4.02,4.02,0,0,1-.768.467c-.342.135-.615.252-.866.358a9.923,9.923,0,0,1-3.059.738c-2.335.3-3.318,1.359-3.318,2.242l-.3.142s-.375,1.075.021,1.471,6.61,1.146,8.41,1.192c1.232.032,4.459-.212,6.6-.449a13.94,13.94,0,0,0,1.953-.3,17.792,17.792,0,0,0,2.708-1.075,4.482,4.482,0,0,1,2.055-.7l-.045,1.121s5.371.746,6.467-1l-.021-2.384-.155-.11-.008-.006a13.958,13.958,0,0,0-.435-5.365m-6.2.492a5.025,5.025,0,0,0,2.118-.149m-8.777-5.733a.483.483,0,0,0,.025.265,2.769,2.769,0,0,0,1.067,1.093m-2.7-2.334a1.221,1.221,0,0,0-.612.612c-.489,1.171-3.55,3.48-4.11,4.018a2.325,2.325,0,0,1-1.587.538c-.208,0-4.393-.21-5.955.328a1.88,1.88,0,0,0-1.5,1.751c-.655.045-.4,1.263-.4,1.263s.021.371,2.079,1.4a18.133,18.133,0,0,0,5.673.941M4.593,86.86a15.922,15.922,0,0,0,.122,2.934c.159.789.565,4.109.87,6.635.183,1.516.328,2.747.364,2.975,0,0,.028.117.074.3.163.661.53,2.175.53,2.178.1.665,2.55,8.858,3.356,14.425.436,3.012,4.965,20.4,6.372,25.43a7.852,7.852,0,0,1,.241.891v.01c.043.131.078.262.117.4,2.323,8.134,2.68,19.308,2.235,20.649s-.846,2.73-.846,2.73l-.12.283-.46,1.082s.148.166.41.428c.944.948,3.356,3.137,5.337,3.027.092,0,.184-.007.279-.013.636-.04,1.372-.089,2.118-.149.513-.04,1.025-.082,1.521-.121,1.046-.089,1.994-.17,2.56-.223.346-.028.551-.05.551-.05s.022-7.478.022-8.083.251-1.177.463-3.211a41.764,41.764,0,0,0,.134-8.787c-.374-3.713-.891-8.038-1.009-9.93a106.67,106.67,0,0,0-2.415-13.085c-.063-.184-.126-.364-.184-.541-.565-1.765-.812-3.2-1.025-3.752-.233-.609-.643-9.517-.735-11.946-.035-.894-.07-1.789-.1-2.6m-8.854,33.892a14.609,14.609,0,0,1,.227,2.274c.045.983.371,9.742-.481,14.4-.733,4.01-1.432,4.647-1.432,4.647a.934.934,0,0,0,.331.375.257.257,0,0,0,.043.024,5.549,5.549,0,0,1,1.605.976c.424.544.909,1.064,1.212,1.075M2.429,178.2a3.482,3.482,0,0,0,2.469.987,77.417,77.417,0,0,0,8.466.566c1.58-.014,2.709-.036,3.678-.142a10.629,10.629,0,0,0,2.638-.622c1.839-.68,5.04-2.239,7.872-2.381a8.915,8.915,0,0,0,2.565-.5m-28.665-4.49s.218.891,2.259,1.456a29.823,29.823,0,0,0,6.73,1.323M10.461,119v0c1.054,2.712,4.427,10.857,7.709,12.9M20.22,21.653a4.811,4.811,0,0,1,.194-.643,3.037,3.037,0,0,1,.157-.421c.737-1.716,3.64-6.918,3.64-6.918a9.068,9.068,0,0,0,.243-4.086A7.642,7.642,0,0,0,21.9,5.777C21.638-.691,13.148.886,9.424,2.116,7.3,2.817,4.3,4.933,3.67,5.978c-.507.836-.026,3.047.4,4.24h0m4.32,19.84a6.412,6.412,0,0,0-.9,3.963A3.47,3.47,0,0,1,8.2,34.2m-.718-.174a6.86,6.86,0,0,0-1.548,2.732,43.917,43.917,0,0,0-.657,6.165h0M20.006,6.076a18.3,18.3,0,0,0-7.676,1.47m4.433,17.432a14.429,14.429,0,0,0-6.474,3.66M8.19,40.961l-.865-1.054m-.1,1.827V40.279m1.808,1.108L9.068,39l-.807,1.993-.24.592M3.067,60.988V61c-.011,4.731-.023,18.46.172,21.105A9.5,9.5,0,0,0,4.593,86.86a9.311,9.311,0,0,0,4.456,3.334M4.276,79.111c-.248,0-.449.337-.449.752s.2.752.449.752.449-.337.449-.752S4.524,79.111,4.276,79.111Zm-.3-7.149c-.248,0-.45.336-.45.752s.2.751.45.751.449-.336.449-.751S4.226,71.961,3.978,71.961ZM6.625,42.654l2.4-.465.234-.045.03-.8-.254.049-1.016.2-.792.152-.391.076m14.7,57.082A14.647,14.647,0,0,0,15.254,95.7M5.638,94.379c.8.1,1.595.186,2.4.266m9.639,4.488a24.3,24.3,0,0,0,3.375.976,10.383,10.383,0,0,0,2.436.185c.1,0,.207-.011.311-.02.464-.04.685-.5.343-.719a3.314,3.314,0,0,0-.794-.269h0l-.006,0a18.215,18.215,0,0,0-1.8-.392l-.1-.022c-.417-.1-.813-.236-1.212-.367q-1.83-.6-3.754-1.049m.61,2.6a21.037,21.037,0,0,0,2.261.606,7.744,7.744,0,0,0,1.759.2.138.138,0,0,0,.03,0h0q.1,0,.2-.01a7.9,7.9,0,0,0,2.145-.563M5.638,94.379a13.319,13.319,0,0,0,.136,1.928c0,.035.005.068.009.1a.938.938,0,0,0,.654.84c.374.139.838.15,1.2.264l.159.048m7.452,2.052h0l.064.023c2.138.791,3.4,1.661,5.8,1.236M6.438,97.248a2.434,2.434,0,0,0,1.6,1.724m7.858,1.763c.314.07.593.134.827.192a5.02,5.02,0,0,1,.714.207,8.276,8.276,0,0,0,1.666.408c.839.148,1.752.269,2.218.324.73.085.879-.433-.21-.994h0m-4.387.055a11.922,11.922,0,0,1,1.493,1.464c.417.476.465.541.857.47.32-.058.231-.754.03-1.319" transform="translate(0 0)" fill="none" stroke="#000" stroke-linecap="round" stroke-linejoin="round" stroke-width="1"/>
    <g id="face" transform="translate(4.383 12.503)">
      <ellipse id="楕円形_46" data-name="楕円形 46" cx="0.708" cy="0.616" rx="0.708" ry="0.616" transform="translate(0.675 1.296)"/>
      <line id="線_172" data-name="線 172" y1="0.109" x2="1.8" transform="translate(0.508)" fill="none" stroke="#000" stroke-linecap="round" stroke-linejoin="round" stroke-width="1"/>
      <path id="パス_1352" data-name="パス 1352" d="M10.428,57.442a3.73,3.73,0,0,0,1.667-.264" transform="translate(-10.428 -48.534)" fill="none" stroke="#000" stroke-linecap="round" stroke-linejoin="round" stroke-width="1"/>
    </g>
  </g>
</svg>
