<svg xmlns="http://www.w3.org/2000/svg" xmlns:xlink="http://www.w3.org/1999/xlink" width="33.678" height="32.243" viewBox="0 0 33.678 32.243">
  <defs>
    <clipPath id="clip-path">
      <rect id="長方形_483" data-name="長方形 483" width="33.678" height="32.243" transform="translate(0 0)" fill="none"/>
    </clipPath>
  </defs>
  <g id="icon_fixed_line" clip-path="url(#clip-path)">
    <path id="パス_1339" data-name="パス 1339" d="M32.05,12.985C32.05,5.814,24.875,0,16.025,0S0,5.814,0,12.985c0,6.25,5.45,11.468,12.71,12.7l-.614-.117s.835.162.893.162c.28.046.369.057.654.091a1.47,1.47,0,0,1,1.177,1.783c-.31,2.006-.362,2.881.465,2.881.8,0,11.463-5.7,14.711-11.144a11.081,11.081,0,0,0,2.053-6.361" transform="translate(0.814 0.813)" fill="none" stroke="#a6a08a" stroke-width="2"/>
    <path id="パス_1340" data-name="パス 1340" d="M204.739,355.35a.189.189,0,0,0-.188-.188h-1.291a.189.189,0,0,0-.188.188v6.68a.189.189,0,0,0,.188.188h4.46a.189.189,0,0,0,.188-.188V360.9a.189.189,0,0,0-.188-.188h-2.792a.189.189,0,0,1-.188-.188Z" transform="translate(-196.604 -344.461)" fill="#a6a08a"/>
    <rect id="長方形_482" data-name="長方形 482" width="1.668" height="7.056" transform="translate(12.193 10.701)" fill="#a6a08a"/>
    <path id="パス_1341" data-name="パス 1341" d="M519.17,358.108c0,.1,0,.273,0,.377l0,.318c0,.1-.037.129-.084.056s-.218-.333-.276-.419l-2.112-3.122a.4.4,0,0,0-.294-.156H515.3a.189.189,0,0,0-.188.188v6.68a.189.189,0,0,0,.188.188h1.246a.189.189,0,0,0,.188-.188v-2.79c0-.1,0-.273,0-.377v-.39c0-.1.045-.117.1-.03l.122.187.208.314,2.083,3.117a.4.4,0,0,0,.293.157h1.074a.189.189,0,0,0,.188-.188v-6.68a.189.189,0,0,0-.188-.188h-1.255a.189.189,0,0,0-.188.188Z" transform="translate(-499.957 -344.461)" fill="#a6a08a"/>
    <path id="パス_1342" data-name="パス 1342" d="M773.917,360.724a.189.189,0,0,1-.188-.188v-1.062a.189.189,0,0,1,.188-.188h2.329a.189.189,0,0,0,.188-.188v-1.11a.189.189,0,0,0-.188-.188h-2.329a.189.189,0,0,1-.188-.188v-.765a.189.189,0,0,1,.188-.188h2.488a.189.189,0,0,0,.188-.188V355.35a.189.189,0,0,0-.188-.188h-4.156a.189.189,0,0,0-.188.188v6.68a.189.189,0,0,0,.188.188h4.307a.189.189,0,0,0,.188-.188v-1.118a.189.189,0,0,0-.188-.188Z" transform="translate(-749.755 -344.461)" fill="#a6a08a"/>
  </g>
</svg>
