<svg id="icon_first_message" xmlns="http://www.w3.org/2000/svg" xmlns:xlink="http://www.w3.org/1999/xlink" width="32" height="24.529" viewBox="0 0 32 24.529">
  <defs>
    <clipPath id="clip-path">
      <rect id="長方形_785" data-name="長方形 785" width="32" height="24.529" fill="none"/>
    </clipPath>
  </defs>
  <g id="グループ_2611" data-name="グループ 2611" clip-path="url(#clip-path)">
    <path id="パス_1348" data-name="パス 1348" d="M32,15.668s-1.936-3.582-1.888-3.679v-.048a8.469,8.469,0,0,0,.436-4.551,8.834,8.834,0,0,0-17.428,2.9v.048A7.43,7.43,0,0,0,3.389,13.3L0,14.022s2.421,2.421,2.421,2.517v.048a7.415,7.415,0,1,0,14.766-.338C19.656,17.8,21.059,17.7,23.238,17.6a9.92,9.92,0,0,0,4.6-2.275ZM6.439,17.992a.968.968,0,1,1,.968-.968.971.971,0,0,1-.968.968m3.631,0a.968.968,0,1,1,.968-.968.971.971,0,0,1-.968.968m3.631,0a.968.968,0,1,1,.968-.968.941.941,0,0,1-.968.968m4.7-8.278a.968.968,0,1,1,.968-.968.971.971,0,0,1-.968.968m3.631,0A.968.968,0,1,1,23,8.745a.971.971,0,0,1-.968.968m3.631,0a.968.968,0,1,1,.968-.968.941.941,0,0,1-.968.968" transform="translate(0 -0.001)"/>
  </g>
</svg>
