<svg xmlns="http://www.w3.org/2000/svg" xmlns:xlink="http://www.w3.org/1999/xlink" width="20" height="20" viewBox="0 0 20 20">
  <defs>
    <clipPath id="clip-path">
      <rect id="長方形_691" data-name="長方形 691" width="20" height="20" transform="translate(548 1161)" fill="#fff" stroke="#93C7C3" stroke-width="1"/>
    </clipPath>
    <clipPath id="clip-path-2">
      <rect id="長方形_564" data-name="長方形 564" width="20" height="20" fill="#fff" stroke="#93C7C3" stroke-width="0.909"/>
    </clipPath>
    <clipPath id="clip-path-3">
      <rect id="長方形_469" data-name="長方形 469" width="20" height="20" fill="#fff" stroke="#93C7C3" stroke-width="1.045"/>
    </clipPath>
  </defs>
  <g id="icon_fair_dress" transform="translate(-548 -1161)" clip-path="url(#clip-path)">
    <g id="グループ_2050" data-name="グループ 2050" transform="translate(-74.727 448.273)">
      <g id="マスクグループ_41" data-name="マスクグループ 41" transform="translate(622.727 712.727)" clip-path="url(#clip-path-2)">
        <g id="マスクグループ_36" data-name="マスクグループ 36" clip-path="url(#clip-path-3)">
          <path id="パス_1194" data-name="パス 1194" d="M20.61,85.57a19.832,19.832,0,0,0-1.445-5.036v-.055h-.024a14.441,14.441,0,0,0-4.349-5.737,10.383,10.383,0,0,1,1.532-3.8.249.249,0,0,0,.05-.148,2.22,2.22,0,0,0-2.115-2.045V66.53H13.6v2.219a2.5,2.5,0,0,0-1.783,1.009,2.5,2.5,0,0,0-1.781-1.008V66.53H9.364v2.222a2.22,2.22,0,0,0-2.115,2.041.25.25,0,0,0,.05.148,10.334,10.334,0,0,1,1.53,3.8A14.441,14.441,0,0,0,4.482,80.48H4.46v.055a19.836,19.836,0,0,0-1.445,5.036.252.252,0,0,0,.08.221.364.364,0,0,0,.249.1H20.281a.364.364,0,0,0,.249-.1.252.252,0,0,0,.08-.221M7.917,70.723a1.687,1.687,0,0,1,1.825-1.43,1.654,1.654,0,0,1,1.739,1.5.337.337,0,0,0,.664,0,1.654,1.654,0,0,1,1.739-1.5,1.687,1.687,0,0,1,1.825,1.435,10.9,10.9,0,0,0-1.555,3.854H9.472a10.9,10.9,0,0,0-1.555-3.855M9.31,75.14h5a14.154,14.154,0,0,1,4.162,5.475,2.4,2.4,0,0,0-.794.606,1.147,1.147,0,0,1-1.937,0,1.858,1.858,0,0,0-2.966,0,1.146,1.146,0,0,1-1.936,0,1.857,1.857,0,0,0-2.966,0,1.244,1.244,0,0,1-.968.532,1.244,1.244,0,0,1-.968-.533,2.4,2.4,0,0,0-.794-.606,14.153,14.153,0,0,1,4.167-5.474M3.727,85.325a19.159,19.159,0,0,1,1.192-4.182,2.048,2.048,0,0,1,.511.427,1.857,1.857,0,0,0,2.966,0,1.244,1.244,0,0,1,.968-.532,1.244,1.244,0,0,1,.968.533,1.857,1.857,0,0,0,2.966,0,1.146,1.146,0,0,1,1.936,0,1.858,1.858,0,0,0,2.967,0,2.048,2.048,0,0,1,.512-.428,19.145,19.145,0,0,1,1.192,4.182Z" transform="translate(-1.813 -66.162)" fill="#707070" stroke="#93C7C3" stroke-width="0.523"/>
        </g>
      </g>
    </g>
  </g>
</svg>
