<svg id="icon_first_document" xmlns="http://www.w3.org/2000/svg" width="54.346" height="48" viewBox="0 0 54.346 48">
  <path id="パス_1356" data-name="パス 1356" d="M37.644,42.049v2.4H3.6V3.6h34.04V23.685l3.6-4V2.8A2.821,2.821,0,0,0,38.388,0H2.861A2.857,2.857,0,0,0,0,2.8V45.139A2.869,2.869,0,0,0,2.861,48H38.445a2.833,2.833,0,0,0,2.861-2.861V38.618l-2.288,2.574a4.28,4.28,0,0,1-1.373.858Z" fill="#222"/>
  <path id="パス_1357" data-name="パス 1357" d="M87.508,93.254h20.138a1.808,1.808,0,0,0,1.831-1.831,1.844,1.844,0,0,0-1.831-1.831H87.508a1.844,1.844,0,0,0-1.831,1.831,1.807,1.807,0,0,0,1.831,1.831Z" transform="translate(-76.924 -80.439)" fill="#222"/>
  <path id="パス_1358" data-name="パス 1358" d="M87.508,178.374h20.138a1.831,1.831,0,1,0,0-3.662H87.508a1.831,1.831,0,1,0,0,3.661Z" transform="translate(-76.924 -156.863)" fill="#222"/>
  <path id="パス_1359" data-name="パス 1359" d="M109.427,261.665a1.808,1.808,0,0,0-1.831-1.831H87.516a1.808,1.808,0,0,0-1.831,1.831,1.844,1.844,0,0,0,1.831,1.831h20.138a1.833,1.833,0,0,0,1.773-1.831Z" transform="translate(-76.931 -233.289)" fill="#222"/>
  <path id="パス_1360" data-name="パス 1360" d="M85.679,346.73a1.808,1.808,0,0,0,1.831,1.831h17.335l.629-3.6H87.51a1.8,1.8,0,0,0-1.831,1.773Z" transform="translate(-76.926 -309.716)" fill="#222"/>
  <path id="パス_1361" data-name="パス 1361" d="M302.3,332.848l4.348-1.259a1.243,1.243,0,0,0,.458-.286l1.259-1.373-5.092-4.577-1.259,1.431a1.027,1.027,0,0,0-.229.515l-.744,4.462a.955.955,0,0,0,1.259,1.087Z" transform="translate(-270.266 -292.115)" fill="#222"/>
  <path id="パス_1362" data-name="パス 1362" d="M338.319,203.018l10.729-11.972,5.112,4.582L343.431,207.6Z" transform="translate(-303.756 -171.528)" fill="#222"/>
  <path id="パス_1363" data-name="パス 1363" d="M466.295,150.319l-3.547-3.2a1,1,0,0,0-1.43.057l-2.117,2.4,5.092,4.577,2.117-2.4a1.064,1.064,0,0,0-.115-1.43Z" transform="translate(-412.288 -131.84)" fill="#222"/>
</svg>
