<svg id="icon_fair_calendar" xmlns="http://www.w3.org/2000/svg" xmlns:xlink="http://www.w3.org/1999/xlink" width="21.577" height="20.074" viewBox="0 0 21.577 20.074">
  <defs>
    <clipPath id="clip-path">
      <rect id="長方形_580" data-name="長方形 580" width="21.577" height="20.074" fill="#fff" stroke="#fff" stroke-width="0.1"/>
    </clipPath>
  </defs>
  <g id="グループ_658" data-name="グループ 658" clip-path="url(#clip-path)">
    <path id="パス_778" data-name="パス 778" d="M33.272,53.176a.418.418,0,0,1-.174-.038c-1.911-.875-4.676-3.369-4.676-5.59a2.4,2.4,0,0,1,2.323-2.492,3.646,3.646,0,0,1,2.528,1.138A3.644,3.644,0,0,1,35.8,45.056a2.4,2.4,0,0,1,2.323,2.492c0,2.221-2.765,4.715-4.676,5.59a.418.418,0,0,1-.174.038m-2.528-7.284a1.548,1.548,0,0,0-1.487,1.656c0,1.746,2.282,3.884,4.015,4.747,1.732-.863,4.014-3,4.014-4.747A1.548,1.548,0,0,0,35.8,45.892c-.946,0-2.109.734-2.109,1.332a.418.418,0,0,1-.836,0c0-.6-1.163-1.332-2.11-1.332" transform="translate(-22.483 -35.642)" fill="#fff" stroke="#fff" stroke-width="0.1"/>
    <path id="パス_779" data-name="パス 779" d="M20.115,26.814H1.463A1.464,1.464,0,0,1,0,25.352V9.984A1.465,1.465,0,0,1,1.463,8.521H20.115a1.465,1.465,0,0,1,1.463,1.463V25.352a1.464,1.464,0,0,1-1.463,1.463M1.463,9.357a.628.628,0,0,0-.627.627V25.352a.628.628,0,0,0,.627.627H20.115a.628.628,0,0,0,.627-.627V9.984a.628.628,0,0,0-.627-.627Z" transform="translate(0 -6.741)" fill="#fff" stroke="#fff" stroke-width="0.1"/>
    <rect id="長方形_579" data-name="長方形 579" width="19.906" height="0.836" transform="translate(0.836 6.645)" fill="#fff" stroke="#fff" stroke-width="0.1"/>
    <path id="パス_780" data-name="パス 780" d="M19.8,4.318a.418.418,0,0,1-.418-.418V.418a.418.418,0,1,1,.836,0V3.9a.418.418,0,0,1-.418.418" transform="translate(-15.332 0)" fill="#fff" stroke="#fff" stroke-width="0.1"/>
    <path id="パス_781" data-name="パス 781" d="M50.053,4.318a.418.418,0,0,1-.418-.418V.418a.418.418,0,0,1,.836,0V3.9a.418.418,0,0,1-.418.418" transform="translate(-39.264 0)" fill="#fff" stroke="#fff" stroke-width="0.1"/>
    <path id="パス_782" data-name="パス 782" d="M80.306,4.318a.418.418,0,0,1-.418-.418V.418a.418.418,0,1,1,.836,0V3.9a.418.418,0,0,1-.418.418" transform="translate(-63.196 0)" fill="#fff" stroke="#fff" stroke-width="0.1"/>
  </g>
</svg>
