<svg id="icon_heart" xmlns="http://www.w3.org/2000/svg" width="17" height="17" viewBox="0 0 17 17">
  <path id="パス_894" data-name="パス 894" d="M5.5,4.586a1.9,1.9,0,0,1,1.354.561l.646.646.646-.646a1.914,1.914,0,0,1,2.707,2.707L7.5,11.207,4.146,7.854A1.914,1.914,0,0,1,5.5,4.586Zm2,2.621L6.146,5.854A.914.914,0,1,0,4.854,7.146L7.5,9.793l2.646-2.646A.914.914,0,0,0,8.854,5.854Z" transform="translate(1 1.068)" fill="#a6a08a"/>
  <path id="パス_895" data-name="パス 895" d="M8.5,0A8.5,8.5,0,1,1,0,8.5,8.51,8.51,0,0,1,8.5,0Zm0,16A7.5,7.5,0,1,0,1,8.5,7.508,7.508,0,0,0,8.5,16Z" fill="#a6a08a"/>
</svg>
