<svg xmlns="http://www.w3.org/2000/svg" width="18.656" height="16.169" viewBox="0 0 18.656 16.169">
  <path id="icon_heart" d="M9.328,16.547l-.44.44a.622.622,0,0,0,.881,0ZM1.91,9.129l-.44.439ZM8.129,2.91l-.44.439Zm1.2,1.2-.44.44a.622.622,0,0,0,.881,0Zm1.2-1.2-.439-.44Zm-.759,13.2L2.349,8.689l-.879.879,7.418,7.419.881-.881Zm6.538-7.418L8.888,16.106l.881.881,7.418-7.419-.879-.879ZM7.689,3.349l1.2,1.2.881-.881-1.2-1.2Zm2.08,1.2,1.2-1.2-.879-.879-1.2,1.2ZM13.636,1a5.018,5.018,0,0,0-3.548,1.47l.879.879a3.777,3.777,0,0,1,2.669-1.106Zm3.776,5.02a3.771,3.771,0,0,1-1.107,2.669l.881.879a5.02,5.02,0,0,0,1.47-3.548Zm1.244,0A5.02,5.02,0,0,0,13.636,1V2.244A3.776,3.776,0,0,1,17.412,6.02ZM5.02,2.244A3.771,3.771,0,0,1,7.689,3.351l.879-.881A5.02,5.02,0,0,0,5.02,1ZM1.244,6.02A3.776,3.776,0,0,1,5.02,2.244V1A5.02,5.02,0,0,0,0,6.02ZM2.351,8.689A3.775,3.775,0,0,1,1.244,6.02H0A5.018,5.018,0,0,0,1.47,9.568l.879-.879Z" transform="translate(0 -1)" fill="#93C7C3"/>
</svg>
