<svg xmlns="http://www.w3.org/2000/svg" width="100" height="100" viewBox="0 0 100 100">
  <g id="icon_guest_costume" transform="translate(-410 -3558)">
    <rect id="長方形_813" data-name="長方形 813" width="100" height="100" rx="10" transform="translate(410 3558)" fill="#7694be"/>
    <g id="グループ_2705" data-name="グループ 2705">
      <path id="パス_1360" data-name="パス 1360" d="M209.411,16.989c3.446-2.974,3.489-7.971,3.489-8.2a.777.777,0,0,0-.24-.566,5.823,5.823,0,0,0-.489-.429l.514-2.049a1.6,1.6,0,0,0-1.114-1.929L207.3,2.6V1.6A1.606,1.606,0,0,0,205.7,0h-1.6A1.6,1.6,0,0,0,202.5,1.6V2.6l-4.277,1.226a1.594,1.594,0,0,0-1.114,1.929l.514,2.049a5.825,5.825,0,0,0-.489.429.777.777,0,0,0-.24.566c0,.223.043,5.229,3.489,8.2-2.426,2.083-9.086,9.137-9.086,23.811a.806.806,0,0,0,.609.78,62.174,62.174,0,0,0,12.2,1.6v1.654a8.6,8.6,0,0,0-4.037,1.423l-.4.266a.8.8,0,0,0,.883,1.329l.4-.266a7.049,7.049,0,0,1,3.154-1.14V47.2a.8.8,0,1,0,1.594,0v-.746a7.086,7.086,0,0,1,3.154,1.14l.4.266a.783.783,0,0,0,.8.051.8.8,0,0,0,.446-.669.817.817,0,0,0-.351-.72l-.4-.266a8.777,8.777,0,0,0-4.037-1.431V43.174a62.259,62.259,0,0,0,12.2-1.6.8.8,0,0,0,.609-.78c-.009-14.666-6.669-21.711-9.1-23.8ZM198.663,5.357l4.277-1.226a1.617,1.617,0,0,0,1.166-1.543V1.6h1.6V2.6a1.6,1.6,0,0,0,1.157,1.534l4.277,1.226-.4,1.62a7.4,7.4,0,0,0-5.837.343,7.417,7.417,0,0,0-5.829-.343ZM204.9,41.6a59.387,59.387,0,0,1-11.991-1.431c.231-16.2,9.154-22.466,9.24-22.526a.8.8,0,0,0-.009-1.329c-3.043-1.989-3.54-5.991-3.626-7.183a5.494,5.494,0,0,1,5.82-.266.8.8,0,0,0,1.123,0,5.478,5.478,0,0,1,5.82.266c-.077,1.191-.566,5.177-3.626,7.183a.8.8,0,0,0-.009,1.329c.094.06,9.017,6.266,9.24,22.526A59.23,59.23,0,0,1,204.9,41.6Z" transform="translate(255.093 3585.975)" fill="#fff"/>
      <path id="パス_1361" data-name="パス 1361" d="M378.27,252.18a.8.8,0,0,0-.163,1.123c2.091,2.76,4.946,6.54,5.443,14.769a.8.8,0,0,0,.8.754h.051a.782.782,0,0,0,.549-.266.806.806,0,0,0,.2-.583c-.523-8.7-3.549-12.711-5.76-15.634a.787.787,0,0,0-1.114-.163Z" transform="translate(84.443 3355.557)" fill="#fff"/>
      <path id="パス_1362" data-name="パス 1362" d="M243.735,252.31c-2.211,2.931-5.237,6.943-5.76,15.634a.806.806,0,0,0,.2.583.765.765,0,0,0,.549.266h.051a.8.8,0,0,0,.8-.754c.5-8.211,3.351-12,5.443-14.769a.8.8,0,1,0-1.277-.96Z" transform="translate(212.421 3355.582)" fill="#fff"/>
    </g>
  </g>
</svg>
