<svg xmlns="http://www.w3.org/2000/svg" xmlns:xlink="http://www.w3.org/1999/xlink" width="20" height="20" viewBox="0 0 20 20">
  <defs>
    <clipPath id="clip-path">
      <rect id="長方形_691" data-name="長方形 691" width="20" height="20" transform="translate(548 1161)" fill="#93C7C3" stroke="#707070" stroke-width="1"/>
    </clipPath>
    <clipPath id="clip-path-2">
      <rect id="長方形_492" data-name="長方形 492" width="20" height="20" fill="#93C7C3" stroke="#707070" stroke-width="0.909"/>
    </clipPath>
  </defs>
  <g id="icon_fair_weekends" transform="translate(-548 -1161)" clip-path="url(#clip-path)">
    <g id="グループ_2051" data-name="グループ 2051" transform="translate(-74.727 448.273)">
      <g id="マスクグループ_28" data-name="マスクグループ 28" transform="translate(622.727 712.727)" clip-path="url(#clip-path-2)">
        <g id="グループ_2140" data-name="グループ 2140" transform="translate(0 0.039)">
          <g id="グループ_2133" data-name="グループ 2133">
            <path id="パス_1199" data-name="パス 1199" d="M1.389,2.76H17.356a2.019,2.019,0,0,1,2.016,2.017v13.3A2.019,2.019,0,0,1,17.356,20.1H1.389A2.019,2.019,0,0,1-.627,18.082V4.777A2.019,2.019,0,0,1,1.389,2.76ZM17.356,18.727A.645.645,0,0,0,18,18.083V4.777a.645.645,0,0,0-.645-.645H1.389a.645.645,0,0,0-.645.645v13.3a.645.645,0,0,0,.645.645Z" transform="translate(0.627 -0.176)" fill="#93C7C3"/>
            <path id="パス_1200" data-name="パス 1200" d="M4.573,7.8l-.215.215a.3.3,0,0,0,.432,0ZM.936,4.165l-.217.215ZM3.985,1.115l-.216.215Zm.588.588-.216.216a.3.3,0,0,0,.432,0Zm.588-.588L4.945.9Zm-.373,6.47L1.153,3.949.721,4.38,4.357,8.016ZM7.995,3.949,4.358,7.585l.432.432L8.426,4.381ZM3.769,1.331l.588.588.432-.432L4.2.9Zm1.02.588.588-.588L4.945.9l-.588.588ZM6.685.182A2.46,2.46,0,0,0,4.945.9l.432.431A1.852,1.852,0,0,1,6.685.785ZM8.536,2.636a1.849,1.849,0,0,1-.545,1.309l.432.431a2.461,2.461,0,0,0,.724-1.74Zm.61,0A2.461,2.461,0,0,0,6.685.182V.789A1.851,1.851,0,0,1,8.536,2.636ZM2.461.789a1.849,1.849,0,0,1,1.309.545L4.2.9A2.461,2.461,0,0,0,2.461.182ZM.61,2.636A1.851,1.851,0,0,1,2.461.789V.182A2.461,2.461,0,0,0,0,2.636Zm.545,1.308A1.851,1.851,0,0,1,.61,2.636H0A2.46,2.46,0,0,0,.721,4.38l.431-.432Z" transform="translate(5.426 7.733)" fill="#93C7C3"/>
            <path id="パス_1200_-_アウトライン" data-name="パス 1200 - アウトライン" d="M4.774,8.486,4.7,8.418a.657.657,0,0,1-.294,0l-.068.068L4.1,8.245h0L.22,4.364l.015-.015A2.808,2.808,0,0,1-.338,2.967h-.02V2.282h.021A2.8,2.8,0,0,1,2.1-.158V-.182h.686v.021A2.81,2.81,0,0,1,4.171.412L4.182.4l.244.237h0l.131.131L4.931.4l.015.015A2.808,2.808,0,0,1,6.327-.159V-.182h.686v.021A2.8,2.8,0,0,1,9.455,2.282h.021v.686H9.455A2.81,2.81,0,0,1,8.882,4.35l.015.015-.24.24h0L5.02,8.241h0ZM1.965,4.273l2.593,2.6L7.494,3.934h0l.243-.243A1.508,1.508,0,1,0,5.6,1.558l-.83.831-.068-.068a.657.657,0,0,1-.294,0l-.068.068L3.756,1.8h0l-.245-.243A1.508,1.508,0,1,0,1.379,3.691l.586.585Z" transform="translate(5.442 7.748)" fill="#93C7C3"/>
            <rect id="長方形_565" data-name="長方形 565" width="1.372" height="6.517" transform="translate(3.989)" fill="#93C7C3"/>
            <rect id="長方形_566" data-name="長方形 566" width="1.372" height="6.517" transform="translate(14.622)" fill="#93C7C3"/>
          </g>
        </g>
      </g>
    </g>
  </g>
</svg>
