<svg xmlns="http://www.w3.org/2000/svg" width="16" height="16" viewBox="0 0 16 16">
  <path id="icon_member" d="M4.8,12.267H4.267A.533.533,0,0,0,4.8,12.8Zm6.4,0V12.8a.533.533,0,0,0,.533-.533ZM4.8,12.8h6.4V11.733H4.8Zm6.933-.533V10.133H10.667v2.133ZM4.267,10.133v2.133H5.333V10.133ZM8,6.4a3.733,3.733,0,0,0-3.733,3.733H5.333A2.667,2.667,0,0,1,8,7.467Zm3.733,3.733A3.733,3.733,0,0,0,8,6.4V7.467a2.667,2.667,0,0,1,2.667,2.667Zm3.2,2.133a1.261,1.261,0,0,1-.433.87,4.512,4.512,0,0,1-1.43.9A13.324,13.324,0,0,1,8,14.933V16a14.354,14.354,0,0,0,5.49-.981,5.568,5.568,0,0,0,1.77-1.132,2.316,2.316,0,0,0,.74-1.62H14.933ZM8,14.933a13.324,13.324,0,0,1-5.07-.894,4.512,4.512,0,0,1-1.43-.9,1.259,1.259,0,0,1-.433-.87H0a2.316,2.316,0,0,0,.74,1.62A5.563,5.563,0,0,0,2.511,15.02,14.357,14.357,0,0,0,8,16ZM1.067,12.267a1.249,1.249,0,0,1,.42-.859,4.441,4.441,0,0,1,1.393-.893l-.427-.977a5.456,5.456,0,0,0-1.73,1.126A2.3,2.3,0,0,0,0,12.267ZM13.12,10.515a4.422,4.422,0,0,1,1.392.893,1.251,1.251,0,0,1,.421.859H16a2.3,2.3,0,0,0-.723-1.6,5.456,5.456,0,0,0-1.73-1.126l-.427.977ZM8,4.267a1.6,1.6,0,0,1-1.6-1.6H5.333A2.667,2.667,0,0,0,8,5.333Zm1.6-1.6A1.6,1.6,0,0,1,8,4.267V5.333a2.667,2.667,0,0,0,2.667-2.667ZM8,1.067a1.6,1.6,0,0,1,1.6,1.6h1.067A2.667,2.667,0,0,0,8,0ZM8,0A2.667,2.667,0,0,0,5.333,2.667H6.4A1.6,1.6,0,0,1,8,1.067Z" fill="#93C7C3"/>
</svg>
