<svg xmlns="http://www.w3.org/2000/svg" xmlns:xlink="http://www.w3.org/1999/xlink" width="33.678" height="32.243" viewBox="0 0 33.678 32.243">
  <defs>
    <clipPath id="clip-path">
      <rect id="長方形_483" data-name="長方形 483" width="33.678" height="32.243" transform="translate(0 0)" fill="none"/>
    </clipPath>
  </defs>
  <g id="icon_line" transform="translate(2 1.999)">
    <g id="グループ_2356" data-name="グループ 2356" transform="translate(-2 -1.999)" clip-path="url(#clip-path)">
      <path id="パス_1339" data-name="パス 1339" d="M15.286,31.489a1.565,1.565,0,0,1-1.239-.534c-.608-.709-.477-1.792-.214-3.5.051-.332.028-.511-.395-.648-.217-.026-.33-.041-.575-.081-.059-.007-.15-.022-.321-.053h0A18.042,18.042,0,0,1,2.93,21.929,13.575,13.575,0,0,1,.053,17.843,11.752,11.752,0,0,1,.373,7.468,14.162,14.162,0,0,1,4.064,3.027,18.984,18.984,0,0,1,16.025-1,18.984,18.984,0,0,1,27.986,3.027a14.162,14.162,0,0,1,3.691,4.441,11.817,11.817,0,0,1,1.373,5.517,12.122,12.122,0,0,1-2.212,6.9c-1.835,3.051-5.666,5.98-8.562,7.9-1.435.953-2.977,1.878-4.341,2.605C15.883,31.489,15.495,31.489,15.286,31.489Zm-2.221-6.754h.014l.075.012c.247.041.323.05.576.081l.113.014.076.022a2.445,2.445,0,0,1,1.892,2.9c-.052.334-.164,1.061-.192,1.557A45.248,45.248,0,0,0,21.46,25.93c3.711-2.5,6.438-5.019,7.678-7.1l.037-.058a10.136,10.136,0,0,0,1.874-5.79C31.05,6.377,24.31,1,16.025,1S1,6.377,1,12.985a9.78,9.78,0,0,0,.877,4.037,11.585,11.585,0,0,0,2.458,3.483,15.884,15.884,0,0,0,7.949,4.087v0l.29.056h.01C12.877,24.7,13.009,24.726,13.065,24.735Z" transform="translate(0.814 0.813)" fill="#93C7C3"/>
      <path id="パス_1340" data-name="パス 1340" d="M204.739,355.35a.189.189,0,0,0-.188-.188h-1.291a.189.189,0,0,0-.188.188v6.68a.189.189,0,0,0,.188.188h4.46a.189.189,0,0,0,.188-.188V360.9a.189.189,0,0,0-.188-.188h-2.792a.189.189,0,0,1-.188-.188Z" transform="translate(-196.604 -344.461)" fill="#93C7C3"/>
      <rect id="長方形_482" data-name="長方形 482" width="1.668" height="7.056" transform="translate(12.193 10.701)" fill="#93C7C3"/>
      <path id="パス_1341" data-name="パス 1341" d="M519.17,358.108c0,.1,0,.273,0,.377l0,.318c0,.1-.037.129-.084.056s-.218-.333-.276-.419l-2.112-3.122a.4.4,0,0,0-.294-.156H515.3a.189.189,0,0,0-.188.188v6.68a.189.189,0,0,0,.188.188h1.246a.189.189,0,0,0,.188-.188v-2.79c0-.1,0-.273,0-.377v-.39c0-.1.045-.117.1-.03l.122.187.208.314,2.083,3.117a.4.4,0,0,0,.293.157h1.074a.189.189,0,0,0,.188-.188v-6.68a.189.189,0,0,0-.188-.188h-1.255a.189.189,0,0,0-.188.188Z" transform="translate(-499.957 -344.461)" fill="#93C7C3"/>
      <path id="パス_1342" data-name="パス 1342" d="M773.917,360.724a.189.189,0,0,1-.188-.188v-1.062a.189.189,0,0,1,.188-.188h2.329a.189.189,0,0,0,.188-.188v-1.11a.189.189,0,0,0-.188-.188h-2.329a.189.189,0,0,1-.188-.188v-.765a.189.189,0,0,1,.188-.188h2.488a.189.189,0,0,0,.188-.188V355.35a.189.189,0,0,0-.188-.188h-4.156a.189.189,0,0,0-.188.188v6.68a.189.189,0,0,0,.188.188h4.307a.189.189,0,0,0,.188-.188v-1.118a.189.189,0,0,0-.188-.188Z" transform="translate(-749.755 -344.461)" fill="#93C7C3"/>
    </g>
  </g>
</svg>
