<?xml version="1.0" encoding="utf-8"?>
<!-- Generator: Adobe Illustrator 27.5.0, SVG Export Plug-In . SVG Version: 6.00 Build 0)  -->
<svg version="1.1" id="レイヤー_1" xmlns="http://www.w3.org/2000/svg" xmlns:xlink="http://www.w3.org/1999/xlink" x="0px"
	 y="0px" viewBox="0 0 12 12" style="enable-background:new 0 0 12 12;" xml:space="preserve" fill="#fff">
<g>
	<defs>
		<rect id="SVGID_1_" width="12" height="12"/>
	</defs>
	<clipPath id="SVGID_00000170278693180038756400000013198629462149105295_">
		<use xlink:href="#SVGID_1_"  style="overflow:visible;"/>
	</clipPath>
	
		<g id="icon_fair_all-hover" transform="translate(-55 -1149)" style="clip-path:url(#SVGID_00000170278693180038756400000013198629462149105295_);">
		<g id="中マド_1" transform="translate(-11660.113 -12877.461)">
			<path id="パス_1347" class="st1" d="M11721.1,14038.2c-3.1,0-5.7-2.6-5.7-5.7c0-3.1,2.6-5.7,5.7-5.7c3.1,0,5.7,2.6,5.7,5.7
				C11726.8,14035.6,11724.3,14038.2,11721.1,14038.2L11721.1,14038.2z M11718.3,14031.8c-0.2,0-0.4,0.1-0.6,0.2l0,0l0,0
				c-0.4,0.3-0.5,0.9-0.1,1.4l1.7,2.1c0.2,0.2,0.5,0.4,0.8,0.4c0,0,0,0,0.1,0h0c0.3,0,0.6-0.1,0.7-0.4l3.8-4.7
				c0.2-0.2,0.2-0.5,0.2-0.7c0-0.3-0.2-0.5-0.4-0.7l0,0c-0.2-0.1-0.4-0.2-0.6-0.2c-0.3,0-0.6,0.1-0.8,0.4l-3.1,3.8l-1-1.2
				C11718.9,14031.9,11718.6,14031.8,11718.3,14031.8z"/>
			<path id="パス_1348" class="st2" d="M11721.1,14037.9c3,0,5.4-2.4,5.4-5.4s-2.4-5.4-5.4-5.4c-3,0-5.4,2.4-5.4,5.4
				C11715.7,14035.4,11718.1,14037.9,11721.1,14037.9 M11719,14035.6l-1.7-2.1c-0.4-0.5-0.4-1.3,0.2-1.8h0c0.2-0.2,0.5-0.3,0.8-0.3
				c0.4,0,0.7,0.2,1,0.5l0.7,0.9l2.8-3.5c0.2-0.3,0.6-0.5,1-0.5c0.3,0,0.6,0.1,0.8,0.3h0c0.3,0.2,0.4,0.5,0.5,0.9
				c0,0.3-0.1,0.7-0.3,0.9l-3.8,4.7c-0.2,0.3-0.6,0.5-1,0.5h0c0,0-0.1,0-0.1,0C11719.6,14036.1,11719.3,14035.9,11719,14035.6
				 M11721.1,14038.5c-3.3,0-6-2.7-6-6s2.7-6,6-6s6,2.7,6,6C11727.1,14035.8,11724.4,14038.5,11721.1,14038.5L11721.1,14038.5z
				 M11718.3,14032.1c-0.4,0-0.7,0.3-0.7,0.7c0,0.2,0.1,0.3,0.2,0.4l1.7,2.1c0.1,0.2,0.3,0.2,0.5,0.2c0,0,0,0,0,0h0.1
				c0.2,0,0.4-0.1,0.5-0.2l3.8-4.7c0.1-0.1,0.2-0.3,0.1-0.5c0-0.2-0.1-0.3-0.2-0.4c-0.1-0.1-0.3-0.1-0.4-0.1c-0.2,0-0.4,0.1-0.5,0.2
				l-3.3,4.1l-1.2-1.5C11718.7,14032.1,11718.5,14032.1,11718.3,14032.1L11718.3,14032.1z"/>
		</g>
	</g>
</g>
</svg>
