<svg xmlns="http://www.w3.org/2000/svg" xmlns:xlink="http://www.w3.org/1999/xlink" width="12" height="12" viewBox="0 0 12 12">
  <defs>
    <clipPath id="clip-path">
      <rect id="長方形_713" data-name="長方形 713" width="12" height="12" transform="translate(55 1149)" fill="none" stroke="#a6a08a" stroke-width="1"/>
    </clipPath>
  </defs>
  <g id="icon_fair_all-hover" transform="translate(-55 -1149)" clip-path="url(#clip-path)">
    <g id="中マド_1" data-name="中マド 1" transform="translate(-11660.113 -12877.461)">
      <path id="パス_1347" data-name="パス 1347" d="M11721.11,14038.161a5.7,5.7,0,1,1,5.7-5.7A5.7,5.7,0,0,1,11721.11,14038.161Zm-2.775-6.408a.973.973,0,0,0-.605.213h0l0,0a.976.976,0,0,0-.141,1.361l1.68,2.072a.952.952,0,0,0,.751.357c.014,0,.036,0,.063,0h.041a.961.961,0,0,0,.743-.354l3.776-4.666a.964.964,0,0,0,.211-.707.954.954,0,0,0-.351-.652h0a.976.976,0,0,0-.608-.213.96.96,0,0,0-.751.356l-3.072,3.8-.978-1.2A.96.96,0,0,0,11718.335,14031.753Z" fill="#fff"/>
      <path id="パス_1348" data-name="パス 1348" d="M11721.11,14037.86a5.4,5.4,0,1,0-5.4-5.4,5.407,5.407,0,0,0,5.4,5.4m-2.08-2.271-1.68-2.072a1.276,1.276,0,0,1,.187-1.781l.006,0a1.281,1.281,0,0,1,.792-.277,1.252,1.252,0,0,1,.985.474l.743.913,2.839-3.507a1.262,1.262,0,0,1,.985-.47,1.276,1.276,0,0,1,.794.278l.006,0a1.239,1.239,0,0,1,.46.854,1.255,1.255,0,0,1-.275.926l-3.777,4.669a1.265,1.265,0,0,1-.976.462h-.03c-.032,0-.059,0-.073,0a1.256,1.256,0,0,1-.985-.47m2.08,2.872a6,6,0,1,1,6-6A6.006,6.006,0,0,1,11721.11,14038.461Zm-2.775-6.408a.666.666,0,0,0-.516,1.089l1.678,2.071a.659.659,0,0,0,.519.246.223.223,0,0,0,.049,0h.055a.665.665,0,0,0,.513-.243l3.773-4.664a.665.665,0,0,0,.146-.489.655.655,0,0,0-.241-.448.684.684,0,0,0-.422-.147.658.658,0,0,0-.518.246l-3.306,4.083-1.211-1.49A.659.659,0,0,0,11718.335,14032.053Z" fill="#a6a08a"/>
    </g>
  </g>
</svg>
