<svg xmlns="http://www.w3.org/2000/svg" xmlns:xlink="http://www.w3.org/1999/xlink" width="20" height="20" viewBox="0 0 20 20">
  <defs>
    <clipPath id="clip-path">
      <rect id="長方形_691" data-name="長方形 691" width="20" height="20" transform="translate(548 1161)" fill="#a6a08a" stroke="#fff" stroke-width="1"/>
    </clipPath>
    <clipPath id="clip-path-2">
      <rect id="長方形_492" data-name="長方形 492" width="20" height="20" fill="#a6a08a" stroke="#fff" stroke-width="0.909"/>
    </clipPath>
  </defs>
  <g id="icon_fair_weekdays" transform="translate(-548 -1161)" clip-path="url(#clip-path)">
    <g id="グループ_2052" data-name="グループ 2052" transform="translate(-74.727 448.273)">
      <g id="マスクグループ_29" data-name="マスクグループ 29" transform="translate(622.727 712.727)" clip-path="url(#clip-path-2)">
        <g id="グループ_2132" data-name="グループ 2132" transform="translate(0.686 0.011)">
          <path id="パス_1201" data-name="パス 1201" d="M4.081,0V6.653M14.727,0V6.653M1.42,3.326H17.387a1.331,1.331,0,0,1,1.331,1.331v13.3a1.331,1.331,0,0,1-1.331,1.331H1.42A1.331,1.331,0,0,1,.091,17.962V4.657A1.331,1.331,0,0,1,1.42,3.326Z" transform="translate(-0.09)" fill="none" stroke="#fff" stroke-width="1.435"/>
          <g id="グループ_2129" data-name="グループ 2129" transform="translate(4.716 6.809)">
            <path id="パス_1203" data-name="パス 1203" d="M102.484,139.455a.191.191,0,0,0-.236-.118.186.186,0,0,0-.118.236,3.6,3.6,0,0,1-5.954,3.692c-.041-.041-.068-.082-.1-.123h1.3a.186.186,0,0,0,.186-.186.191.191,0,0,0-.186-.186H95.748a.173.173,0,0,0-.223,0h-.1v1.958a.187.187,0,0,0,.374,0V143.39a1.885,1.885,0,0,0,.127.141,3.969,3.969,0,0,0,6.573-4.074Z" transform="translate(-93.549 -135.492)" fill="#a6a08a" stroke="#fff" stroke-width="0.896"/>
            <path id="パス_1204" data-name="パス 1204" d="M96.581,139.871a3.6,3.6,0,0,1,5.1,0c.041.041.064.082.1.123h-1.3a.191.191,0,0,0-.186.186.186.186,0,0,0,.186.186h1.636a.173.173,0,0,0,.218,0h.1v-1.957a.187.187,0,0,0-.374,0v1.337a1.819,1.819,0,0,0-.123-.141,3.969,3.969,0,0,0-6.573,4.074.191.191,0,0,0,.182.127.137.137,0,0,0,.059,0,.186.186,0,0,0,.118-.236,3.569,3.569,0,0,1,.86-3.7Z" transform="translate(-95.155 -138.224)" fill="#a6a08a" stroke="#fff" stroke-width="0.896"/>
          </g>
        </g>
      </g>
    </g>
  </g>
</svg>
