<?xml version="1.0" encoding="utf-8"?>
<!-- Generator: Adobe Illustrator 27.5.0, SVG Export Plug-In . SVG Version: 6.00 Build 0)  -->
<svg version="1.1" id="レイヤー_1" xmlns="http://www.w3.org/2000/svg" xmlns:xlink="http://www.w3.org/1999/xlink" x="0px"
	 y="0px" viewBox="0 0 20 20" style="enable-background:new 0 0 20 20;" xml:space="preserve">
<style type="text/css">
	.st0{fill:#A6A08A;}
</style>
<g>
	<path id="パス_1343" class="st0" d="M10,19.5c-5.2,0-9.5-4.3-9.5-9.5S4.8,0.5,10,0.5s9.5,4.3,9.5,9.5
		C19.5,15.2,15.2,19.5,10,19.5z M5.4,8.8c-0.4,0-0.7,0.1-1,0.4l0,0l0,0c-0.7,0.6-0.8,1.6-0.2,2.3l2.8,3.5c0.3,0.4,0.8,0.6,1.3,0.6
		c0,0,0.1,0,0.1,0h0.1c0.5,0,0.9-0.2,1.2-0.6l6.3-7.8c0.6-0.7,0.5-1.7-0.2-2.3l0,0l0,0c-0.3-0.2-0.6-0.4-1-0.4
		c-0.5,0-0.9,0.2-1.3,0.6l-5.1,6.3l-1.6-2C6.3,9,5.9,8.8,5.4,8.8L5.4,8.8z"/>
	<path id="パス_1344" class="st0" d="M10,19c5,0,9-4,9-9s-4-9-9-9s-9,4-9,9l0,0C1,15,5,19,10,19 M6.5,15.2l-2.8-3.5
		C3,10.8,3.1,9.5,4,8.8l0,0c0.4-0.3,0.8-0.5,1.3-0.5C6,8.3,6.6,8.6,7,9.1l1.2,1.5L13,4.8C13.4,4.3,14,4,14.6,4
		c0.5,0,0.9,0.2,1.3,0.5l0,0c0.9,0.7,1,2.1,0.3,3L10,15.2C9.6,15.7,9,16,8.3,16H8.3c-0.1,0-0.1,0-0.1,0C7.5,16,6.9,15.7,6.5,15.2
		 M10,20C4.5,20,0,15.5,0,10S4.5,0,10,0s10,4.5,10,10C20,15.5,15.5,20,10,20z M5.4,9.3c-0.6,0-1.1,0.5-1.1,1.1
		c0,0.3,0.1,0.5,0.3,0.7l2.8,3.5C7.5,14.8,7.8,15,8.2,15c0,0,0.1,0,0.1,0c0,0,0.1,0,0.1,0c0.3,0,0.6-0.1,0.9-0.4l6.3-7.8
		c0.2-0.2,0.3-0.5,0.2-0.8c0-0.3-0.2-0.6-0.4-0.7C15.1,5.1,14.9,5,14.6,5c-0.3,0-0.7,0.1-0.9,0.4l-5.5,6.8l-2-2.5
		C6,9.5,5.7,9.3,5.4,9.3L5.4,9.3z"/>
</g>
</svg>
