<svg xmlns="http://www.w3.org/2000/svg" width="22.991" height="28" viewBox="0 0 22.991 28">
  <g id="icon_first_belongings" transform="translate(-4.505 3.471)">
    <path id="アートワーク_6" data-name="アートワーク 6" d="M22.285,12.844a2.878,2.878,0,0,0-2.89-2.89h-.321C18.816,4.431,15.541,0,11.56,0S4.3,4.431,4.046,10.019H3.661a2.865,2.865,0,0,0-2.89,2.826C.771,13.1.193,20.486,0,23.312A4.714,4.714,0,0,0,4.688,28H18.3a4.728,4.728,0,0,0,4.688-4.752c-.128-2.826-.706-10.147-.706-10.4ZM11.56,1.413c3.211,0,5.908,3.853,6.1,8.67-1.927.129-4.945.257-5.972.257-.963,0-4.174-.129-6.229-.257.193-4.816,2.89-8.67,6.1-8.67Zm-7.9,9.954c.257,0,6.551.321,8.027.321,1.605,0,7.514-.321,7.771-.321a1.453,1.453,0,0,1,1.477,1.477s0,.064.129,1.349c0,.9-3.275,2.954-8.734,3.083V16.89a.706.706,0,1,0-1.413,0v.385c-5.459-.193-8.734-2.183-8.734-3.083.129-1.284.129-1.349.129-1.349A1.387,1.387,0,0,1,3.66,11.367Zm14.707,15.22H4.752a3.289,3.289,0,0,1-3.275-3.275c.257-3.34.45-5.587.578-7.128,1.734,1.349,5.138,2.376,8.863,2.44v.321a.706.706,0,0,0,1.413,0v-.321c3.789-.129,7.128-1.092,8.863-2.44.129,1.541.321,3.789.578,7.064a3.413,3.413,0,0,1-3.4,3.34Z" transform="translate(4.505 -3.471)"/>
  </g>
</svg>
