<svg xmlns="http://www.w3.org/2000/svg" xmlns:xlink="http://www.w3.org/1999/xlink" width="100" height="100" viewBox="0 0 100 100">
  <defs>
    <clipPath id="clip-path">
      <rect id="長方形_827" data-name="長方形 827" width="48" height="34.354" transform="translate(0 0)" fill="#fff" stroke="#fff" stroke-width="0.5"/>
    </clipPath>
  </defs>
  <g id="icon_guest_room" transform="translate(-410 -4258)">
    <rect id="長方形_813" data-name="長方形 813" width="100" height="100" rx="10" transform="translate(410 4258)" fill="#7694be"/>
    <g id="グループ_2722" data-name="グループ 2722" transform="translate(436 4290.828)">
      <g id="グループ_2721" data-name="グループ 2721" transform="translate(0 -0.004)" clip-path="url(#clip-path)">
        <path id="パス_1363" data-name="パス 1363" d="M211.057,200.661H172.335a.3.3,0,0,1,0-.6h38.722a.3.3,0,1,1,0,.6" transform="translate(-167.696 -195.016)" fill="#fff" stroke="#fff" stroke-width="0.5"/>
        <path id="パス_1364" data-name="パス 1364" d="M1793.279,200.661h-2.226a.3.3,0,1,1,0-.6h2.226a.3.3,0,1,1,0,.6" transform="translate(-1745.578 -195.016)" fill="#fff" stroke="#fff" stroke-width="0.5"/>
        <path id="パス_1365" data-name="パス 1365" d="M2.526,200.661H.3a.3.3,0,0,1,0-.6H2.526a.3.3,0,0,1,0,.6" transform="translate(0 -195.016)" fill="#fff" stroke="#fff" stroke-width="0.5"/>
        <path id="パス_1366" data-name="パス 1366" d="M130.441,4.586a.3.3,0,0,1-.3-.3V.3a.3.3,0,0,1,.6,0V4.286a.3.3,0,0,1-.3.3" transform="translate(-126.859 0.004)" fill="#fff" stroke="#fff" stroke-width="0.5"/>
        <path id="パス_1367" data-name="パス 1367" d="M89.638,160.9a1.356,1.356,0,1,1,1.356-1.356,1.357,1.357,0,0,1-1.356,1.356m0-2.113a.758.758,0,1,0,.757.758.758.758,0,0,0-.757-.758" transform="translate(-86.055 -154.202)" fill="#fff" stroke="#fff" stroke-width="0.5"/>
        <path id="パス_1368" data-name="パス 1368" d="M1749.159,4.586a.3.3,0,0,1-.3-.3V.3a.3.3,0,1,1,.6,0V4.286a.3.3,0,0,1-.3.3" transform="translate(-1704.741 0.004)" fill="#fff" stroke="#fff" stroke-width="0.5"/>
        <path id="パス_1369" data-name="パス 1369" d="M1708.337,160.9a1.356,1.356,0,1,1,1.355-1.356,1.357,1.357,0,0,1-1.355,1.356m0-2.113a.758.758,0,1,0,.758.758.758.758,0,0,0-.758-.758" transform="translate(-1663.919 -154.202)" fill="#fff" stroke="#fff" stroke-width="0.5"/>
        <path id="パス_1370" data-name="パス 1370" d="M887.282,149.076a.3.3,0,0,1-.3-.3v-1.852a.725.725,0,0,1,.564-.71,1.151,1.151,0,0,0,.853-1.4,1.15,1.15,0,0,0-2.266.282.3.3,0,0,1-.6,0,1.748,1.748,0,1,1,2.146,1.7.13.13,0,0,0-.1.127v1.852a.3.3,0,0,1-.3.3" transform="translate(-863.197 -139.731)" fill="#fff" stroke="#fff" stroke-width="0.5"/>
        <path id="パス_1371" data-name="パス 1371" d="M748.722,349.917a.3.3,0,0,1-.142-.562l4.9-2.641a.3.3,0,1,1,.26.539l-4.881,2.628a.3.3,0,0,1-.141.036" transform="translate(-729.542 -337.932)" fill="#fff" stroke="#fff" stroke-width="0.5"/>
        <path id="パス_1372" data-name="パス 1372" d="M943.248,444.644a.3.3,0,0,1-.049-.594,10.253,10.253,0,0,0,4.134-1.691.3.3,0,1,1,.308.513,10.736,10.736,0,0,1-4.344,1.768.3.3,0,0,1-.049,0" transform="translate(-919.161 -431.157)" fill="#fff" stroke="#fff" stroke-width="0.5"/>
        <path id="パス_1373" data-name="パス 1373" d="M951.47,364.3a.73.73,0,0,1-.682-.48l-2.568-6.776a.3.3,0,1,1,.559-.212l2.568,6.776a.134.134,0,0,0,.16.088l1.467-.431a.153.153,0,0,0,.1-.176l-1.912-10.8a1.51,1.51,0,0,0-.757-1.064l-7.321-3.94a.3.3,0,0,1,.283-.527l7.321,3.94a2.085,2.085,0,0,1,1.063,1.487l1.912,10.8a.749.749,0,0,1-.519.854l-1.467.431a.729.729,0,0,1-.206.03" transform="translate(-919.138 -337.978)" fill="#fff" stroke="#fff" stroke-width="0.5"/>
        <path id="パス_1374" data-name="パス 1374" d="M728.986,666.7h-9.833a1.039,1.039,0,0,1-.8-.381,1.09,1.09,0,0,1-.242-.859c.284-1.968.488-3.868.6-5.646a.3.3,0,0,1,.6.039c-.118,1.794-.323,3.709-.609,5.693a.5.5,0,0,0,.109.39.438.438,0,0,0,.342.166h9.833a.451.451,0,0,0,.345-.163.513.513,0,0,0,.106-.393,68.321,68.321,0,0,1-.727-8.455,41.31,41.31,0,0,1,.585-8.133.3.3,0,1,1,.588.107,40.721,40.721,0,0,0-.575,8.015,67.717,67.717,0,0,0,.721,8.381,1.116,1.116,0,0,1-.237.859,1.051,1.051,0,0,1-.807.38" transform="translate(-699.983 -632.348)" fill="#fff" stroke="#fff" stroke-width="0.5"/>
        <path id="パス_1375" data-name="パス 1375" d="M1080.878,969.325h-1.507a.3.3,0,0,1,0-.6h1.507a.3.3,0,1,1,0,.6" transform="translate(-1051.85 -944.289)" fill="#fff" stroke="#fff" stroke-width="0.5"/>
        <path id="パス_1376" data-name="パス 1376" d="M943.252,532.268a.3.3,0,0,1-.3-.3V511.185a.3.3,0,1,1,.6,0v20.784a.3.3,0,0,1-.3.3" transform="translate(-919.165 -497.998)" fill="#fff" stroke="#fff" stroke-width="0.5"/>
        <path id="パス_1377" data-name="パス 1377" d="M779.462,444.644a.3.3,0,0,1-.049,0,10.735,10.735,0,0,1-4.344-1.768.3.3,0,1,1,.308-.513,10.254,10.254,0,0,0,4.134,1.691.3.3,0,0,1-.049.594" transform="translate(-755.375 -431.157)" fill="#fff" stroke="#fff" stroke-width="0.5"/>
        <path id="パス_1378" data-name="パス 1378" d="M373.467,149.076a.3.3,0,0,1-.3-.3v-1.852a.725.725,0,0,1,.564-.71,1.15,1.15,0,0,0,.853-1.4,1.15,1.15,0,0,0-2.265.282.3.3,0,1,1-.6,0,1.748,1.748,0,1,1,2.146,1.7.13.13,0,0,0-.1.127v1.852a.3.3,0,0,1-.3.3" transform="translate(-362.344 -139.731)" fill="#fff" stroke="#fff" stroke-width="0.5"/>
        <path id="パス_1379" data-name="パス 1379" d="M437.654,364.3a.731.731,0,0,1-.682-.48l-2.568-6.776a.3.3,0,0,1,.559-.212l2.568,6.776a.134.134,0,0,0,.16.088l1.467-.431a.154.154,0,0,0,.1-.176l-1.913-10.8a1.511,1.511,0,0,0-.757-1.064l-7.32-3.94a.3.3,0,0,1,.283-.527l7.32,3.94a2.086,2.086,0,0,1,1.063,1.487l1.913,10.8a.749.749,0,0,1-.519.854l-1.467.431a.729.729,0,0,1-.206.03" transform="translate(-418.285 -337.977)" fill="#fff" stroke="#fff" stroke-width="0.5"/>
        <path id="パス_1380" data-name="パス 1380" d="M28.955,364.3a.733.733,0,0,1-.206-.03l-1.467-.431a.749.749,0,0,1-.519-.854l1.912-10.8a2.085,2.085,0,0,1,1.063-1.486l7.321-3.94a.3.3,0,0,1,.283.527l-7.321,3.94a1.511,1.511,0,0,0-.757,1.064l-1.912,10.8a.154.154,0,0,0,.1.176l1.467.431a.134.134,0,0,0,.16-.088l2.568-6.776a.3.3,0,0,1,.559.212l-2.568,6.776a.731.731,0,0,1-.682.48" transform="translate(-26.076 -337.975)" fill="#fff" stroke="#fff" stroke-width="0.5"/>
        <path id="パス_1381" data-name="パス 1381" d="M215.213,666.743h-9.835a1.041,1.041,0,0,1-.8-.38,1.1,1.1,0,0,1-.24-.859,51.7,51.7,0,0,0,.144-16.4.3.3,0,0,1,.588-.108,52.287,52.287,0,0,1-.14,16.589.5.5,0,0,0,.108.391.445.445,0,0,0,.341.164h9.835a.444.444,0,0,0,.341-.164.5.5,0,0,0,.108-.392,52.285,52.285,0,0,1-.14-16.589.3.3,0,1,1,.588.108,51.7,51.7,0,0,0,.144,16.4,1.1,1.1,0,0,1-.24.86,1.04,1.04,0,0,1-.8.379" transform="translate(-199.171 -632.389)" fill="#fff" stroke="#fff" stroke-width="0.5"/>
        <path id="パス_1382" data-name="パス 1382" d="M567.062,969.325h-1.507a.3.3,0,1,1,0-.6h1.507a.3.3,0,0,1,0,.6" transform="translate(-550.996 -944.289)" fill="#fff" stroke="#fff" stroke-width="0.5"/>
        <path id="パス_1383" data-name="パス 1383" d="M429.427,444.644a.3.3,0,0,1-.049-.594,10.253,10.253,0,0,0,4.134-1.691.3.3,0,0,1,.308.513,10.734,10.734,0,0,1-4.344,1.768.3.3,0,0,1-.049,0" transform="translate(-418.303 -431.157)" fill="#fff" stroke="#fff" stroke-width="0.5"/>
        <path id="パス_1384" data-name="パス 1384" d="M429.432,532.268a.3.3,0,0,1-.3-.3V511.185a.3.3,0,0,1,.6,0v20.784a.3.3,0,0,1-.3.3" transform="translate(-418.307 -497.998)" fill="#fff" stroke="#fff" stroke-width="0.5"/>
        <path id="パス_1385" data-name="パス 1385" d="M265.642,444.644a.3.3,0,0,1-.049,0,10.734,10.734,0,0,1-4.344-1.768.3.3,0,1,1,.308-.513,10.253,10.253,0,0,0,4.134,1.691.3.3,0,0,1-.049.594" transform="translate(-254.517 -431.157)" fill="#fff" stroke="#fff" stroke-width="0.5"/>
        <path id="パス_1386" data-name="パス 1386" d="M235.119,969.325h-1.511a.3.3,0,1,1,0-.6h1.511a.3.3,0,1,1,0,.6" transform="translate(-227.423 -944.289)" fill="#fff" stroke="#fff" stroke-width="0.5"/>
        <path id="パス_1387" data-name="パス 1387" d="M1336.5,585.422h-1.358a.3.3,0,0,1,0-.6h1.358a.3.3,0,0,1,0,.6" transform="translate(-1301.165 -570.07)" fill="#fff" stroke="#fff" stroke-width="0.5"/>
        <path id="パス_1388" data-name="パス 1388" d="M1443.117,149.449a.3.3,0,0,1-.3-.3v-2.224a.756.756,0,0,1,.577-.732,1.142,1.142,0,0,0,.873-1.133,1.173,1.173,0,0,0-1.133-1.134,1.149,1.149,0,0,0-1.165,1.151.3.3,0,0,1-.6,0,1.748,1.748,0,0,1,1.771-1.749,1.761,1.761,0,0,1,1.723,1.723,1.737,1.737,0,0,1-1.327,1.723.161.161,0,0,0-.123.152v2.224a.3.3,0,0,1-.3.3" transform="translate(-1405.009 -139.712)" fill="#fff" stroke="#fff" stroke-width="0.5"/>
        <path id="パス_1389" data-name="パス 1389" d="M1307.064,368.443h-9.124a.3.3,0,1,1,0-.6h9.124a.148.148,0,0,0,.144-.113.156.156,0,0,0-.073-.178l-8.541-4.687-5.043,2.769a.3.3,0,1,1-.288-.524l5.186-2.847a.31.31,0,0,1,.291,0l8.687,4.767a.754.754,0,0,1,.36.851.745.745,0,0,1-.722.56" transform="translate(-1260.486 -353.091)" fill="#fff" stroke="#fff" stroke-width="0.5"/>
        <path id="パス_1390" data-name="パス 1390" d="M1473.255,565a.748.748,0,1,1,.747-.748.749.749,0,0,1-.747.748m0-.9a.15.15,0,1,0,.15.15.15.15,0,0,0-.15-.15" transform="translate(-1435.359 -549.285)" fill="#fff" stroke="#fff" stroke-width="0.5"/>
        <path id="パス_1391" data-name="パス 1391" d="M1393.543,501h-3.99a.868.868,0,0,1-.867-.867v-4.242a2.862,2.862,0,1,1,5.724-.025v4.267a.868.868,0,0,1-.867.867m-1.982-7.386a2.28,2.28,0,0,0-2.277,2.277v4.242a.27.27,0,0,0,.269.269h3.99a.269.269,0,0,0,.269-.269v-4.267a2.254,2.254,0,0,0-2.251-2.252" transform="translate(-1353.654 -480.576)" fill="#fff" stroke="#fff" stroke-width="0.5"/>
        <path id="パス_1392" data-name="パス 1392" d="M1466.569,670.319a.6.6,0,0,1,.4-.562v-.01a.544.544,0,0,1-.324-.49c0-.379.341-.631.79-.631.524,0,.741.3.741.576a.546.546,0,0,1-.324.493v.01a.593.593,0,0,1,.41.559c0,.407-.341.679-.862.679-.569,0-.831-.321-.831-.624m1.159-.017c0-.2-.145-.314-.352-.369a.34.34,0,0,0-.272.334.307.307,0,0,0,.317.314.282.282,0,0,0,.307-.279m-.59-1.062c0,.152.138.248.317.3a.307.307,0,0,0,.228-.286.257.257,0,0,0-.272-.276.25.25,0,0,0-.272.258" transform="translate(-1429.571 -651.758)" fill="#fff" stroke="#fff" stroke-width="0.5"/>
      </g>
    </g>
  </g>
</svg>
