<svg xmlns="http://www.w3.org/2000/svg" width="55" height="55" viewBox="0 0 55 55">
  <g id="icon-play" transform="translate(-36 -36)">
    <path id="パス_207" data-name="パス 207" d="M146.208,119.261l-18.375-10.917a1.139,1.139,0,0,0-1.721.979v21.718a1.139,1.139,0,0,0,1.716.982l18.375-10.8A1.139,1.139,0,0,0,146.208,119.261Z" transform="translate(-71.612 -56.682)" fill="#fff"/>
    <path id="パス_208" data-name="パス 208" d="M63.5,36.5a27,27,0,1,0,27,27A27.031,27.031,0,0,0,63.5,36.5Zm0,52.335A25.335,25.335,0,1,1,88.835,63.5,25.363,25.363,0,0,1,63.5,88.835Z" fill="#fff" stroke="rgba(0,0,0,0)" stroke-width="1"/>
  </g>
<script xmlns=""/></svg>