<svg xmlns="http://www.w3.org/2000/svg" width="100" height="100" viewBox="0 0 100 100">
  <g id="icon_guest_photo" transform="translate(-408 -3908)">
    <rect id="長方形_813" data-name="長方形 813" width="100" height="100" rx="10" transform="translate(408 3908)" fill="#7694be"/>
    <path id="noun-camera-3357932" d="M153.417,76.079H129.063V72.968a.778.778,0,0,0-.778-.778H120.75a.778.778,0,0,0-.778.778v3.111h-3.889a2.333,2.333,0,0,0-2.333,2.333v26.055a2.333,2.333,0,0,0,2.333,2.333h37.333a2.333,2.333,0,0,0,2.333-2.333V78.412a2.333,2.333,0,0,0-2.333-2.333Zm-31.889-2.333h5.98v2.333h-5.98Zm-6.222,30.722V85.946a8.341,8.341,0,0,1,7.583,8.282v11.018h-6.806a.778.778,0,0,1-.778-.778Zm38.889,0a.778.778,0,0,1-.778.778H124.445V94.227a9.923,9.923,0,0,0-9.139-9.878V78.412a.778.778,0,0,1,.778-.778h37.333a.778.778,0,0,1,.778.778ZM140.844,81.815a10.422,10.422,0,1,0,7.346,3.055,10.4,10.4,0,0,0-7.346-3.055Zm0,19.25a8.859,8.859,0,1,1,6.248-2.6A8.849,8.849,0,0,1,140.844,101.065Zm.778-13.58a.778.778,0,0,1-.778.778,3.961,3.961,0,0,0-3.954,3.954.778.778,0,1,1-1.556,0,5.516,5.516,0,0,1,5.51-5.51.778.778,0,0,1,.778.778ZM127.3,79.773H124.2a2.333,2.333,0,1,0,0,4.667H127.3a2.333,2.333,0,1,0,0-4.667Zm0,3.111H124.2a.778.778,0,0,1,0-1.556H127.3a.778.778,0,0,1,0,1.556Z" transform="translate(323.75 3868.313)" fill="#fff" stroke="#fff" stroke-width="0.5"/>
  </g>
</svg>
