<svg xmlns="http://www.w3.org/2000/svg" xmlns:xlink="http://www.w3.org/1999/xlink" width="12" height="12" viewBox="0 0 12 12">
  <defs>
    <clipPath id="clip-path">
      <rect id="長方形_903" data-name="長方形 903" width="12" height="12" transform="translate(8 9)" fill="#fff" stroke="#a6a08a" stroke-width="1"/>
    </clipPath>
  </defs>
  <g id="icon_plan_less-hover" transform="translate(-8 -9)" clip-path="url(#clip-path)">
    <path id="パス_1351" data-name="パス 1351" d="M3.6,9.2H3.2a.4.4,0,0,0,.4.4Zm4.8,0v.4a.4.4,0,0,0,.4-.4Zm-4.8.4H8.4V8.8H3.6Zm5.2-.4V7.6H8V9.2ZM3.2,7.6V9.2H4V7.6ZM6,4.8A2.8,2.8,0,0,0,3.2,7.6H4a2,2,0,0,1,2-2ZM8.8,7.6A2.8,2.8,0,0,0,6,4.8v.8a2,2,0,0,1,2,2Zm2.4,1.6a.945.945,0,0,1-.325.653,3.383,3.383,0,0,1-1.072.677A9.989,9.989,0,0,1,6,11.2V12a10.761,10.761,0,0,0,4.116-.736,4.175,4.175,0,0,0,1.327-.849A1.736,1.736,0,0,0,12,9.2ZM6,11.2a9.989,9.989,0,0,1-3.8-.67A3.383,3.383,0,0,1,1.124,9.85.944.944,0,0,1,.8,9.2H0a1.736,1.736,0,0,0,.555,1.215,4.171,4.171,0,0,0,1.328.849A10.764,10.764,0,0,0,6,12ZM.8,9.2a.936.936,0,0,1,.315-.644,3.33,3.33,0,0,1,1.044-.669l-.32-.733A4.091,4.091,0,0,0,.542,8,1.724,1.724,0,0,0,0,9.2ZM9.837,7.884a3.316,3.316,0,0,1,1.044.669.938.938,0,0,1,.32.644H12A1.724,1.724,0,0,0,11.458,8a4.091,4.091,0,0,0-1.3-.846l-.32.733ZM6,3.2A1.2,1.2,0,0,1,4.8,2H4A2,2,0,0,0,6,4ZM7.2,2A1.2,1.2,0,0,1,6,3.2V4A2,2,0,0,0,8,2ZM6,.8A1.2,1.2,0,0,1,7.2,2H8A2,2,0,0,0,6,0ZM6,0A2,2,0,0,0,4,2h.8A1.2,1.2,0,0,1,6,.8Z" transform="translate(8 9.002)" fill="#fff"/>
  </g>
</svg>
