<svg xmlns="http://www.w3.org/2000/svg" width="16" height="33.5" viewBox="0 0 16 33.5">
  <g id="icon_scroll" transform="translate(-712 -647)">
    <path id="長方形_6" data-name="長方形 6" d="M8,2A6.007,6.007,0,0,0,2,8V19a6,6,0,0,0,12,0V8A6.007,6.007,0,0,0,8,2M8,0a8,8,0,0,1,8,8V19A8,8,0,0,1,0,19V8A8,8,0,0,1,8,0Z" transform="translate(712 647)" fill="#fff"/>
    <path id="線_4" data-name="線 4" d="M0,15a1,1,0,0,1-1-1V0A1,1,0,0,1,0-1,1,1,0,0,1,1,0V14A1,1,0,0,1,0,15Z" transform="translate(720 665.5)" fill="#fff"/>
  </g>
</svg>
