<svg xmlns="http://www.w3.org/2000/svg" width="64.499" height="30" viewBox="0 0 64.499 30">
  <path id="icon_first_shoes" d="M29.255,0A3.175,3.175,0,0,0,27.24.773a64.687,64.687,0,0,1-6.983,4.618c-3.922,1.918-8.536,2.82-14.107-1.359a1.924,1.924,0,0,0-1.889,0A4.253,4.253,0,0,0,2.823,6.165C1.623,11.475.917,16.233.035,20.7c-.061,2.569-.023,5.211-.023,7.8a1.559,1.559,0,0,0,1.5,1.5h50.24a34.516,34.516,0,0,0,5.694-.985,21.108,21.108,0,0,0,6.374-2.274A1.527,1.527,0,0,0,64.5,25.5c0-4.216-.356-7.39-2.625-9.539s-5.81-2.83-11.529-3.211a17.281,17.281,0,0,1-2.414-.328,1.584,1.584,0,0,0-.951-1.851A1.5,1.5,0,0,0,45.048,11.6c-.551-.207-1.092-.432-1.617-.68a1.578,1.578,0,0,0-.714-1.727c-.722-.413-1.28-.07-1.84.3-.518-.325-1.014-.659-1.5-1.008.428-.889.5-1.575-.228-2.212-.988-.637-1.457-.167-2.115.361-.479-.381-.973-.832-1.383-1.2a1.619,1.619,0,0,0-.1-2.044c-.629-.642-1.3-.45-2.012-.065-.823-.82-1.663-1.682-2.46-2.437A3.265,3.265,0,0,0,29.254,0Zm-.141,3.164c.846.789,1.524,1.508,2.3,2.3a1.728,1.728,0,0,0-.244,2.353c.572.731,1.672.442,2.4-.267.585.57,1.1,1.022,1.664,1.5-.9.957-.9,2.123-.183,2.707.917.6,1.831.076,2.526-.879.617.444,1.247.875,1.922,1.289-.576.948-.745,2.136.274,2.791,1.3.44,1.818-.3,2.35-1.361.7.333,1.449.645,2.2.914a1.767,1.767,0,0,0,1.046,2.016A1.483,1.483,0,0,0,47.2,15.351c.742.1,1.625.24,2.3.3v5.086q-3.638.185-8.084.258c-10.272.18-23.642.012-38.384,0,.9-5.955,1.184-9.28,2.625-13.734a15.666,15.666,0,0,0,15.911.82c2.839-1.3,5.084-3.372,7.545-4.922ZM10.508,12a3.75,3.75,0,1,0,3.749,3.75A3.773,3.773,0,0,0,10.508,12Zm0,3a.75.75,0,1,1-.75.75A.728.728,0,0,1,10.508,15Zm41.992.937c4,.428,6.217,1.167,7.311,2.2a3.752,3.752,0,0,1,.8,1.148,29.782,29.782,0,0,1-5.882,1.078c-.692.069-1.452.13-2.226.187Zm8.811,6.3c.068.675.1,1.419.117,2.25a24.93,24.93,0,0,1-4.686,1.593A35.147,35.147,0,0,1,51.75,27h-10.5V24c4.636-.148,9.486-.243,13.756-.656a31.059,31.059,0,0,0,6.3-1.1ZM3.01,24c13.3.01,25.39.131,35.243.023v1.711H3.01Z" transform="translate(0)" fill="#222"/>
</svg>
