<svg xmlns="http://www.w3.org/2000/svg" width="13.844" height="11.999" viewBox="0 0 13.844 11.999">
  <path id="icon_fixed_fair" d="M6.922,12.537l-.327.327a.461.461,0,0,0,.653,0Zm-5.5-5.5-.327.326ZM6.032,2.418l-.327.326Zm.89.89L6.6,3.634a.461.461,0,0,0,.653,0Zm.89-.89-.326-.327ZM7.249,12.21l-5.505-5.5-.653.653,5.5,5.505.653-.653Zm4.852-5.5L6.6,12.21l.653.653,5.5-5.505L12.1,6.706Zm-6.4-3.962.89.891.653-.653-.891-.89Zm1.543.891.89-.891-.653-.653-.891.89ZM10.119,1A3.723,3.723,0,0,0,7.486,2.091l.653.653a2.8,2.8,0,0,1,1.981-.82Zm2.8,3.725A2.8,2.8,0,0,1,12.1,6.706l.653.653a3.725,3.725,0,0,0,1.091-2.633Zm.923,0A3.725,3.725,0,0,0,10.119,1v.923a2.8,2.8,0,0,1,2.8,2.8ZM3.725,1.923a2.8,2.8,0,0,1,1.981.821l.653-.653A3.725,3.725,0,0,0,3.725,1Zm-2.8,2.8a2.8,2.8,0,0,1,2.8-2.8V1A3.725,3.725,0,0,0,0,4.725Zm.821,1.981A2.8,2.8,0,0,1,.923,4.725H0A3.723,3.723,0,0,0,1.091,7.358l.653-.653Z" transform="translate(0 -1)" fill="#fff"/>
</svg>
