<svg xmlns="http://www.w3.org/2000/svg" width="13" height="13" viewBox="0 0 13 13">
  <path id="icon_fixed_phone-sp" d="M4.117.5h-1.9A1.714,1.714,0,0,0,.5,2.214V3.929A8.571,8.571,0,0,0,9.071,12.5h1.714A1.714,1.714,0,0,0,12.5,10.786V9.6a.857.857,0,0,0-.474-.766L9.955,7.8a.857.857,0,0,0-1.2.5L8.5,9.06a1.037,1.037,0,0,1-1.187.689A5.183,5.183,0,0,1,3.251,5.683,1.037,1.037,0,0,1,3.941,4.5l.95-.317a.857.857,0,0,0,.561-1.02l-.5-2.01A.857.857,0,0,0,4.117.5Z" fill="none" stroke="#707070" stroke-width="1"/>
</svg>
