<svg xmlns="http://www.w3.org/2000/svg" width="16" height="18.462" viewBox="0 0 16 18.462">
  <path id="icon_fixed_document" d="M5.308,8.609H4.692V9.84h.615ZM12.692,9.84h.615V8.609h-.615ZM5.308,12.3H4.692V13.53h.615Zm7.385,1.239h.615V12.308h-.615ZM5.308,4.919H4.692V6.15h.615Zm4.923,1.234h.615V4.923h-.615ZM12.692.615,13.128.18,12.947,0h-.255Zm3.692,3.692H17V4.053l-.18-.181ZM5.308,9.84h7.385V8.609H5.308Zm0,3.69,7.385.009V12.308L5.308,12.3Zm0-7.38,4.923,0V4.923l-4.923,0V6.15Zm9.846,11.081H2.846v1.231H15.154ZM2.231,16.615V1.846H1V16.615ZM2.846,1.231h9.846V0H2.846ZM15.769,4.308V16.615H17V4.308ZM12.257,1.051l3.692,3.692.871-.871L13.128.18l-.871.871Zm-9.41,16.18a.615.615,0,0,1-.615-.615H1a1.846,1.846,0,0,0,1.846,1.846Zm12.308,1.231A1.846,1.846,0,0,0,17,16.615H15.769a.615.615,0,0,1-.615.615ZM2.231,1.846a.615.615,0,0,1,.615-.615V0A1.846,1.846,0,0,0,1,1.846Z" transform="translate(-1)" fill="#fff"/>
</svg>
