<svg xmlns="http://www.w3.org/2000/svg" xmlns:xlink="http://www.w3.org/1999/xlink" width="18" height="18" viewBox="0 0 18 18">
  <defs>
    <clipPath id="clip-path">
      <rect id="長方形_484" data-name="長方形 484" width="18" height="18" transform="translate(125.541 614.791)" fill="#fff" stroke="#707070" stroke-width="1"/>
    </clipPath>
    <clipPath id="clip-path-2">
      <rect id="長方形_483" data-name="長方形 483" width="17.582" height="16.927" fill="none"/>
    </clipPath>
  </defs>
  <g id="icon_fixed_line-sp" transform="translate(-125.541 -614.791)" clip-path="url(#clip-path)">
    <g id="グループ_2357" data-name="グループ 2357" transform="translate(125.75 615.326)">
      <g id="グループ_2356" data-name="グループ 2356" transform="translate(0)" clip-path="url(#clip-path-2)">
        <path id="パス_1339" data-name="パス 1339" d="M14.641,5.931C14.641,2.656,11.363,0,7.32,0S0,2.656,0,5.931c0,2.855,2.49,5.24,5.806,5.8l-.28-.054s.381.074.408.074c.128.021.168.026.3.041a.672.672,0,0,1,.538.815c-.141.917-.165,1.317.212,1.317s5.236-2.606,6.72-5.09a5.062,5.062,0,0,0,.938-2.906" transform="translate(1.471 1.47)" fill="#fff" stroke="#707070" stroke-width="1"/>
        <path id="パス_1340" data-name="パス 1340" d="M45.145,77.71a.086.086,0,0,0-.086-.086H44.47a.086.086,0,0,0-.086.086v3.051a.086.086,0,0,0,.086.086h2.037a.086.086,0,0,0,.086-.086v-.514a.086.086,0,0,0-.086-.086H45.231a.086.086,0,0,1-.086-.086Z" transform="translate(-40.33 -71.637)" fill="#707070"/>
        <rect id="長方形_482" data-name="長方形 482" width="0.762" height="3.223" transform="translate(6.669 5.987)" fill="#707070"/>
        <path id="パス_1341" data-name="パス 1341" d="M114.437,78.97v.317c0,.047-.017.059-.038.025l-.126-.191-.965-1.426a.182.182,0,0,0-.134-.071h-.506a.086.086,0,0,0-.086.086v3.051a.086.086,0,0,0,.086.086h.569a.086.086,0,0,0,.086-.086V79.137c0-.047.02-.054.046-.014l.056.086.1.143.953,1.424a.18.18,0,0,0,.134.071h.491a.086.086,0,0,0,.086-.086V77.711a.086.086,0,0,0-.086-.086h-.574a.086.086,0,0,0-.086.086Z" transform="translate(-104.561 -71.637)" fill="#707070"/>
        <path id="パス_1342" data-name="パス 1342" d="M169.589,80.165a.086.086,0,0,1-.086-.086v-.485a.086.086,0,0,1,.086-.086h1.065a.086.086,0,0,0,.086-.086v-.507a.086.086,0,0,0-.086-.086h-1.065a.086.086,0,0,1-.086-.086v-.349a.086.086,0,0,1,.086-.086h1.137a.086.086,0,0,0,.086-.086V77.71a.086.086,0,0,0-.086-.086h-1.9a.086.086,0,0,0-.086.086v3.051a.086.086,0,0,0,.086.086h1.967a.086.086,0,0,0,.086-.086v-.511a.086.086,0,0,0-.086-.086Z" transform="translate(-157.453 -71.637)" fill="#707070"/>
      </g>
    </g>
  </g>
</svg>
