<svg xmlns="http://www.w3.org/2000/svg" width="100" height="100" viewBox="0 0 100 100">
  <g id="icon_guest_beauty" transform="translate(-819 -3558)">
    <rect id="長方形_813" data-name="長方形 813" width="100" height="100" rx="10" transform="translate(819 3558)" fill="#7694be"/>
    <g id="noun-female-haircut-3991048" transform="translate(677.13 3507)">
      <path id="パス_1349" data-name="パス 1349" d="M198.677,282.049a8.4,8.4,0,0,1-1.389-.115,2.922,2.922,0,0,1-2.37-1.605c-.828-1.924-2-5.338-2.332-6.294l-2.242-1.682a.869.869,0,0,1-.344-.688.806.806,0,0,1,.357-.675c1.389-1.007,3.287-2.943,2.969-3.911a12.79,12.79,0,0,1-.025-5.568.847.847,0,1,1,1.656.357,11.208,11.208,0,0,0-.025,4.676c.637,1.911-1.376,4-2.688,5.122l1.58,1.185h0a.787.787,0,0,1,.293.408c.013.038,1.452,4.268,2.37,6.421.115.268.522.484,1.134.612,2.039.395,5.861-.5,7.555-2.191h0a.858.858,0,0,1,1.2,0,.846.846,0,0,1,0,1.2c-1.771,1.746-5.147,2.752-7.7,2.752Z" transform="translate(-16.693 -162.163)" fill="#fff"/>
      <path id="パス_1350" data-name="パス 1350" d="M282.9,416.946a.852.852,0,0,1-.828-1.057c.42-1.682-.535-4.8-.956-5.874a.847.847,0,1,1,1.58-.612c.166.446,1.644,4.4,1.007,6.893h0a.805.805,0,0,1-.8.65Z" transform="translate(-96.154 -291.326)" fill="#fff"/>
      <path id="パス_1351" data-name="パス 1351" d="M294.954,231.185a3.526,3.526,0,0,1-3.555-3.109.892.892,0,0,1,.1-.65.85.85,0,0,1,1.554.268,2.168,2.168,0,0,0,1.1,1.631,3.093,3.093,0,0,0,2.523-.331c.714-.395,2.051-2.612,2.1-4.74a2.568,2.568,0,0,0-1.121-2.434,2.689,2.689,0,0,0-2.077-.433,3.384,3.384,0,0,0-1.758,1.376h0a.84.84,0,0,1-.879.408c-6.128-1.007-7.555-9.326-7.619-9.683h0a.848.848,0,0,1,.7-.968.858.858,0,0,1,.981.688c.013.076,1.21,6.957,5.708,8.167a4.687,4.687,0,0,1,2.421-1.644,4.312,4.312,0,0,1,3.389.624,4.184,4.184,0,0,1,1.937,3.911c-.051,2.586-1.644,5.453-2.981,6.192h0a4.88,4.88,0,0,1-2.523.726Z" transform="translate(-99.86 -119.988)" fill="#fff"/>
      <path id="パス_1352" data-name="パス 1352" d="M341.548,361.662a7.34,7.34,0,0,1-3.122-.65,5.935,5.935,0,0,1-3.058-3.593c-2-5.772.968-11.747,1.083-12h0a.838.838,0,0,1,1.134-.369.846.846,0,0,1,.382,1.134c-.038.076-2.752,5.606-1.007,10.677a4.21,4.21,0,0,0,2.191,2.612c2.2,1.057,5.058.064,5.084.051h0a.852.852,0,0,1,.573,1.605,10.119,10.119,0,0,1-3.262.535Z" transform="translate(-142.937 -235.559)" fill="#fff"/>
      <path id="パス_1353" data-name="パス 1353" d="M408.019,222.311a3.8,3.8,0,0,1-3.606-2.688c-.688-1.873.624-3.364,2.14-5.109a22.488,22.488,0,0,0,3.606-5.122c2.268-4.689-3.389-12.384-3.44-12.461h0a.847.847,0,1,1,1.363-1.007c.255.344,6.319,8.613,3.606,14.219a24.578,24.578,0,0,1-3.848,5.5c-1.414,1.631-2.14,2.523-1.822,3.4a2.068,2.068,0,0,0,2.242,1.554h0a.8.8,0,0,1,.637.14.925.925,0,0,1,.357.548.854.854,0,0,1-.14.637.822.822,0,0,1-.548.344,3.828,3.828,0,0,1-.548.038Z" transform="translate(-203.624 -105.215)" fill="#fff"/>
      <path id="パス_1354" data-name="パス 1354" d="M180.009,167.146a1.255,1.255,0,0,1-.217-.025l-8.282-2.115a.845.845,0,0,1-.624-.981,14.8,14.8,0,0,1,1.8-4.434h0a16.161,16.161,0,0,1,8.039-6.855,25.355,25.355,0,0,1,15.76-.688c.089.025.153.038.191.051a.852.852,0,0,1-.115,1.695,1.726,1.726,0,0,1-.51-.1,23.966,23.966,0,0,0-14.7.624,14.67,14.67,0,0,0-8.587,9.25l7.453,1.911a.851.851,0,0,1,.637.93.842.842,0,0,1-.841.739Z" transform="translate(0 -66.423)" fill="#fff"/>
      <path id="パス_1355" data-name="パス 1355" d="M189.18,282.283a5.166,5.166,0,0,1-3.313-1.618h0a.848.848,0,1,1,1.249-1.147c.025.025,1.4,1.465,2.612.968h0a.848.848,0,0,1,1.121.446.822.822,0,0,1,0,.65.9.9,0,0,1-.459.459,3.11,3.11,0,0,1-1.21.242Z" transform="translate(-12.891 -178.221)" fill="#fff"/>
      <path id="パス_1356" data-name="パス 1356" d="M326.572,172.882a.846.846,0,0,1-.828-.65.856.856,0,0,1,.433-.956L336.332,166h0a.827.827,0,0,1,.395-.1h8.4a.854.854,0,0,1,0,1.707h-8.18l-9.963,5.186a1.24,1.24,0,0,1-.408.089Z" transform="translate(-135.122 -79.319)" fill="#fff"/>
      <path id="パス_1357" data-name="パス 1357" d="M372.721,124.025a.828.828,0,0,1-.7-.382.857.857,0,0,1-.076-.8l4.2-10.091-.127-7.683a.854.854,0,0,1,.841-.866h.013a.859.859,0,0,1,.854.841l.127,7.861h0a1.093,1.093,0,0,1-.064.344L373.51,123.5h0a.861.861,0,0,1-.79.522Z" transform="translate(-175.397 -25.48)" fill="#fff"/>
      <path id="パス_1358" data-name="パス 1358" d="M406.567,82.135a3.568,3.568,0,1,1,3.567-3.567,3.567,3.567,0,0,1-3.567,3.567Zm0-5.428h0a1.81,1.81,0,0,0-1.312.548,1.884,1.884,0,0,0-.548,1.312,1.81,1.81,0,0,0,.548,1.312,1.884,1.884,0,0,0,1.312.548,1.81,1.81,0,0,0,1.312-.548,1.884,1.884,0,0,0,.548-1.312,1.871,1.871,0,0,0-1.86-1.86Z" transform="translate(-202.554)" fill="#fff"/>
      <path id="パス_1359" data-name="パス 1359" d="M451.567,130.435a3.568,3.568,0,1,1,3.567-3.567,3.567,3.567,0,0,1-3.567,3.567Zm0-5.428h0a1.81,1.81,0,0,0-1.312.548,1.885,1.885,0,0,0-.548,1.312,1.81,1.81,0,0,0,.548,1.312,1.885,1.885,0,0,0,1.312.548,1.81,1.81,0,0,0,1.312-.548,1.885,1.885,0,0,0,.548-1.312,1.81,1.81,0,0,0-.548-1.312,1.831,1.831,0,0,0-1.312-.548Z" transform="translate(-241.821 -42.146)" fill="#fff"/>
    </g>
  </g>
</svg>
