<svg xmlns="http://www.w3.org/2000/svg" xmlns:xlink="http://www.w3.org/1999/xlink" width="20" height="20" viewBox="0 0 20 20">
  <defs>
    <clipPath id="clip-path">
      <rect id="長方形_691" data-name="長方形 691" width="20" height="20" transform="translate(548 1161)" fill="none" stroke="#a6a08a" stroke-width="1"/>
    </clipPath>
    <clipPath id="clip-path-2">
      <rect id="長方形_492" data-name="長方形 492" width="20" height="20" fill="#fff" stroke="#a6a08a" stroke-width="0.909"/>
    </clipPath>
  </defs>
  <g id="icon_fair_ceremony" transform="translate(-548 -1161)" clip-path="url(#clip-path)">
    <g id="グループ_2049" data-name="グループ 2049" transform="translate(-74.727 448.273)">
      <g id="マスクグループ_26" data-name="マスクグループ 26" transform="translate(622.727 712.727)" clip-path="url(#clip-path-2)">
        <path id="パス_878" data-name="パス 878" d="M10,16.808l-.472.472a.666.666,0,0,0,.944,0ZM2.048,8.856l-.472.471ZM8.715,2.19l-.472.471ZM10,3.475l-.472.472a.666.666,0,0,0,.944,0ZM11.285,2.19l-.466-.472Zm-.813,14.145L2.519,8.385l-.943.943,7.951,7.954.944-.944Zm7.009-7.951L9.527,16.335l.944.944,7.951-7.954ZM8.243,2.66,9.527,3.946,10.471,3,9.182,1.718Zm2.229,1.286L11.756,2.66l-.938-.943L9.527,3Zm4.146-3.8a5.379,5.379,0,0,0-3.8,1.575l.943.943a4.049,4.049,0,0,1,2.861-1.182Zm4.048,5.381A4.043,4.043,0,0,1,17.48,8.383l.943.943A5.382,5.382,0,0,0,20,5.523Zm1.334,0A5.382,5.382,0,0,0,14.62.142V1.475a4.048,4.048,0,0,1,4.048,4.048ZM5.381,1.475A4.044,4.044,0,0,1,8.243,2.661l.939-.944A5.382,5.382,0,0,0,5.381.142ZM1.334,5.523A4.048,4.048,0,0,1,5.381,1.475V.142A5.382,5.382,0,0,0,0,5.521ZM2.52,8.384A4.046,4.046,0,0,1,1.334,5.523H0a5.379,5.379,0,0,0,1.576,3.8l.943-.943Z" transform="translate(0 1.192)" fill="#a6a08a"/>
      </g>
    </g>
  </g>
</svg>
