<svg xmlns="http://www.w3.org/2000/svg" width="16.153" height="14" viewBox="0 0 16.153 14">
  <path id="icon_top_contents-active" d="M8.076,14.461l-.381.381a.538.538,0,0,0,.762,0ZM1.654,8.038l-.381.38ZM7.038,2.654l-.381.38ZM8.076,3.692,7.7,4.073a.538.538,0,0,0,.762,0ZM9.114,2.654l-.38-.381ZM8.458,14.079,2.034,7.657l-.761.761L7.7,14.842l.762-.762Zm5.661-6.422L7.7,14.079l.762.762L14.88,8.418l-.761-.761ZM6.657,3.034,7.7,4.073l.762-.762L7.418,2.273Zm1.8,1.039L9.5,3.034l-.761-.761L7.7,3.311ZM11.807,1A4.344,4.344,0,0,0,8.734,2.273l.761.761a3.27,3.27,0,0,1,2.311-.957Zm3.269,4.346a3.265,3.265,0,0,1-.958,2.311l.762.761a4.346,4.346,0,0,0,1.273-3.072Zm1.077,0A4.346,4.346,0,0,0,11.807,1V2.077a3.269,3.269,0,0,1,3.269,3.269ZM4.346,2.077a3.265,3.265,0,0,1,2.311.958l.761-.762A4.346,4.346,0,0,0,4.346,1ZM1.077,5.346A3.269,3.269,0,0,1,4.346,2.077V1A4.346,4.346,0,0,0,0,5.346Zm.958,2.311a3.268,3.268,0,0,1-.958-2.311H0A4.344,4.344,0,0,0,1.273,8.418l.761-.761Z" transform="translate(0 -1)" fill="#e0e0e0"/>
</svg>
