<svg xmlns="http://www.w3.org/2000/svg" width="100" height="100" viewBox="0 0 100 100">
  <g id="icon_guest_parking" transform="translate(24.968 22.969)">
    <rect id="長方形_813" data-name="長方形 813" width="100" height="100" rx="10" transform="translate(-24.968 -22.969)" fill="#7694be"/>
    <path id="パス_1400" data-name="パス 1400" d="M28.645,60.9v2.573A.529.529,0,0,1,28.12,64H25.3a.526.526,0,0,1-.525-.524V60.9" transform="translate(-5.935 -14.968)" fill="none" stroke="#fff" stroke-linecap="round" stroke-linejoin="round" stroke-width="1.5"/>
    <path id="パス_1401" data-name="パス 1401" d="M60.645,60.9v2.573A.529.529,0,0,1,60.12,64H57.3a.526.526,0,0,1-.525-.524V60.9" transform="translate(-13.935 -14.968)" fill="none" stroke="#fff" stroke-linecap="round" stroke-linejoin="round" stroke-width="1.5"/>
    <circle id="楕円形_29" data-name="楕円形 29" cx="0.774" cy="0.774" r="0.774" transform="translate(21.935 42.065)" fill="none" stroke="#fff" stroke-width="1.5"/>
    <path id="パス_1402" data-name="パス 1402" d="M21.677,52.129h6.194V50.581" transform="translate(-5.161 -12.387)" fill="none" stroke="#fff" stroke-linecap="round" stroke-linejoin="round" stroke-width="1.5"/>
    <line id="線_173" data-name="線 173" x2="10.839" transform="translate(27.355 42.839)" fill="none" stroke="#fff" stroke-linecap="round" stroke-linejoin="round" stroke-width="1.5"/>
    <path id="パス_1403" data-name="パス 1403" d="M25.35,42.581H21.677V40.258h2.1C25.35,40.258,25.35,42.581,25.35,42.581Z" transform="translate(-5.161 -9.806)" fill="none" stroke="#fff" stroke-linecap="round" stroke-linejoin="round" stroke-width="1.5"/>
    <path id="パス_1404" data-name="パス 1404" d="M55.742,56.514a.774.774,0,1,0,.774-.774A.772.772,0,0,0,55.742,56.514Z" transform="translate(-13.677 -13.677)" fill="none" stroke="#fff" stroke-width="1.5"/>
    <path id="パス_1405" data-name="パス 1405" d="M37.935,56.341H53.144a1.028,1.028,0,0,0,1.05-1.049v-5.3a9.379,9.379,0,0,0-3.667-6.814s-4.728-.524-12.591-.524-12.585.524-12.585.524a9.367,9.367,0,0,0-3.673,6.814v5.3a1.027,1.027,0,0,0,1.049,1.049Z" transform="translate(-5.161 -10.406)" fill="none" stroke="#fff" stroke-linecap="round" stroke-linejoin="round" stroke-width="1.5"/>
    <path id="パス_1406" data-name="パス 1406" d="M53.493,48.245A81.255,81.255,0,0,1,38.285,50a81.312,81.312,0,0,1-15.209-1.752" transform="translate(-5.511 -11.803)" fill="none" stroke="#fff" stroke-linecap="round" stroke-linejoin="round" stroke-width="1.5"/>
    <path id="パス_1407" data-name="パス 1407" d="M51.75,40.774s-2.1-7.742-3.146-7.742H29.722c-1.048,0-3.147,7.742-3.147,7.742" transform="translate(-6.386 -8)" fill="none" stroke="#fff" stroke-linecap="round" stroke-linejoin="round" stroke-width="1.5"/>
    <path id="パス_1408" data-name="パス 1408" d="M60.142,42.581H63.81V40.258h-2.1C60.142,40.258,60.142,42.581,60.142,42.581Z" transform="translate(-14.778 -9.806)" fill="none" stroke="#fff" stroke-linecap="round" stroke-linejoin="round" stroke-width="1.5"/>
    <path id="パス_1409" data-name="パス 1409" d="M62.968,52.129H56.774V50.581" transform="translate(-13.935 -12.387)" fill="none" stroke="#fff" stroke-linecap="round" stroke-linejoin="round" stroke-width="1.5"/>
    <path id="パス_1410" data-name="パス 1410" d="M14.452,12.387h6.966a5.42,5.42,0,1,1,0,10.84H14.452" transform="translate(-3.355 -2.839)" fill="none" stroke="#fff" stroke-linecap="round" stroke-linejoin="round" stroke-width="1.5"/>
    <line id="線_174" data-name="線 174" y2="15.484" transform="translate(11.097 9.548)" fill="none" stroke="#fff" stroke-linecap="round" stroke-linejoin="round" stroke-width="1.5"/>
    <path id="パス_1411" data-name="パス 1411" d="M13.419,33.548H4.129a3.1,3.1,0,0,1-3.1-3.1V4.129a3.1,3.1,0,0,1,3.1-3.1H30.452a3.1,3.1,0,0,1,3.1,3.1V21.935" fill="none" stroke="#fff" stroke-linecap="round" stroke-linejoin="round" stroke-width="1.5"/>
    <path id="パス_1412" data-name="パス 1412" d="M14.452,31.484H5.935a.773.773,0,0,1-.774-.774V5.935a.773.773,0,0,1,.774-.774H30.71a.773.773,0,0,1,.774.774V22.968" transform="translate(-1.032 -1.032)" fill="none" stroke="#fff" stroke-linecap="round" stroke-linejoin="round" stroke-width="1.5"/>
  </g>
</svg>
