<svg xmlns="http://www.w3.org/2000/svg" xmlns:xlink="http://www.w3.org/1999/xlink" width="20" height="20" viewBox="0 0 20 20">
  <defs>
    <clipPath id="clip-path">
      <rect id="長方形_691" data-name="長方形 691" width="20" height="20" transform="translate(548 1161)" fill="#a6a08a" stroke="#707070" stroke-width="1"/>
    </clipPath>
    <clipPath id="clip-path-2">
      <rect id="長方形_564" data-name="長方形 564" width="20" height="20" fill="#a6a08a" stroke="#707070" stroke-width="0.909"/>
    </clipPath>
  </defs>
  <g id="icon_fair_online" transform="translate(-548 -1161)" clip-path="url(#clip-path)">
    <g id="グループ_2251" data-name="グループ 2251" transform="translate(-74.727 448.273)">
      <g id="マスクグループ_103" data-name="マスクグループ 103" transform="translate(622.727 712.727)" clip-path="url(#clip-path-2)">
        <path id="パス_1209" data-name="パス 1209" d="M2.666,16.666v.667H4v-.667Zm6.666,0v.667h1.334v-.667ZM4,16.666V16H2.666v.666ZM9.333,16v.666h1.334V16ZM6.666,13.334A2.666,2.666,0,0,1,9.334,16h1.334a4,4,0,0,0-4-4ZM4,16a2.666,2.666,0,0,1,2.666-2.666V12a4,4,0,0,0-4,4ZM6.666,5.334A2.666,2.666,0,0,0,4,8H5.334A1.334,1.334,0,0,1,6.666,6.666ZM9.334,8A2.666,2.666,0,0,0,6.666,5.334V6.666A1.334,1.334,0,0,1,8,8ZM6.666,10.666A2.666,2.666,0,0,0,9.334,8H8A1.334,1.334,0,0,1,6.666,9.334Zm0-1.334A1.334,1.334,0,0,1,5.334,8H4a2.666,2.666,0,0,0,2.666,2.666ZM2,4H18V2.666H2Zm16.666.666V15.333H20V4.666ZM18,16H2v1.335H18ZM1.334,15.334V4.666H0V15.333ZM2,16a.666.666,0,0,1-.666-.666H0a2,2,0,0,0,2,2Zm16.666-.666A.666.666,0,0,1,18,16v1.334a2,2,0,0,0,2-2ZM18,4a.666.666,0,0,1,.666.666H20a2,2,0,0,0-2-2ZM2,2.666a2,2,0,0,0-2,2H1.334A.666.666,0,0,1,2,4ZM12,8h4V6.666H12Zm0,4h4V10.666H12ZM0,20H20V18.666H0ZM4,0V3.334H5.334V0ZM14.666,0V3.334H16V0Z" fill="#fff"/>
      </g>
    </g>
  </g>
</svg>
