<svg xmlns="http://www.w3.org/2000/svg" width="48" height="39.07" viewBox="0 0 48 39.07">
  <path id="icon_first_camera" d="M17.3,0,13.4,6.7H5.023A5.012,5.012,0,0,0,0,11.721V34.046A5.012,5.012,0,0,0,5.023,39.07H42.977A5.012,5.012,0,0,0,48,34.046V11.721A5.012,5.012,0,0,0,42.977,6.7H34.6L30.7,0ZM24,10.047A12.837,12.837,0,1,1,11.162,22.884,12.854,12.854,0,0,1,24,10.047Zm17.3,1.675A1.675,1.675,0,1,1,39.628,13.4,1.675,1.675,0,0,1,41.3,11.721ZM24,12.279a10.6,10.6,0,1,0,10.6,10.6A10.588,10.588,0,0,0,24,12.279Zm0,4.465a6.14,6.14,0,1,1-6.14,6.14A6.14,6.14,0,0,1,24,16.745Z" fill="#222"/>
</svg>
