<svg xmlns="http://www.w3.org/2000/svg" xmlns:xlink="http://www.w3.org/1999/xlink" width="12" height="12" viewBox="0 0 12 12">
  <defs>
    <clipPath id="clip-path">
      <rect id="長方形_903" data-name="長方形 903" width="12" height="12" transform="translate(8 9)" fill="#fff" stroke="#707070" stroke-width="1"/>
    </clipPath>
  </defs>
  <g id="icon_plan_many" transform="translate(-8 -9)" clip-path="url(#clip-path)">
    <path id="パス_1351" data-name="パス 1351" d="M8.4,11.592v.4h.4v-.4Zm-8,0H0v.4H.4Zm11.2.008V12H12v-.4ZM6.4,2.8a2,2,0,0,1-2,2v.8A2.8,2.8,0,0,0,7.2,2.8Zm-2,2a2,2,0,0,1-2-2H1.6A2.8,2.8,0,0,0,4.4,5.6Zm-2-2a2,2,0,0,1,2-2V0A2.8,2.8,0,0,0,1.6,2.8Zm2-2a2,2,0,0,1,2,2h.8A2.8,2.8,0,0,0,4.4,0Zm4,10.392H.4v.8h8Zm-7.6.4v-1.6H0v1.6Zm2-3.6H6v-.8H2.8Zm5.2,2v1.6h.8v-1.6Zm-2-2a2,2,0,0,1,2,2h.8A2.8,2.8,0,0,0,6,7.192ZM.8,10a2,2,0,0,1,2-2V7.2A2.8,2.8,0,0,0,0,10Zm10.4.4v1.2H12V10.4Zm.4.8h-2V12h2Zm-2-2.4a1.6,1.6,0,0,1,1.6,1.6H12A2.4,2.4,0,0,0,9.6,8ZM9.2,6.4A1.2,1.2,0,0,1,8,5.2H7.2a2,2,0,0,0,2,2Zm1.2-1.2A1.2,1.2,0,0,1,9.2,6.4v.8a2,2,0,0,0,2-2ZM9.2,4a1.2,1.2,0,0,1,1.2,1.2h.8a2,2,0,0,0-2-2Zm0-.8a2,2,0,0,0-2,2H8A1.2,1.2,0,0,1,9.2,4Z" transform="translate(8 9)" fill="#a6a08a"/>
  </g>
</svg>
