<svg xmlns="http://www.w3.org/2000/svg" width="48" height="49.105" viewBox="0 0 48 49.105">
  <path id="icon_first_bag" d="M47.964,46.335,41.939,14.821a2.7,2.7,0,0,0-2.84-2.008H34.6a.4.4,0,0,1-.416-.416V8.934C34.181,4.017,29.61,0,24,0S13.82,4.017,13.82,8.934V12.4a.4.4,0,0,1-.416.416H8.9a2.758,2.758,0,0,0-2.84,2.008L.037,46.335c-.277,1.454,1.039,2.77,2.84,2.77H45.126c1.731,0,3.116-1.316,2.839-2.77ZM15.9,8.865c0-3.74,3.6-6.857,8.1-6.857s8.1,3.047,8.1,6.857v3.463a.4.4,0,0,1-.416.416H16.313a.4.4,0,0,1-.416-.416ZM14.65,20.916a2.132,2.132,0,0,1-1.87-1.8,1.908,1.908,0,0,1,.623-1.8.275.275,0,0,1,.485.208v.485a1.044,1.044,0,0,0,.831,1.039,1.014,1.014,0,0,0,1.247-1.039v-.485c0-.277.277-.346.485-.208a2.036,2.036,0,0,1,.623,1.524,2.256,2.256,0,0,1-2.424,2.078Zm18.215,0a2.132,2.132,0,0,1-1.87-1.8,1.908,1.908,0,0,1,.623-1.8.275.275,0,0,1,.485.208v.485a1.044,1.044,0,0,0,.831,1.039,1.014,1.014,0,0,0,1.247-1.039v-.485c0-.277.277-.346.485-.208a2.036,2.036,0,0,1,.623,1.524,2.178,2.178,0,0,1-2.424,2.078Z" transform="translate(0)" fill="#222"/>
</svg>
