<svg xmlns="http://www.w3.org/2000/svg" xmlns:xlink="http://www.w3.org/1999/xlink" width="283.553" height="64.209" viewBox="0 0 283.553 64.209">
  <defs>
    <clipPath id="clip-path">
      <rect id="長方形_766" data-name="長方形 766" width="283.553" height="64.209" fill="#e0e0e0"/>
    </clipPath>
  </defs>
  <g id="main_copy" clip-path="url(#clip-path)">
    <path id="パス_1372" data-name="パス 1372" d="M0,22.5a4.13,4.13,0,0,0,2.748-.97q.61-.747.608-3.48V4.027a3.5,3.5,0,0,0-.589-2.436A4.545,4.545,0,0,0,.084.925V.284h6.81l7.932,17.2,7.74-17.2h6.864V.925a4.1,4.1,0,0,0-2.48.7,3.593,3.593,0,0,0-.555,2.4V19.378a3.55,3.55,0,0,0,.555,2.42,4.466,4.466,0,0,0,2.48.7v.641H19.767V22.5a4.253,4.253,0,0,0,2.605-.749,4.752,4.752,0,0,0,.515-2.774V3.469L14.04,23.137h-.471L4.874,4.279V18.046q0,2.832.828,3.691a4.2,4.2,0,0,0,2.411.759v.641H0Z" transform="translate(0 0.121)" fill="#e0e0e0"/>
    <path id="パス_1373" data-name="パス 1373" d="M28.873,23.258v-.641a2.805,2.805,0,0,0,2-1,27.759,27.759,0,0,0,2.284-4.663L40.352,0h.689l8.605,19.582a8.225,8.225,0,0,0,1.374,2.406,3.276,3.276,0,0,0,1.731.631v.641H43.966v-.641a7.77,7.77,0,0,0,1.952-.33c.292-.128.437-.442.437-.947a4.2,4.2,0,0,0-.167-.889,9.58,9.58,0,0,0-.474-1.343l-1.383-3.324h-9.1q-1.346,3.39-1.608,4.138a3.8,3.8,0,0,0-.261,1.184,1.225,1.225,0,0,0,.708,1.209,5.694,5.694,0,0,0,1.649.3v.641Zm14.876-8.873L39.792,4.874l-3.978,9.511Z" transform="translate(12.323 0)" fill="#e0e0e0"/>
    <path id="パス_1374" data-name="パス 1374" d="M53.534,22.5a3.942,3.942,0,0,0,2.48-.772,4.888,4.888,0,0,0,.488-2.737V4.027a3.593,3.593,0,0,0-.549-2.387A4.021,4.021,0,0,0,53.534.924V.283H63.1a14.128,14.128,0,0,1,4.974.758,5.26,5.26,0,0,1,3.78,5.272,4.831,4.831,0,0,1-1.681,3.958,9.22,9.22,0,0,1-4.562,1.819l7.117,8.766a4.787,4.787,0,0,0,1.316,1.171,4.324,4.324,0,0,0,1.688.469v.641H70.165L61.526,12.5l-1.515.083v6.809a3.4,3.4,0,0,0,.582,2.428,4.852,4.852,0,0,0,2.538.682v.641h-9.6ZM65.341,10.522a4.2,4.2,0,0,0,2.748-4.245,4.07,4.07,0,0,0-2.464-4.089A8.639,8.639,0,0,0,62.136,1.6a4.348,4.348,0,0,0-1.8.213c-.22.138-.328.468-.328.983v8.5a17.487,17.487,0,0,0,5.331-.775" transform="translate(22.849 0.121)" fill="#e0e0e0"/>
    <path id="パス_1375" data-name="パス 1375" d="M76.944,22.5a3.942,3.942,0,0,0,2.48-.772,4.888,4.888,0,0,0,.488-2.737V4.027a3.593,3.593,0,0,0-.549-2.387A4.021,4.021,0,0,0,76.944.924V.283h9.564a14.128,14.128,0,0,1,4.974.758A5.259,5.259,0,0,1,95.26,6.313a4.83,4.83,0,0,1-1.679,3.958,9.22,9.22,0,0,1-4.563,1.819l7.118,8.766a4.787,4.787,0,0,0,1.316,1.171,4.323,4.323,0,0,0,1.688.469v.641H93.575L84.936,12.5l-1.515.083v6.809A3.4,3.4,0,0,0,84,21.815a4.852,4.852,0,0,0,2.538.682v.641h-9.6ZM88.751,10.522A4.2,4.2,0,0,0,91.5,6.277a4.07,4.07,0,0,0-2.464-4.089A8.639,8.639,0,0,0,85.546,1.6a4.343,4.343,0,0,0-1.8.213c-.22.138-.328.468-.328.983v8.5a17.487,17.487,0,0,0,5.331-.775" transform="translate(32.841 0.121)" fill="#e0e0e0"/>
    <path id="パス_1376" data-name="パス 1376" d="M100.471,22.5a5.757,5.757,0,0,0,2.734-.629q.623-.477.625-2.476V4.028a3.367,3.367,0,0,0-.625-2.454,4.887,4.887,0,0,0-2.734-.649V.284h10.222V.925a4.883,4.883,0,0,0-2.731.649,3.354,3.354,0,0,0-.625,2.454V19.392q0,2,.625,2.476a5.753,5.753,0,0,0,2.731.629v.641H100.471Z" transform="translate(42.882 0.121)" fill="#e0e0e0"/>
    <path id="パス_1377" data-name="パス 1377" d="M125.6.283V.924a5.318,5.318,0,0,0-1.822.185.9.9,0,0,0-.6.945,1.93,1.93,0,0,0,.1.548,3.623,3.623,0,0,0,.455.869l5.085,7.455,4.958-7.574a3.413,3.413,0,0,0,.4-.809,1.911,1.911,0,0,0,.091-.472.962.962,0,0,0-.79-.979A6.258,6.258,0,0,0,131.85.924V.283H139.4V.924a3.511,3.511,0,0,0-1.871.625,12.488,12.488,0,0,0-2.878,3.322l-5.1,7.792v6.719q0,2,.649,2.5a5.991,5.991,0,0,0,2.909.615v.642h-10.54V22.5q2.341-.135,2.909-.7t.564-2.819v-6l-4.52-6.626a40.064,40.064,0,0,0-3.289-4.395A3.324,3.324,0,0,0,115.938.924V.283Z" transform="translate(49.484 0.121)" fill="#e0e0e0"/>
    <path id="パス_1378" data-name="パス 1378" d="M140.422,22.5a5.044,5.044,0,0,0,2.471-.681q.565-.475.566-2.424V4.028a3.6,3.6,0,0,0-.558-2.4,4.094,4.094,0,0,0-2.48-.7V.284h18.35l.12,4.941h-.878A4.9,4.9,0,0,0,156.7,2.27q-.877-.67-3.912-.671h-4.7q-.76,0-.939.244a1.691,1.691,0,0,0-.176.92V10.47H152.3q2.211,0,2.818-.653a5.673,5.673,0,0,0,.977-2.652h.809v7.979h-.809a5.739,5.739,0,0,0-.994-2.657q-.606-.648-2.8-.649h-5.328v8.549c0,.688.214,1.093.649,1.216a21.913,21.913,0,0,0,3.892.185,13.122,13.122,0,0,0,5.186-.768q1.674-.766,3-3.718h.962l-1.569,5.836H140.422Z" transform="translate(59.934 0.121)" fill="#e0e0e0"/>
    <path id="パス_1379" data-name="パス 1379" d="M162.473,22.5a5.044,5.044,0,0,0,2.471-.681q.565-.475.566-2.424V4.028a3.6,3.6,0,0,0-.558-2.4,4.1,4.1,0,0,0-2.48-.7V.284h9.751V.925a4.761,4.761,0,0,0-2.555.624,2.848,2.848,0,0,0-.649,2.244V20.386a1.788,1.788,0,0,0,.193.9,1.084,1.084,0,0,0,.852.412c.26.036.532.057.82.068s.825.017,1.612.017q4.612,0,6.232-.759t3.14-3.88h.878l-1.689,5.988H162.473Z" transform="translate(69.345 0.121)" fill="#e0e0e0"/>
    <path id="パス_1380" data-name="パス 1380" d="M184.523,22.5a5.039,5.039,0,0,0,2.471-.681q.567-.475.566-2.424V4.028a3.61,3.61,0,0,0-.556-2.4,4.1,4.1,0,0,0-2.481-.7V.284h9.751V.925a4.761,4.761,0,0,0-2.555.624,2.854,2.854,0,0,0-.649,2.244V20.386a1.773,1.773,0,0,0,.194.9,1.082,1.082,0,0,0,.852.412c.258.036.531.057.82.068s.825.017,1.611.017q4.612,0,6.234-.759t3.139-3.88h.877l-1.689,5.988H184.523Z" transform="translate(78.757 0.121)" fill="#e0e0e0"/>
    <path id="パス_1381" data-name="パス 1381" d="M12.635,28.666h19.53l.185,5.868h-.828a7.053,7.053,0,0,0-1.541-3.6q-.935-.837-3.941-.835H24.119V47.775q0,2,.624,2.474a5.75,5.75,0,0,0,2.734.629v.642H17.409v-.642a4.8,4.8,0,0,0,2.731-.721q.539-.556.541-2.788V30.1H18.74q-2.868,0-3.9.826t-1.561,3.608h-.845Z" transform="translate(5.306 12.235)" fill="#e0e0e0"/>
    <path id="パス_1382" data-name="パス 1382" d="M34.508,51.641V51a2.818,2.818,0,0,0,2-1,27.838,27.838,0,0,0,2.281-4.663l7.2-16.951h.689l8.605,19.582a8.244,8.244,0,0,0,1.377,2.406A3.274,3.274,0,0,0,58.386,51v.641H49.6V51a7.8,7.8,0,0,0,1.955-.33c.29-.128.437-.442.437-.947a4.079,4.079,0,0,0-.17-.889,9.2,9.2,0,0,0-.471-1.343l-1.383-3.324h-9.1q-1.346,3.39-1.608,4.138A3.861,3.861,0,0,0,39,49.49a1.22,1.22,0,0,0,.708,1.209,5.672,5.672,0,0,0,1.649.3v.641Zm14.879-8.873-3.959-9.511-3.977,9.511Z" transform="translate(14.728 12.114)" fill="#e0e0e0"/>
    <path id="パス_1383" data-name="パス 1383" d="M59.334,50.93a4.217,4.217,0,0,0,2.614-.752,4.826,4.826,0,0,0,.508-2.779V32.414a3.557,3.557,0,0,0-.566-2.423,4.382,4.382,0,0,0-2.555-.683v-.642h9.835v.642a4.332,4.332,0,0,0-2.614.673,3.489,3.489,0,0,0-.592,2.428v7.077q3.191-2.718,5.218-4.629,3.628-3.448,3.628-4.423a.875.875,0,0,0-.616-.909,5.409,5.409,0,0,0-1.748-.218v-.642H81.5v.642a7.646,7.646,0,0,0-2.611.638,12.675,12.675,0,0,0-2.641,2.077L69.5,38.273l8.227,8.886a29.877,29.877,0,0,0,3.056,2.992,5.024,5.024,0,0,0,2.383.779v.591H72.6V50.93a7.668,7.668,0,0,0,1.939-.228.686.686,0,0,0,.508-.7,2.145,2.145,0,0,0-.33-.879,7.714,7.714,0,0,0-1.039-1.368l-6.652-7.188-1.066.989V47.8c0,1.284.193,2.1.584,2.443a4.8,4.8,0,0,0,2.535.683v.591H59.334Z" transform="translate(25.324 12.235)" fill="#e0e0e0"/>
    <path id="パス_1384" data-name="パス 1384" d="M84,51.641V51a2.818,2.818,0,0,0,2-1,27.838,27.838,0,0,0,2.281-4.663l7.2-16.951h.689l8.605,19.582a8.21,8.21,0,0,0,1.377,2.406,3.274,3.274,0,0,0,1.728.631v.641H99.091V51a7.8,7.8,0,0,0,1.955-.33c.29-.128.437-.442.437-.947a4.079,4.079,0,0,0-.17-.889,9.2,9.2,0,0,0-.471-1.343l-1.383-3.324h-9.1q-1.346,3.39-1.608,4.138a3.861,3.861,0,0,0-.258,1.184A1.22,1.22,0,0,0,89.2,50.7a5.672,5.672,0,0,0,1.649.3v.641Zm14.879-8.873-3.959-9.511-3.977,9.511Z" transform="translate(35.851 12.114)" fill="#e0e0e0"/>
    <path id="パス_1385" data-name="パス 1385" d="M110.184,44.717a12.527,12.527,0,0,0,2.053,3.713,6.441,6.441,0,0,0,5.1,2.41,4.221,4.221,0,0,0,2.856-1.044,3.661,3.661,0,0,0,1.2-2.918,4.077,4.077,0,0,0-1.211-2.935,21.373,21.373,0,0,0-3.333-2.378l-2.946-1.838a10.726,10.726,0,0,1-2.123-1.7,5.287,5.287,0,0,1-1.465-3.611,5.9,5.9,0,0,1,1.735-4.349,6.214,6.214,0,0,1,4.6-1.738,8.825,8.825,0,0,1,2.842.581,12.076,12.076,0,0,0,1.9.582,1.083,1.083,0,0,0,.886-.3,2.2,2.2,0,0,0,.38-.859h.708l.758,7.352h-.825a7.758,7.758,0,0,0-2.708-4.637,6.369,6.369,0,0,0-3.684-1.316,3.869,3.869,0,0,0-2.473.835,2.794,2.794,0,0,0-1.053,2.319,3.4,3.4,0,0,0,.809,2.279,10.332,10.332,0,0,0,2.51,2.006l3.032,1.873a15.761,15.761,0,0,1,4.016,3.219,5.553,5.553,0,0,1,1.153,3.509,5.814,5.814,0,0,1-2.05,4.537,7.585,7.585,0,0,1-5.236,1.821,10.164,10.164,0,0,1-3.347-.606,12.645,12.645,0,0,0-2-.606.856.856,0,0,0-.819.371,2.366,2.366,0,0,0-.28.792h-.758l-1.029-7.354Z" transform="translate(46.69 12.089)" fill="#e0e0e0"/>
    <path id="パス_1386" data-name="パス 1386" d="M129.471,51.641V51a2.805,2.805,0,0,0,2-1,27.875,27.875,0,0,0,2.284-4.663l7.2-16.951h.689l8.6,19.582a8.259,8.259,0,0,0,1.374,2.406,3.281,3.281,0,0,0,1.732.631v.641h-8.786V51a7.8,7.8,0,0,0,1.953-.33c.292-.128.437-.442.437-.947a4.139,4.139,0,0,0-.168-.889,9.4,9.4,0,0,0-.474-1.343l-1.381-3.324h-9.1q-1.348,3.39-1.609,4.138a3.838,3.838,0,0,0-.261,1.184,1.225,1.225,0,0,0,.708,1.209,5.7,5.7,0,0,0,1.651.3v.641Zm14.875-8.873-3.955-9.511-3.979,9.511Z" transform="translate(55.26 12.114)" fill="#e0e0e0"/>
    <path id="パス_1387" data-name="パス 1387" d="M154.3,50.93a4.224,4.224,0,0,0,2.614-.752,4.833,4.833,0,0,0,.505-2.779V32.414a3.56,3.56,0,0,0-.564-2.423,4.39,4.39,0,0,0-2.555-.683v-.642h9.832v.642a4.339,4.339,0,0,0-2.614.673,3.5,3.5,0,0,0-.591,2.428v7.077q3.193-2.718,5.216-4.629,3.632-3.448,3.631-4.423a.878.878,0,0,0-.616-.909,5.433,5.433,0,0,0-1.748-.218v-.642h9.049v.642a7.628,7.628,0,0,0-2.608.638,12.6,12.6,0,0,0-2.644,2.077l-6.742,6.249,8.227,8.886a29.572,29.572,0,0,0,3.056,2.992,5.023,5.023,0,0,0,2.38.779v.591H167.562V50.93A7.668,7.668,0,0,0,169.5,50.7a.683.683,0,0,0,.508-.7,2.1,2.1,0,0,0-.33-.879,7.821,7.821,0,0,0-1.036-1.368l-6.655-7.188-1.064.989V47.8a3.444,3.444,0,0,0,.582,2.443,4.808,4.808,0,0,0,2.538.683v.591H154.3Z" transform="translate(65.856 12.235)" fill="#e0e0e0"/>
    <path id="パス_1388" data-name="パス 1388" d="M178.994,50.879a5.753,5.753,0,0,0,2.731-.629c.418-.318.624-1.143.624-2.476V32.41a3.355,3.355,0,0,0-.624-2.454,4.883,4.883,0,0,0-2.731-.649v-.641h10.222v.641a4.887,4.887,0,0,0-2.734.649,3.368,3.368,0,0,0-.624,2.454V47.774q0,2,.624,2.476a5.757,5.757,0,0,0,2.734.629v.641H178.994Z" transform="translate(76.397 12.235)" fill="#e0e0e0"/>
  </g>
</svg>
